<svg width="5000" height="5000" viewBox="0 0 5000 5000" fill="none" xmlns="http://www.w3.org/2000/svg">
<path opacity="0.6" d="M3956.86 3091.64H2920.56C2920.56 3091.64 2419.87 3080.02 2391.48 3159.5H996.969C733.417 2648.99 1295.56 2409.24 1294.83 2264.67C1294.82 2263.69 1294.82 2262.7 1294.82 2261.71C1294.82 1908.46 1613.78 1622.12 2007.17 1622.12C2048.4 1622.12 2088.82 1625.27 2128.14 1631.3C2249.95 1650.02 2373.8 1619.68 2473.35 1544.18C2566.65 1473.42 2679.69 1432 2801.5 1432C3029.48 1432 3226.76 1577.09 3321.51 1788.14C3384.88 1929.28 3508.89 2030.23 3655.79 2059.34C3904.38 2108.61 4106.57 2279.6 4168.54 2525.66C4217.95 2721.96 4113.97 2995.79 3956.86 3091.64Z" fill="#EDF2FF"/>
<path opacity="0.6" d="M2159.96 1555.73C2148.19 1532.71 2173.49 1511.73 2195.71 1500.39C2219.71 1488.13 2325.36 1485.07 2337.27 1516.98C2347.4 1544.13 2325.23 1577.48 2287.74 1591.47C2251.89 1604.85 2197.43 1593.3 2169.49 1567.71C2165.09 1563.68 2161.98 1559.67 2159.96 1555.73Z" fill="#EDF2FF"/>
<path opacity="0.6" d="M827.298 2318.44C801.494 2265.78 849.144 2221.79 891.79 2198.93C937.857 2174.25 1146.26 2179.11 1173.32 2251.63C1196.35 2313.33 1156.23 2385.29 1083.7 2412.36C1014.36 2438.24 905.485 2406.43 847.441 2346.23C838.305 2336.76 831.722 2327.47 827.298 2318.44Z" fill="#EDF2FF"/>
<path opacity="0.6" d="M2585.88 3384.51C2539.83 3290.41 2624.42 3212.02 2700.16 3171.36C2781.99 3127.43 3152.53 3136.78 3200.88 3266.33C3242.02 3376.54 3170.91 3504.88 3042.05 3552.98C2918.85 3598.97 2725.17 3541.83 2621.78 3434.18C2605.51 3417.23 2593.77 3400.64 2585.88 3384.51Z" fill="#EDF2FF"/>
<path d="M1913.61 1734.34L1874.91 1667.49C1889.22 1645.07 1897.55 1618.46 1897.55 1589.89C1897.55 1510.12 1832.88 1445.44 1753.1 1445.44C1673.33 1445.44 1608.66 1510.12 1608.66 1589.89C1608.66 1669.67 1673.33 1734.34 1753.1 1734.34C1787.08 1734.34 1818.3 1722.58 1842.96 1702.94L1913.61 1734.34Z" fill="white"/>
<path d="M1919.63 1739.75L1843.33 1705.83C1817.31 1726.12 1786.15 1736.84 1753.1 1736.84C1672.08 1736.84 1606.16 1670.92 1606.16 1589.89C1606.16 1508.87 1672.08 1442.95 1753.1 1442.95C1834.13 1442.95 1900.05 1508.87 1900.05 1589.89C1900.05 1617.42 1892.37 1644.24 1877.83 1667.55L1919.63 1739.75ZM1753.1 1447.94C1674.83 1447.94 1611.15 1511.62 1611.15 1589.89C1611.15 1668.16 1674.83 1731.84 1753.1 1731.84C1785.51 1731.84 1816.05 1721.17 1841.41 1700.98L1842.59 1700.04L1907.59 1728.93L1871.98 1667.43L1872.8 1666.15C1887.35 1643.35 1895.05 1616.98 1895.05 1589.89C1895.05 1511.62 1831.37 1447.94 1753.1 1447.94Z" fill="#102048"/>
<path d="M1677.94 1613.57C1688.29 1613.57 1696.68 1605.18 1696.68 1594.83C1696.68 1584.48 1688.29 1576.09 1677.94 1576.09C1667.59 1576.09 1659.2 1584.48 1659.2 1594.83C1659.2 1605.18 1667.59 1613.57 1677.94 1613.57Z" fill="#708CD5"/>
<path d="M1752.9 1613.57C1763.25 1613.57 1771.64 1605.18 1771.64 1594.83C1771.64 1584.48 1763.25 1576.09 1752.9 1576.09C1742.55 1576.09 1734.16 1584.48 1734.16 1594.83C1734.16 1605.18 1742.55 1613.57 1752.9 1613.57Z" fill="#708CD5"/>
<path d="M1827.86 1613.57C1838.21 1613.57 1846.6 1605.18 1846.6 1594.83C1846.6 1584.48 1838.21 1576.09 1827.86 1576.09C1817.51 1576.09 1809.12 1584.48 1809.12 1594.83C1809.12 1605.18 1817.51 1613.57 1827.86 1613.57Z" fill="#708CD5"/>
<path d="M2710.69 1884.09H1547.1V2576.63H2710.69V1884.09Z" fill="white"/>
<path d="M2710.69 1881.67H1547.1V2029.33H2710.69V1881.67Z" fill="#C6EAE9"/>
<path d="M2713.1 2579.04H1544.69V1881.67H2713.1L2713.1 2579.04ZM1549.52 2574.21H2708.27V1886.5H1549.52V2574.21Z" fill="#102048"/>
<path d="M1638.6 1991.99C1618.48 1991.99 1602.11 1975.62 1602.11 1955.5C1602.11 1935.38 1618.48 1919.01 1638.6 1919.01C1658.72 1919.01 1675.09 1935.38 1675.09 1955.5C1675.09 1975.62 1658.72 1991.99 1638.6 1991.99ZM1638.6 1924.01C1621.23 1924.01 1607.11 1938.14 1607.11 1955.5C1607.11 1972.87 1621.23 1986.99 1638.6 1986.99C1655.96 1986.99 1670.09 1972.87 1670.09 1955.5C1670.09 1938.14 1655.96 1924.01 1638.6 1924.01Z" fill="#102048"/>
<path d="M2860.01 1921.18C2929.61 1851.57 2929.61 1738.72 2860.01 1669.12C2790.4 1599.51 2677.55 1599.51 2607.95 1669.12C2538.34 1738.72 2538.34 1851.57 2607.95 1921.18C2677.55 1990.78 2790.4 1990.78 2860.01 1921.18Z" fill="white"/>
<path d="M2734 1975.87C2634.34 1975.87 2553.26 1894.8 2553.26 1795.14C2553.26 1695.48 2634.34 1614.4 2734 1614.4C2833.65 1614.4 2914.73 1695.48 2914.73 1795.14C2914.73 1894.79 2833.65 1975.87 2734 1975.87ZM2734 1619.4C2637.09 1619.4 2558.26 1698.23 2558.26 1795.14C2558.26 1892.04 2637.09 1970.88 2734 1970.88C2830.9 1970.88 2909.73 1892.04 2909.73 1795.14C2909.73 1698.23 2830.9 1619.4 2734 1619.4Z" fill="#102048"/>
<path d="M2732.88 1798.7L2659.72 1721.06L2663.35 1717.63L2734.05 1792.65L2801.45 1761.43L2803.55 1765.96L2732.88 1798.7Z" fill="#102048"/>
<path d="M2740.66 1921.74H2730.66V1949.22H2740.66V1921.74Z" fill="#102048"/>
<path d="M2740.66 1647.72H2730.66V1675.2H2740.66V1647.72Z" fill="#102048"/>
<path d="M2884.33 1790.14H2856.84V1800.13H2884.33V1790.14Z" fill="#102048"/>
<path d="M2611.14 1790.14H2583.66V1800.13H2611.14V1790.14Z" fill="#102048"/>
<path d="M2330.88 1999.52L2216.79 1990.37L2100.16 1983.72L2026.45 1976.48L2026.05 1932.3C2026.05 1932.3 2011.55 1956.34 2001.21 1973.98L1964.43 1970.38C1935.25 1930.4 1948.59 1902.92 1978.57 1887.08C2009.31 1870.89 1961.08 1812.12 2008.56 1787.13C2008.56 1787.13 2047.13 1772.94 2057.68 1751.35C2075.17 1715.52 2106.85 1639.71 2200.1 1683.89C2202.84 1685.18 2212.95 1682.07 2216.11 1681.92C2228.72 1681.29 2241.53 1682.57 2253.64 1686.23C2269.55 1691.05 2283.82 1700.09 2294.68 1712.72C2313.82 1734.99 2312.42 1766.77 2332.82 1788.17C2342.52 1798.34 2353.58 1809.4 2360.12 1821.96C2369.66 1840.29 2360.14 1859.59 2356.97 1878.18C2352.86 1902.24 2367.92 1920.37 2369.98 1943.61C2372.42 1971.11 2355.62 1989.82 2330.88 1999.52Z" fill="#102048"/>
<path d="M2069.12 2062.83C2084.76 2019.11 2093.21 1961.54 2087.26 1887.93L2225.34 1936.65C2225.64 1938.6 2225.94 1940.55 2226.24 1942.5C2230.43 1968.73 2237.23 1997.12 2246.28 2022.75C2252.72 2040.99 2260.32 2057.88 2269.01 2071.58L2069.12 2062.83Z" fill="#F9B384"/>
<path d="M2246.28 2022.75C2202.3 2004.91 2165.07 1976.58 2134.74 1937.3L2226.24 1942.5C2230.44 1968.73 2237.23 1997.12 2246.28 2022.75Z" fill="#E28B6D"/>
<path d="M2274.61 1866.49C2278.16 1882.53 2279.47 1899.1 2274.61 1913.36C2258 1962.13 2230.1 1981.7 2185.54 1968.38C2166.17 1962.58 2140.83 1951.14 2126.14 1937.25C2107.65 1919.71 2090.36 1894.32 2073.52 1865.44L2086.86 1757.15L2209.3 1723.02L2286.76 1751.35L2290.9 1792.98L2267.57 1844.6C2270.61 1851.7 2272.96 1859.09 2274.61 1866.49Z" fill="#F9B384"/>
<path d="M2289.03 1825.46C2280.28 1783.61 2216.17 1751.91 2176.59 1761.12C2154.1 1826.09 2106 1852.95 2061.03 1831.29L2061.86 1792.98L2081.02 1739.67L2152.64 1711.35L2232.6 1705.52L2282.57 1733.01L2303.4 1771.32L2289.03 1825.46Z" fill="#102048"/>
<path d="M2224.99 1850.33C2225.24 1855.12 2226.19 1859.77 2228.01 1864.22C2229.9 1868.84 2232.71 1872.55 2235.63 1876.56C2237.95 1879.74 2240.78 1884.24 2237.99 1887.99C2235.76 1891 2231.49 1892.23 2228.03 1893.07C2224.91 1893.83 2226.23 1898.65 2229.36 1897.88C2237.18 1895.98 2246.04 1891.01 2243.78 1881.57C2242.5 1876.22 2238.29 1872.38 2235.46 1867.86C2232.14 1862.57 2230.31 1856.55 2229.99 1850.33C2229.82 1847.13 2224.82 1847.11 2224.99 1850.33Z" fill="#102048"/>
<path d="M2194.6 1861.38C2199.09 1861.38 2202.72 1855.92 2202.72 1849.2C2202.72 1842.47 2199.09 1837.02 2194.6 1837.02C2190.12 1837.02 2186.48 1842.47 2186.48 1849.2C2186.48 1855.92 2190.12 1861.38 2194.6 1861.38Z" fill="#102048"/>
<path d="M2259.74 1851.59C2259.18 1857.8 2255.37 1862.54 2251.23 1862.16C2247.09 1861.79 2244.18 1856.45 2244.74 1850.24C2245.3 1844.02 2249.12 1839.29 2253.26 1839.66C2257.4 1840.04 2260.3 1845.38 2259.74 1851.59Z" fill="#102048"/>
<path d="M2229.57 1921.27C2227.08 1921.27 2224.44 1920.97 2221.75 1920.37C2211.57 1918.09 2203.08 1912.11 2199.05 1904.39C2198.41 1903.16 2198.89 1901.65 2200.11 1901.02C2201.33 1900.38 2202.84 1900.85 2203.48 1902.08C2206.84 1908.51 2214.08 1913.53 2222.84 1915.49C2229.48 1916.98 2235.72 1916.31 2239.11 1913.73C2240.21 1912.9 2241.78 1913.11 2242.61 1914.21C2243.44 1915.31 2243.23 1916.88 2242.13 1917.71C2239.05 1920.05 2234.61 1921.27 2229.57 1921.27Z" fill="#102048"/>
<path d="M2206.87 1819.55C2207.57 1822.49 2198.15 1824.5 2186.86 1825.76C2175.57 1827.03 2166.45 1828.37 2165.97 1824.12C2165.5 1819.88 2174.69 1819.17 2185.98 1817.91C2197.27 1816.65 2205.8 1815.07 2206.87 1819.55Z" fill="#102048"/>
<path d="M2230.82 1818.05C2230.24 1821.01 2238.65 1823.17 2248.72 1824.61C2258.79 1826.04 2266.92 1827.52 2267.29 1823.23C2267.65 1818.95 2259.46 1818.11 2249.39 1816.67C2239.32 1815.24 2231.71 1813.53 2230.82 1818.05Z" fill="#102048"/>
<path opacity="0.4" d="M2178.44 1902.85C2188.64 1893.95 2189.69 1878.48 2180.8 1868.29C2171.91 1858.09 2156.44 1857.04 2146.24 1865.93C2136.05 1874.82 2134.99 1890.29 2143.88 1900.49C2152.77 1910.68 2168.25 1911.74 2178.44 1902.85Z" fill="#FC8879"/>
<path opacity="0.4" d="M2274.61 1913.36C2264.52 1910.36 2257.17 1901.02 2257.17 1889.93C2257.17 1878.83 2264.52 1869.49 2274.61 1866.49C2278.16 1882.53 2278.36 1898.77 2274.61 1913.36Z" fill="#FC8879"/>
<path d="M2046.12 1841.52C2043.43 1848.94 2043.33 1857.35 2047.04 1865.38C2054.84 1882.26 2076.21 1890.92 2094.03 1888.12C2111.97 1885.3 2105.75 1877.75 2109.97 1861.44C2114.2 1845.13 2106.18 1831.28 2090.32 1822.74C2071.87 1812.8 2052.25 1824.56 2046.12 1841.52Z" fill="#F9B384"/>
<path d="M2092.32 1868.79C2090.95 1852.45 2077.52 1839.97 2061.02 1840.19C2057.8 1840.23 2057.8 1845.23 2061.02 1845.18C2074.64 1845 2086.18 1855.12 2087.33 1868.79C2087.59 1871.98 2092.59 1872 2092.32 1868.79Z" fill="#102048"/>
<path d="M1886.12 2578.4L1897.77 2466.76L1892.77 2448.62L1888.62 2433.48L1744.25 2364.82L1799.82 2195.61C1816.31 2145.24 1856.29 2106.06 1906.96 2090.57L2038.54 2050.34L2060.58 2020.95C2064.13 2016.21 2068.52 2012.36 2073.52 2009.46C2082.87 2004.01 2094.21 2003.01 2104.75 2005.51C2144.78 2014.96 2184.01 2021.7 2218.74 2011.76C2235.78 2006.86 2254.67 2011.91 2264.77 2026.5C2265.47 2027.5 2266.12 2028.6 2266.77 2029.65L2287.8 2066.58L2331.68 2086.82C2389.4 2099.96 2433.13 2147.29 2441.62 2205.9L2495.79 2578.4H1886.12Z" fill="#EE6F57"/>
<path d="M2027.7 2390.15C2027.7 2390.15 1984.42 2533.43 1886.12 2578.4L1897.77 2466.76L1892.77 2448.62L2027.7 2390.15Z" fill="#6F3428"/>
<path d="M2195.23 2281.04C2198.59 2286.1 2204.95 2297.48 2200.11 2305.69C2199.3 2307.09 2198.18 2308.36 2196.7 2309.48C2196.7 2309.48 2193.25 2325.77 2179.47 2333.96C2123.08 2367.48 2063.21 2348.23 2063.21 2348.23L2038.29 2272.05L2077.72 2220.1L2119.13 2162.8C2119.13 2162.8 2133.61 2161.48 2135.18 2178.35C2136.75 2195.17 2106.59 2237.94 2106.59 2237.94C2119.82 2231.5 2149.6 2220.32 2169.47 2221.95C2177.58 2222.61 2181.2 2228.87 2183.6 2242.23C2183.77 2243.27 2183.98 2244.35 2184.16 2245.49C2184.16 2245.49 2185.21 2245.98 2186.78 2246.97C2192.17 2250.36 2203.35 2259.35 2197.09 2272.6C2196.18 2274.45 2194.98 2276.39 2193.34 2278.43C2193.34 2278.43 2194.1 2279.4 2195.23 2281.04Z" fill="#F9B384"/>
<path d="M2154.74 2256.37C2164.96 2253.91 2175.17 2251.46 2185.38 2249C2188.51 2248.25 2187.18 2243.43 2184.05 2244.18C2173.84 2246.64 2163.63 2249.09 2153.41 2251.55C2150.29 2252.3 2151.61 2257.12 2154.74 2256.37Z" fill="#E28B6D"/>
<path d="M2162.26 2288.32C2173.3 2286.24 2184.33 2284.16 2195.37 2282.08C2198.52 2281.48 2197.19 2276.66 2194.04 2277.26C2183.01 2279.34 2171.97 2281.42 2160.93 2283.5C2157.78 2284.1 2159.11 2288.92 2162.26 2288.32Z" fill="#E28B6D"/>
<path d="M2171.03 2317C2179.56 2315.94 2188.1 2314.89 2196.63 2313.84C2199.78 2313.45 2199.82 2308.45 2196.63 2308.84C2188.1 2309.89 2179.56 2310.95 2171.03 2312C2167.88 2312.39 2167.84 2317.39 2171.03 2317Z" fill="#E28B6D"/>
<path d="M2074.27 2385.11L2027.7 2390.15C2027.7 2390.15 1909.46 2515.09 1831.15 2511.74C1811.41 2510.94 1794.57 2505.94 1780.38 2498.99C1740.45 2479.46 1722.01 2432.63 1735.85 2390.4L1744.25 2364.82C1811.91 2317.14 1900.61 2283.41 1987.72 2261.87L2024.4 2237.44C2031.09 2232.99 2040.24 2236.09 2042.74 2243.73L2084.56 2369.12C2087.01 2376.51 2082.02 2384.26 2074.27 2385.11Z" fill="#EE6F57"/>
<path d="M2038.29 2054.06C2045.58 2059.67 2052.88 2065.28 2060.18 2070.89C2062.72 2072.85 2065.22 2068.51 2062.7 2066.58C2055.4 2060.97 2048.1 2055.36 2040.81 2049.75C2038.26 2047.79 2035.77 2052.13 2038.29 2054.06Z" fill="#6F3428"/>
<path d="M2255.3 2081.49C2267.48 2082.16 2279.45 2077.34 2287.79 2068.46C2289.99 2066.11 2286.46 2062.57 2284.26 2064.92C2276.75 2072.92 2266.25 2077.1 2255.3 2076.49C2252.09 2076.32 2252.1 2081.32 2255.3 2081.49Z" fill="#6F3428"/>
<path d="M2091.94 2038.93C2085.09 2050.37 2082.07 2063.73 2083.44 2077C2083.77 2080.17 2088.77 2080.2 2088.44 2077C2087.15 2064.54 2089.82 2052.21 2096.25 2041.45C2097.91 2038.69 2093.59 2036.17 2091.94 2038.93Z" fill="#6F3428"/>
<path d="M2116.87 2043C2113.03 2056.37 2112.21 2070.24 2114.26 2083.99C2114.74 2087.16 2119.55 2085.81 2119.08 2082.66C2117.16 2069.83 2118.11 2056.79 2121.69 2044.33C2122.58 2041.23 2117.76 2039.91 2116.87 2043Z" fill="#6F3428"/>
<path d="M2155.86 2046.21C2154.18 2059.26 2154.85 2072.41 2157.74 2085.24C2158.45 2088.38 2163.27 2087.05 2162.56 2083.92C2159.77 2071.51 2159.23 2058.82 2160.86 2046.21C2161.27 2043.03 2156.27 2043.06 2155.86 2046.21Z" fill="#6F3428"/>
<path d="M2195.84 2046.37C2198.64 2059.57 2196.69 2073.34 2190.38 2085.26C2188.88 2088.1 2193.19 2090.63 2194.7 2087.79C2201.66 2074.63 2203.74 2059.6 2200.66 2045.04C2200 2041.9 2195.18 2043.23 2195.84 2046.37Z" fill="#6F3428"/>
<path d="M2234.06 2049.09C2233.75 2061.11 2229.5 2072.74 2221.86 2082.05C2219.84 2084.51 2223.35 2088.07 2225.4 2085.58C2233.91 2075.21 2238.71 2062.51 2239.06 2049.09C2239.14 2045.87 2234.15 2045.87 2234.06 2049.09Z" fill="#6F3428"/>
<path d="M1988.47 2262.63C2000.35 2250.83 2015.34 2242.81 2031.72 2239.38C2034.87 2238.73 2033.54 2233.91 2030.39 2234.57C2013.21 2238.16 1997.39 2246.73 1984.94 2259.09C1982.65 2261.36 1986.18 2264.89 1988.47 2262.63Z" fill="#6F3428"/>
<path d="M2039.41 2244.97C2056.15 2280.06 2068.76 2317 2077.06 2354.98C2077.75 2358.12 2082.57 2356.79 2081.88 2353.65C2073.49 2315.25 2060.65 2277.93 2043.72 2242.45C2042.34 2239.55 2038.03 2242.08 2039.41 2244.97Z" fill="#6F3428"/>
<path d="M2035.97 2391.41C2048.77 2389.07 2061.56 2386.72 2074.36 2384.38C2077.52 2383.8 2076.18 2378.99 2073.04 2379.56C2060.24 2381.91 2047.44 2384.25 2034.64 2386.59C2031.48 2387.17 2032.82 2391.99 2035.97 2391.41Z" fill="#6F3428"/>
<path d="M1998.75 2283.46C2009.04 2279.07 2019.33 2274.67 2029.62 2270.27C2032.57 2269.01 2030.02 2264.71 2027.1 2265.96C2016.81 2270.35 2006.51 2274.75 1996.22 2279.15C1993.27 2280.41 1995.82 2284.72 1998.75 2283.46Z" fill="#6F3428"/>
<path d="M2013.22 2308.05C2020.72 2305 2028.22 2301.95 2035.72 2298.91C2038.66 2297.71 2037.37 2292.88 2034.39 2294.09C2026.89 2297.14 2019.39 2300.18 2011.9 2303.23C2008.95 2304.42 2010.24 2309.26 2013.22 2308.05Z" fill="#6F3428"/>
<path d="M2031.11 2338.24C2038.88 2335.46 2046.65 2332.68 2054.42 2329.9C2057.43 2328.82 2056.13 2323.99 2053.09 2325.08C2045.32 2327.86 2037.55 2330.64 2029.78 2333.42C2026.77 2334.49 2028.07 2339.32 2031.11 2338.24Z" fill="#6F3428"/>
<path d="M2037.84 2363.63C2045.44 2356.36 2054.73 2351.43 2064.99 2349.11C2068.13 2348.41 2066.8 2343.59 2063.67 2344.29C2052.59 2346.79 2042.5 2352.26 2034.31 2360.1C2031.98 2362.33 2035.51 2365.86 2037.84 2363.63Z" fill="#6F3428"/>
<path d="M1840.51 2311.92C1872.42 2294.67 1906.93 2282.64 1942.64 2276.23C1945.8 2275.66 1944.46 2270.84 1941.31 2271.41C1905.19 2277.9 1870.26 2290.16 1837.98 2307.6C1835.15 2309.13 1837.67 2313.45 1840.51 2311.92Z" fill="#6F3428"/>
<path d="M1930.52 2202.79C1927.21 2227.56 1923.79 2252.32 1920.48 2277.09C1920.05 2280.27 1925.05 2280.24 1925.48 2277.09C1928.79 2252.32 1932.21 2227.56 1935.52 2202.79C1935.94 2199.61 1930.94 2199.64 1930.52 2202.79Z" fill="#6F3428"/>
<path d="M2378.57 2247.51C2384.83 2325.55 2391.08 2403.59 2397.34 2481.63C2399.1 2503.62 2400.87 2525.63 2402.63 2547.62C2402.89 2550.81 2407.89 2550.84 2407.63 2547.62C2401.37 2469.59 2395.12 2391.55 2388.86 2313.51C2387.1 2291.51 2385.33 2269.51 2383.57 2247.51C2383.31 2244.33 2378.31 2244.3 2378.57 2247.51Z" fill="#6F3428"/>
<path d="M2382.45 2233.29C2390.43 2214.7 2394.22 2194.66 2393.36 2174.44C2393.22 2171.23 2388.22 2171.22 2388.36 2174.44C2389.18 2193.73 2385.76 2213.01 2378.14 2230.76C2376.88 2233.69 2381.18 2236.24 2382.45 2233.29Z" fill="#6F3428"/>
<path d="M2390.82 2223.57C2395.78 2217.44 2400.74 2211.3 2405.71 2205.16C2407.71 2202.69 2404.2 2199.13 2402.17 2201.63C2397.21 2207.77 2392.25 2213.9 2387.29 2220.04C2385.28 2222.52 2388.8 2226.08 2390.82 2223.57Z" fill="#6F3428"/>
<path d="M2198.63 2503.47C2245.55 2488.45 2285.84 2454.99 2310.02 2412.15C2316.91 2399.93 2322.45 2386.96 2326.51 2373.54C2327.44 2370.46 2322.62 2369.14 2321.69 2372.21C2307.79 2418.15 2275.78 2457.83 2234.45 2482.05C2222.71 2488.94 2210.26 2494.5 2197.3 2498.65C2194.25 2499.63 2195.56 2504.46 2198.63 2503.47Z" fill="#6F3428"/>
<path d="M2202.74 2474.4C2216.19 2460.94 2226.52 2444.8 2233.24 2427.01C2234.38 2424 2229.55 2422.69 2228.42 2425.68C2222.02 2442.65 2212.02 2458.04 2199.21 2470.87C2196.94 2473.15 2200.47 2476.68 2202.74 2474.4Z" fill="#6F3428"/>
<path d="M2085.31 1889.98C2092.07 1906.86 2102.76 1921.83 2116.71 1933.52C2119.16 1935.57 2122.72 1932.05 2120.25 1929.98C2106.99 1918.88 2096.57 1904.72 2090.13 1888.66C2088.95 1885.71 2084.11 1886.99 2085.31 1889.98Z" fill="#E28B6D"/>
<path d="M2425.79 2720.97H1213.03V3491.29H2425.79V2720.97Z" fill="white"/>
<path d="M2425.79 2720.97H1213.03V2854.44H2425.79V2720.97Z" fill="#C6EAE9"/>
<path d="M2428.29 3493.79H1210.53V2718.47H2428.29V3493.79ZM1215.53 3488.79H2423.29V2723.47H1215.53V3488.79Z" fill="#102048"/>
<path d="M2325.91 2821.05C2306.61 2821.05 2290.9 2805.35 2290.9 2786.04C2290.9 2766.73 2306.61 2751.03 2325.91 2751.03C2345.22 2751.03 2360.93 2766.73 2360.93 2786.04C2360.93 2805.35 2345.22 2821.05 2325.91 2821.05ZM2325.91 2756.03C2309.36 2756.03 2295.9 2769.49 2295.9 2786.04C2295.9 2802.59 2309.36 2816.05 2325.91 2816.05C2342.46 2816.05 2355.93 2802.59 2355.93 2786.04C2355.93 2769.49 2342.46 2756.03 2325.91 2756.03Z" fill="#102048"/>
<path d="M1781.18 3124.41H1246.47V3492.55H1781.18V3124.41Z" fill="#1F3C88"/>
<path d="M1474.2 2903.37L1702.02 2908.41C1691.81 2893.4 1682.25 2876.27 1673.49 2855.72C1662.62 2830.09 1653.09 2799.1 1645.71 2760.05L1570.23 2736.48L1486.22 2710.18C1495.08 2777.83 1484.43 2879.53 1474.2 2903.37Z" fill="#F9B384"/>
<path d="M1569.51 2775.42C1569.51 2775.42 1604.33 2826.65 1670.29 2846.94C1659.42 2821.31 1653.09 2799.1 1645.71 2760.05L1570.23 2736.48L1569.51 2775.42Z" fill="#E28B6D"/>
<path d="M1695.08 2715.55C1691.33 2754.28 1662.19 2793.41 1616.37 2792.61C1596.78 2792.21 1572.24 2786.61 1556.3 2774.62L1489.69 2724.25L1465.7 2616.01L1568.29 2521.31L1664.59 2569.73C1664.59 2569.73 1669.59 2647.14 1669.59 2647.19C1669.79 2650.39 1676.34 2656.83 1682.78 2666.73C1688.73 2675.67 1694.53 2687.47 1695.38 2702.16C1695.63 2706.56 1695.53 2711.06 1695.08 2715.55Z" fill="#F9B384"/>
<path d="M1620.11 2649.19C1621.04 2655.54 1623.81 2661.17 1627.89 2666.08C1632.24 2671.31 1637.8 2675.38 1642.22 2680.56C1645.93 2684.91 1650.48 2691.37 1646.35 2696.88C1642.91 2701.48 1636.51 2703.5 1631.22 2704.92C1628.11 2705.75 1629.43 2710.57 1632.54 2709.73C1643.85 2706.7 1657.72 2698.91 1651.33 2685.18C1647.92 2677.83 1641.32 2672.39 1635.58 2666.92C1630.01 2661.63 1626.06 2655.57 1624.92 2647.86C1624.46 2644.69 1619.64 2646.04 1620.11 2649.19Z" fill="#102048"/>
<path d="M1635.41 2724.76C1623.95 2725.99 1612.59 2722.02 1604.65 2713.61C1602.43 2711.27 1598.9 2714.81 1601.11 2717.14C1609.87 2726.41 1622.74 2731.12 1635.42 2729.75C1638.58 2729.41 1638.61 2724.41 1635.41 2724.76Z" fill="#102048"/>
<path d="M1582.6 2654.51C1583.53 2660.27 1587.68 2664.42 1591.87 2663.78C1596.07 2663.14 1598.71 2657.95 1597.78 2652.19C1596.85 2646.43 1592.7 2642.28 1588.51 2642.92C1584.32 2643.57 1581.68 2648.76 1582.6 2654.51Z" fill="#102048"/>
<path d="M1638.62 2651.71C1640.06 2657.18 1644.45 2660.8 1648.43 2659.81C1652.41 2658.82 1654.47 2653.58 1653.04 2648.11C1651.6 2642.64 1647.21 2639.01 1643.23 2640.01C1639.25 2641 1637.19 2646.24 1638.62 2651.71Z" fill="#102048"/>
<path d="M1628.53 2624.51C1628.38 2626.57 1635.09 2628.73 1643.52 2629.35C1651.96 2629.97 1658.31 2630.96 1659.09 2626.75C1660 2621.78 1652.54 2622.52 1644.1 2621.9C1635.66 2621.29 1628.69 2622.45 1628.53 2624.51Z" fill="#102048"/>
<path d="M1600.92 2625.38C1601.41 2627.52 1594.69 2630.82 1585.91 2632.74C1577.13 2634.67 1570.6 2636.67 1569.12 2632.35C1567.37 2627.26 1575.35 2626.91 1584.13 2624.99C1592.91 2623.07 1600.43 2623.24 1600.92 2625.38Z" fill="#102048"/>
<path opacity="0.4" d="M1561.12 2725.13C1575.54 2725.13 1587.22 2713.73 1587.22 2699.67C1587.22 2685.62 1575.54 2674.22 1561.12 2674.22C1546.71 2674.22 1535.02 2685.62 1535.02 2699.67C1535.02 2713.73 1546.71 2725.13 1561.12 2725.13Z" fill="#FC8879"/>
<path opacity="0.4" d="M1695.08 2715.55C1693.08 2715.75 1691.03 2715.65 1688.98 2715.35C1674.74 2713.25 1664.94 2700.31 1667.09 2686.37C1668.49 2677.27 1674.69 2670.08 1682.78 2666.73C1688.73 2675.67 1694.53 2687.47 1695.38 2702.16C1695.63 2706.56 1695.53 2711.06 1695.08 2715.55Z" fill="#FC8879"/>
<path d="M1492.59 2680.07C1486.34 2631.35 1497.26 2600.36 1536.31 2577.21C1635.43 2616.51 1700.03 2603.66 1712.05 2511.41C1678.81 2524.4 1652.14 2526.84 1613.41 2505.05C1609.17 2502.66 1505.69 2437.27 1466.96 2547.41C1466.96 2547.41 1402.81 2576.46 1453.64 2668.45L1492.59 2680.07Z" fill="#102048"/>
<path d="M1735.45 2895.8L1855.06 2940.79C1933.14 2970.15 1976.57 3053.63 1955.78 3134.42L1914.86 3293.49H1181.5L1176.51 3219.78L1200.17 3078.48C1211.84 3008.84 1259.31 2950.49 1325.13 2924.91L1411.98 2891.16L1579.79 2877.26L1735.45 2895.8Z" fill="#1F3C88"/>
<path d="M1428.24 3493.52H1170.88L1058.44 3170.36H1315.8L1428.24 3493.52Z" fill="#D3DFFF"/>
<path opacity="0.6" d="M1323.99 3290.8H1139.27L1112.7 3217.93H1297.42L1323.99 3290.8Z" fill="#708CD5"/>
<path opacity="0.6" d="M1337.32 3331.61H1152.59L1146.02 3313.71H1330.74L1337.32 3331.61Z" fill="#708CD5"/>
<path opacity="0.6" d="M1348.98 3366.59H1164.25L1157.68 3348.69H1342.4L1348.98 3366.59Z" fill="#708CD5"/>
<path opacity="0.3" d="M1360.64 3401.57H1175.91L1169.34 3383.68H1354.06L1360.64 3401.57Z" fill="#708CD5"/>
<path opacity="0.3" d="M1372.3 3436.55H1187.57L1181 3418.66H1365.72L1372.3 3436.55Z" fill="#708CD5"/>
<path opacity="0.3" d="M1383.96 3471.53H1199.24L1192.66 3453.64H1377.38L1383.96 3471.53Z" fill="#708CD5"/>
<path d="M1579.79 2877.21V2877.26L1529.47 2952.82C1486.89 2941.33 1447.56 2921.24 1411.98 2891.16L1482.94 2853.93C1514.07 2871.82 1547.56 2878.91 1579.74 2877.17C1579.79 2877.22 1579.79 2877.21 1579.79 2877.21Z" fill="#D3DFFF"/>
<path d="M1735.45 2895.81C1706.32 2923.89 1669.49 2942.53 1624.91 2951.67L1579.79 2877.27V2877.22L1579.84 2877.17C1612.57 2875.47 1643.95 2864.67 1670.29 2846.93L1735.45 2895.81Z" fill="#D3DFFF"/>
<path d="M1798.67 3086.1C1758.69 3117.33 1684.98 3272.25 1684.98 3272.25C1684.98 3272.25 1446.36 3302.23 1396.39 3352.21L1411.38 3412.17L1669.99 3398.43L1803.67 3350.96L1857.39 3184.8L1798.67 3086.1Z" fill="#102048"/>
<path d="M1376.82 3349.29C1354.75 3346.62 1293.06 3325.35 1279.18 3318.5C1275.99 3316.92 1273.41 3317.15 1271.38 3318.21C1266.26 3320.89 1265.81 3328.1 1269.96 3331.67C1283.35 3343.18 1306.6 3353.42 1330.74 3363.54C1294.96 3364.19 1241.01 3339.44 1234.58 3355.24C1233.07 3358.93 1235.01 3363.09 1238.32 3365.32C1260.46 3380.17 1323.63 3389.64 1323.63 3389.64L1322.57 3394.3C1286.46 3396.58 1224.7 3380.64 1230.8 3398.41C1242.05 3418.49 1319.52 3417.68 1319.52 3417.68L1320.44 3423.41C1292.86 3424.28 1263.15 3422.33 1263.53 3434.89C1263.84 3444.82 1335.57 3450.05 1335.57 3450.05C1384.96 3476.03 1431.72 3454.44 1431.72 3454.44L1453.54 3383.17L1415.94 3335.57L1376.38 3283C1376.38 3283 1362.89 3282.05 1361.72 3297.75C1360.55 3313.44 1376.82 3349.29 1376.82 3349.29Z" fill="#F9B384"/>
<path d="M1914.86 3293.49L1874.94 3405.45C1856.82 3456.27 1807.6 3495.57 1753.69 3493.38C1635.12 3494.15 1521.6 3483.27 1429.7 3454.24C1435.42 3432.31 1440.17 3407.68 1436.99 3360.95C1525.07 3334.72 1616.27 3320.52 1714.97 3313.48L1807.83 3046.12L1914.86 3293.49Z" fill="#1F3C88"/>
<path d="M1624.91 2951.67L1620.3 2950.16C1600.53 2943.65 1586.23 2926.39 1583.52 2905.75L1579.79 2877.26L1624.91 2951.67Z" fill="#102048"/>
<path d="M1579.79 2877.26L1572.43 2914.95C1569.77 2928.6 1560.44 2940.01 1547.59 2945.32L1529.47 2952.82L1579.79 2877.26Z" fill="#102048"/>
<path d="M1432.46 2684.22C1430.34 2702.08 1448.01 2733.9 1489.42 2724.45C1507.82 2720.25 1500.41 2713.65 1502.87 2697.89C1505.32 2682.12 1495.28 2669.72 1477.69 2663.01C1458.21 2655.58 1434.33 2668.38 1432.46 2684.22Z" fill="#F9B384"/>
<path d="M1447.45 2689.39C1459.97 2683.4 1475.17 2689.15 1480.37 2702.06C1481.56 2705.01 1486.39 2703.72 1485.19 2700.73C1478.72 2684.7 1460.58 2677.59 1444.93 2685.08C1442.03 2686.46 1444.56 2690.77 1447.45 2689.39Z" fill="#102048"/>
<path d="M1485.57 2727.09C1499.82 2743.12 1515.95 2757.36 1533.59 2769.57C1536.24 2771.41 1538.74 2767.08 1536.11 2765.26C1518.83 2753.28 1503.07 2739.27 1489.1 2723.56C1486.96 2721.15 1483.43 2724.69 1485.57 2727.09Z" fill="#E28B6D"/>
<path d="M1428.21 3458.31C1483.59 3475.94 1541.01 3486.41 1598.91 3491.06C1615.48 3492.39 1632.09 3493.24 1648.71 3493.7C1651.92 3493.79 1651.92 3488.79 1648.71 3488.7C1590.89 3487.1 1533.18 3480.48 1476.92 3466.79C1460.98 3462.91 1445.17 3458.47 1429.53 3453.49C1426.46 3452.51 1425.15 3457.34 1428.21 3458.31Z" fill="#102048"/>
<path d="M1454.03 3436.66C1462.35 3439.43 1470.68 3442.21 1479.01 3444.99C1482.07 3446 1483.38 3441.18 1480.34 3440.17C1472.01 3437.39 1463.68 3434.61 1455.35 3431.84C1452.3 3430.82 1450.98 3435.64 1454.03 3436.66Z" fill="#102048"/>
<path d="M1459.7 3400.33C1466.37 3399.86 1473.04 3399.39 1479.71 3398.92C1482.9 3398.69 1482.92 3393.69 1479.71 3393.92C1473.04 3394.39 1466.37 3394.86 1459.7 3395.33C1456.51 3395.56 1456.49 3400.56 1459.7 3400.33Z" fill="#102048"/>
<path d="M1467.99 3369.44C1478.54 3369 1489.1 3368.57 1499.65 3368.13C1502.86 3368 1502.87 3363 1499.65 3363.13C1489.1 3363.57 1478.54 3364.01 1467.99 3364.44C1464.78 3364.57 1464.77 3369.57 1467.99 3369.44Z" fill="#102048"/>
<path d="M1799.8 3066.61C1811.58 3036.16 1828.32 3007.71 1849.21 2982.62C1851.26 2980.17 1847.74 2976.62 1845.68 2979.09C1824.2 3004.88 1807.09 3033.97 1794.99 3065.28C1793.82 3068.28 1798.65 3069.58 1799.8 3066.61Z" fill="#102048"/>
<path d="M1267.13 3004.43C1296.98 3019.16 1321.6 3043.17 1337.03 3072.66C1338.52 3075.51 1342.84 3072.99 1341.35 3070.14C1325.56 3039.97 1300.19 3015.18 1269.65 3000.12C1266.78 2998.7 1264.24 3003.01 1267.13 3004.43Z" fill="#102048"/>
<path d="M1346.56 3111C1349.25 3140.43 1351.95 3169.87 1354.65 3199.31C1354.94 3202.48 1359.94 3202.51 1359.65 3199.31C1356.95 3169.87 1354.25 3140.43 1351.55 3111C1351.26 3107.82 1346.26 3107.79 1346.56 3111Z" fill="#102048"/>
<path d="M3880.39 2435.95H2579.75V3251.41H3880.39V2435.95Z" fill="white"/>
<path d="M3880.39 2435.95H2579.75V2586.37H3880.39V2435.95Z" fill="#C6EAE9"/>
<path d="M3882.89 3253.91H2577.25V2433.46H3882.89V3253.91ZM2582.24 3248.91H3877.89V2438.45H2582.24V3248.91Z" fill="#102048"/>
<path d="M3767.79 2548C3747.48 2548 3730.95 2531.48 3730.95 2511.16C3730.95 2490.85 3747.48 2474.33 3767.79 2474.33C3788.1 2474.33 3804.62 2490.85 3804.62 2511.16C3804.62 2531.48 3788.1 2548 3767.79 2548ZM3767.79 2479.33C3750.23 2479.33 3735.95 2493.61 3735.95 2511.16C3735.95 2528.72 3750.23 2543 3767.79 2543C3785.34 2543 3799.63 2528.72 3799.63 2511.16C3799.63 2493.61 3785.34 2479.33 3767.79 2479.33Z" fill="#102048"/>
<path d="M3484.59 2742.98L3480.92 2739.59C3532.41 2683.85 3552.64 2640.41 3542.79 2606.78C3536.3 2584.64 3516.31 2566.31 3481.68 2550.73C3450.67 2536.79 3412.22 2526.77 3375.04 2517.09C3366.23 2514.8 3357.13 2512.43 3348.43 2510.08L3349.73 2505.25C3358.41 2507.6 3367.5 2509.96 3376.29 2512.25C3452.94 2532.21 3532.19 2552.85 3547.58 2605.37C3557.97 2640.83 3537.37 2685.84 3484.59 2742.98Z" fill="#102048"/>
<path d="M3023.28 2669.14C3010.12 2643.56 3008.07 2617.34 3017.19 2591.2C3024.75 2569.53 3044.6 2536.05 3096.25 2499.56C3127.01 2477.84 3154.96 2465.12 3155.24 2464.99L3157.29 2469.55C3156.2 2470.04 3047.33 2519.96 3021.91 2592.85C3013.26 2617.65 3015.22 2642.54 3027.72 2666.85L3023.28 2669.14Z" fill="#102048"/>
<path d="M3073.81 2685.49C3008.01 2630.52 3047.16 2542.23 3162.93 2460.61C3076.31 2375.65 3132.94 2269.67 3274.12 2277.79C3391.14 2284.87 3475.26 2377.11 3370.94 2505.17C3518.38 2558.1 3570.21 2709.64 3476.09 2735.46L3073.81 2685.49Z" fill="#102048"/>
<path d="M3439.73 3097.99C3436.13 3135.02 3423.34 3207.73 3416.52 3254.53H3034.17C3021.06 3174.05 2997.22 3037.78 2988.42 2944.48C2983.33 2890.31 2981.53 2835.64 2986.37 2784.61L3441.93 2791.26C3445.03 2829.54 3446.77 2866.17 3447.47 2901.35C3448.82 2972.66 3445.62 3037.88 3439.73 3097.99Z" fill="#708CD5"/>
<path d="M3435.28 3134.41C3365.32 3060.28 3385.31 2851.23 3385.31 2851.23L3447.47 2901.35C3448.82 2972.66 3444.44 3076.94 3435.28 3134.41Z" fill="#1F3C88"/>
<path d="M3728.26 2877.56L3728.1 2878.92L3701.14 3089.81C3690.3 3125.17 3676.32 3154.28 3658.18 3175.27C3658 3175.53 3657.77 3175.8 3657.54 3176.06C3625.73 3212.46 3575.48 3216.67 3537.75 3195.48C3518.68 3184.82 3502.83 3167.68 3494.15 3144.88L3423.51 2959.61L3477.95 2879.76L3575.2 2892.87L3589.1 2942.24L3647.84 2848.13L3652.26 2841.07L3728.26 2877.56Z" fill="#F9B384"/>
<path d="M3660.44 2782.28C3670.64 2760.67 3690.77 2679.02 3692.49 2662.46C3692.88 2658.66 3694.57 2656.45 3696.7 2655.21C3702.06 2652.08 3708.88 2655.8 3709.75 2661.61C3712.56 2680.38 3708.56 2707.4 3703.94 2735.16C3725.02 2702.98 3733.4 2639.74 3751.45 2642.93C3755.67 2643.68 3758.35 2647.82 3758.48 2652.1C3759.31 2680.75 3731.76 2743.63 3731.76 2743.63L3736.6 2745.34C3759.35 2713.79 3780.22 2648.49 3792.88 2664.21C3804.71 2685.94 3759.61 2755.95 3759.61 2755.95L3764.3 2760.07C3780.88 2735.48 3796.12 2707.33 3807.33 2714.87C3816.19 2720.84 3779.88 2789.08 3779.88 2789.08C3775.23 2848.89 3728.81 2879.06 3728.81 2879.06L3651.49 2858.1L3629.71 2796.64L3604.54 2730.55C3604.54 2730.55 3611.4 2717.74 3626.35 2725.66C3641.3 2733.59 3660.44 2782.28 3660.44 2782.28Z" fill="#F9B384"/>
<path d="M3592.41 2937.49C3569.31 2969.4 3553.69 3006.48 3547.01 3045.3C3546.46 3048.45 3551.28 3049.8 3551.82 3046.63C3558.45 3008.17 3573.84 2971.62 3596.73 2940.01C3598.62 2937.41 3594.28 2934.91 3592.41 2937.49Z" fill="#E28B6D"/>
<path d="M3668.07 2789.69C3686.57 2794.28 3701.14 2810.85 3702.95 2829.9C3703.25 2833.08 3708.25 2833.11 3707.95 2829.9C3705.93 2808.66 3690.19 2790.03 3669.4 2784.87C3666.28 2784.1 3664.95 2788.92 3668.07 2789.69Z" fill="#E28B6D"/>
<path d="M3704.45 2739.87C3726.75 2740.05 3748.47 2748.59 3764.87 2763.71C3767.23 2765.89 3770.77 2762.36 3768.4 2760.18C3751.03 2744.16 3728.09 2735.06 3704.45 2734.87C3701.24 2734.84 3701.23 2739.84 3704.45 2739.87Z" fill="#E28B6D"/>
<path opacity="0.4" d="M3658.29 3175.27C3658.1 3175.53 3657.87 3175.8 3657.64 3176.06C3625.83 3212.46 3575.58 3216.67 3537.86 3195.48C3544.85 3171.95 3569.04 3153.61 3598.95 3151.55C3623.38 3149.87 3645.48 3159.47 3658.29 3175.27Z" fill="#FC8879"/>
<path d="M3575.2 2892.86L3423.64 2959.52L3385.31 2851.23L3017.16 2847.88L2989.27 2943.18L2988.87 2944.53L2965.14 2941.98L2832.26 2927.84L2855.09 2851.78C2915.56 2686.32 2974.98 2662.93 3084.37 2638.64L3102.71 2634.55L3192.06 2614.71L3285.36 2616.36L3381.16 2646.94L3406.95 2655.19C3480.51 2678.67 3536.62 2738.54 3555.36 2813.45L3575.2 2892.86Z" fill="#708CD5"/>
<path d="M2988.42 2944.48L2965.14 2941.98C2963.09 2901.25 2969.98 2849.03 2986.37 2784.61C2981.53 2835.64 2983.33 2890.31 2988.42 2944.48Z" fill="#1F3C88"/>
<path d="M3381.16 2646.94C3334.58 2723.35 3234.26 2767.52 3177.37 2762.58C3098.92 2755.75 3094.76 2685.02 3102.71 2634.55L3192.06 2614.71L3285.36 2616.36L3381.16 2646.94Z" fill="#F9B384"/>
<path d="M3336.98 2676.32L3126.3 2686.32C3135.44 2673.23 3143.94 2658.33 3151.63 2640.54C3161.18 2618.36 3169.37 2591.62 3175.42 2558.04L3244.78 2536L3321.99 2511.41C3315.15 2569.48 3327.04 2656.18 3336.98 2676.32Z" fill="#F9B384"/>
<path d="M3246.23 2569.28C3246.23 2569.28 3212.25 2621.55 3151.63 2640.54C3161.18 2618.36 3169.37 2591.62 3175.42 2558.04L3244.78 2536L3246.23 2569.28Z" fill="#E28B6D"/>
<path d="M3136.28 2684.65C3135.93 2684.65 3135.58 2684.58 3135.24 2684.43C3133.99 2683.86 3133.43 2682.38 3134 2681.12C3149.29 2647.49 3162.02 2608.11 3169.85 2570.25C3170.13 2568.9 3171.45 2568.04 3172.8 2568.31C3174.15 2568.59 3175.02 2569.91 3174.75 2571.26C3166.84 2609.48 3153.99 2649.23 3138.55 2683.19C3138.13 2684.11 3137.22 2684.65 3136.28 2684.65Z" fill="#E28B6D"/>
<path d="M3360.32 2427.31L3321.99 2528.05L3246.23 2569.28C3197.51 2586.37 3170.72 2578.38 3154.88 2567.13C3147.39 2561.79 3141.09 2555.04 3137.19 2547.19C3129.35 2531.35 3127.15 2515.36 3129.65 2499.82C3132.09 2484.13 3139.34 2468.89 3150.38 2454.89C3156.03 2447.55 3162.78 2440.55 3170.42 2433.96L3157.93 2375.64L3181.27 2337.36L3277.87 2321.52L3360.32 2427.31Z" fill="#F9B384"/>
<path d="M3349.49 2474.77C3297.52 2450.08 3260.38 2408.97 3257.88 2349.84C3215.55 2344.19 3184.52 2363.14 3161.26 2398.97L3150.44 2409.59L3147.94 2362.12L3179.79 2320.27L3290.98 2303.4L3370.94 2395.23L3382.18 2463.94L3349.49 2474.77Z" fill="#102048"/>
<path d="M3381.56 2497.67C3380.93 2515.16 3359.7 2543.27 3322.22 2528.28C3305.56 2521.62 3313.47 2516.32 3313.47 2500.79C3313.47 2485.27 3324.71 2474.76 3342.2 2470.81C3361.57 2466.44 3382.11 2482.16 3381.56 2497.67Z" fill="#F9B384"/>
<path d="M3335.64 2514.22C3334.52 2514.22 3333.51 2513.47 3333.22 2512.33C3331.45 2505.24 3333.74 2498.17 3339.35 2493.41C3346.19 2487.62 3356.15 2486.72 3366 2491.01C3367.27 2491.56 3367.85 2493.03 3367.3 2494.29C3366.75 2495.56 3365.27 2496.14 3364.01 2495.59C3355.95 2492.08 3347.93 2492.69 3342.58 2497.22C3338.46 2500.72 3336.77 2505.91 3338.07 2511.12C3338.41 2512.46 3337.59 2513.81 3336.25 2514.15C3336.05 2514.2 3335.85 2514.22 3335.64 2514.22Z" fill="#102048"/>
<path d="M3203.73 2438C3204.87 2446.09 3195.19 2450.08 3189.28 2452.63C3183.55 2455.1 3177.47 2458.12 3174.55 2463.98C3168.3 2476.54 3178.81 2488.72 3189.74 2493.65C3192.65 2494.96 3195.19 2490.65 3192.26 2489.33C3186.56 2486.76 3180.83 2482.82 3178.69 2476.64C3176.34 2469.83 3179.12 2463.81 3185.12 2460.2C3190.59 2456.91 3196.98 2455.43 3202.07 2451.44C3206.69 2447.83 3209.38 2442.56 3208.55 2436.67C3208.1 2433.5 3203.28 2434.85 3203.73 2438Z" fill="#102048"/>
<path d="M3184.76 2514.22C3196.91 2517.45 3209.68 2514.61 3219.46 2506.78C3221.98 2504.77 3218.42 2501.25 3215.93 2503.25C3207.58 2509.93 3196.39 2512.14 3186.09 2509.4C3182.98 2508.57 3181.65 2513.39 3184.76 2514.22Z" fill="#102048"/>
<path d="M3244.97 2447.68C3243.26 2453.09 3238.76 2456.49 3234.92 2455.28C3231.08 2454.06 3229.35 2448.69 3231.07 2443.28C3232.78 2437.87 3237.28 2434.47 3241.12 2435.68C3244.96 2436.9 3246.68 2442.27 3244.97 2447.68Z" fill="#102048"/>
<path d="M3192.8 2437C3190.65 2442.05 3186 2444.92 3182.41 2443.4C3178.82 2441.87 3177.65 2436.54 3179.8 2431.48C3181.95 2426.42 3186.6 2423.55 3190.19 2425.08C3193.78 2426.6 3194.95 2431.94 3192.8 2437Z" fill="#102048"/>
<path d="M3200.45 2411.02C3200.49 2413.09 3195.42 2414.87 3189.12 2415C3182.82 2415.14 3178.06 2415.76 3177.63 2411.49C3177.14 2406.46 3182.66 2407.64 3188.96 2407.51C3195.26 2407.37 3200.4 2408.95 3200.45 2411.02Z" fill="#102048"/>
<path d="M3233.57 2416.76C3232.45 2418.99 3236.71 2422.63 3243.08 2424.9C3249.46 2427.17 3254 2429.45 3256.65 2424.98C3259.78 2419.7 3253.51 2419.11 3247.14 2416.84C3240.77 2414.57 3234.69 2414.54 3233.57 2416.76Z" fill="#102048"/>
<path opacity="0.4" d="M3284.35 2494.6C3287.49 2481.29 3279.25 2467.94 3265.93 2464.8C3252.61 2461.65 3239.26 2469.9 3236.12 2483.21C3232.98 2496.53 3241.22 2509.88 3254.54 2513.02C3267.86 2516.17 3281.2 2507.92 3284.35 2494.6Z" fill="#FC8879"/>
<path opacity="0.4" d="M3164.18 2477.08C3164.18 2490.72 3153.08 2501.82 3139.39 2501.82C3135.94 2501.82 3132.64 2501.12 3129.65 2499.82C3132.1 2484.13 3139.34 2468.89 3150.39 2454.89C3158.58 2458.89 3164.18 2467.34 3164.18 2477.08Z" fill="#FC8879"/>
<path d="M3098.31 2779.95C3111.7 2799.1 3133.25 2810.35 3155.93 2814.37C3182.43 2819.05 3209.14 2813.76 3234.15 2804.7C3249.88 2799 3265.07 2791.93 3280.22 2784.85C3283.13 2783.49 3280.6 2779.18 3277.7 2780.53C3232.83 2801.52 3179.53 2825.05 3130.95 2801.16C3119.73 2795.64 3109.81 2787.71 3102.62 2777.43C3100.79 2774.81 3096.46 2777.31 3098.31 2779.95Z" fill="#1F3C88"/>
<path d="M3471.13 2700.73C3433.14 2708.63 3400.67 2736.33 3386.52 2772.39C3385.35 2775.38 3390.18 2776.68 3391.34 2773.72C3404.86 2739.26 3436.28 2713.07 3472.46 2705.55C3475.6 2704.9 3474.27 2700.08 3471.13 2700.73Z" fill="#1F3C88"/>
<path d="M3474.09 2710.18C3455.81 2718.56 3440.45 2732.49 3430.23 2749.79C3428.59 2752.57 3432.91 2755.09 3434.55 2752.32C3444.37 2735.69 3459.06 2722.54 3476.61 2714.5C3479.53 2713.16 3476.99 2708.85 3474.09 2710.18Z" fill="#1F3C88"/>
<path d="M3557.94 2882.48C3536.95 2886.28 3516.73 2893.55 3498.09 2903.93C3495.28 2905.5 3497.8 2909.81 3500.61 2908.25C3518.89 2898.06 3538.68 2891.02 3559.27 2887.3C3562.43 2886.73 3561.09 2881.92 3557.94 2882.48Z" fill="#1F3C88"/>
<path d="M2850.84 2913.89C2873.36 2917.04 2895.87 2920.18 2918.38 2923.32C2921.53 2923.76 2922.89 2918.95 2919.71 2918.5C2897.2 2915.36 2874.68 2912.22 2852.17 2909.08C2849.03 2908.64 2847.67 2913.45 2850.84 2913.89Z" fill="#1F3C88"/>
<path d="M3113.44 3031.49C3142.27 3088.8 3197.22 3130.41 3260.31 3142.26C3278.99 3145.77 3298.07 3146.76 3317 3145.11C3320.18 3144.84 3320.21 3139.84 3317 3140.12C3252.67 3145.7 3188.59 3120 3146.15 3071.33C3134.93 3058.47 3125.42 3044.21 3117.75 3028.97C3116.31 3026.09 3112 3028.62 3113.44 3031.49Z" fill="#1F3C88"/>
<path d="M3248.05 3082.07C3263.37 3101.4 3282.56 3117.45 3304.26 3129.17C3307.09 3130.7 3309.61 3126.39 3306.78 3124.86C3285.42 3113.32 3266.67 3097.56 3251.58 3078.54C3249.58 3076.02 3246.07 3079.57 3248.05 3082.07Z" fill="#1F3C88"/>
<path d="M3065.99 2714.05C3069.23 2729.2 3074.02 2745.53 3083.31 2758.17C3085.2 2760.73 3089.54 2758.24 3087.63 2755.64C3078.56 2743.31 3073.97 2727.51 3070.81 2712.72C3070.13 2709.58 3065.31 2710.91 3065.99 2714.05Z" fill="#1F3C88"/>
<path d="M3381.56 3254.11L3164.83 3256.01L2939.95 3254.11C2898.17 3251.96 2863.99 3241.22 2840 3222.33C2811.77 3200.19 2797.48 3166.71 2801.17 3122.48C2801.57 3117.73 2802.17 3112.89 2802.97 3107.89L2832.26 2927.84L2988.87 2944.53L2953.89 3112.74C3072.98 3146.07 3132.94 3163.56 3165.83 3181.05H3295.36L3381.56 3254.11Z" fill="#F9B384"/>
<path d="M2989.27 2943.18L2977.18 3000.75C2970.33 2984.81 2966.28 2965.27 2965.14 2941.98L2988.87 2944.53L2989.27 2943.18Z" fill="#E28B6D"/>
<path opacity="0.4" d="M2863.39 3179.15C2863.39 3196.44 2854.35 3211.88 2840 3222.33C2811.77 3200.19 2797.48 3166.71 2801.17 3122.48C2835.96 3124.58 2863.39 3149.12 2863.39 3179.15Z" fill="#FC8879"/>
<path d="M3136.99 3202.02C3146.58 3196.24 3156.17 3190.47 3165.76 3184.69C3168.52 3183.03 3166.01 3178.71 3163.24 3180.37C3153.65 3186.15 3144.06 3191.93 3134.46 3197.7C3131.71 3199.36 3134.22 3203.68 3136.99 3202.02Z" fill="#E28B6D"/>
<path d="M3332.94 3249.66C3317.97 3237.19 3302.99 3224.71 3288.02 3212.23C3285.57 3210.19 3282.02 3213.7 3284.49 3215.77C3299.46 3228.24 3314.43 3240.72 3329.4 3253.19C3331.86 3255.24 3335.41 3251.72 3332.94 3249.66Z" fill="#E28B6D"/>
<path d="M3257.96 3235.29C3266.85 3241.67 3275.73 3248.05 3284.62 3254.44C3287.24 3256.31 3289.73 3251.98 3287.14 3250.12C3278.26 3243.74 3269.37 3237.35 3260.49 3230.97C3257.87 3229.09 3255.37 3233.43 3257.96 3235.29Z" fill="#E28B6D"/>
<path d="M3277.46 2562.29C3294.28 2554.75 3309.48 2544.08 3322.73 2531.3C3325.05 2529.06 3321.52 2525.53 3319.2 2527.76C3306.23 2540.27 3291.39 2550.6 3274.94 2557.98C3272.01 2559.29 3274.55 2563.6 3277.46 2562.29Z" fill="#E28B6D"/>
<path d="M3592.7 2433.96H3587.7V2422.58H3592.7V2433.96ZM3592.7 2393.25H3587.7V2363.93H3592.7V2393.25ZM3592.7 2334.6H3587.7V2305.28H3592.7V2334.6ZM3592.7 2275.95H3587.7V2246.63H3592.7V2275.95ZM3592.7 2217.3H3587.7V2187.98H3592.7V2217.3ZM3592.7 2158.66H3587.7V2129.33H3592.7V2158.66ZM3561.08 2131.62H3531.76V2126.62H3561.08V2131.62ZM3502.43 2131.62H3473.11V2126.62H3502.43V2131.62ZM3443.79 2131.62H3414.46V2126.62H3443.79V2131.62ZM3385.14 2131.62H3355.81V2126.62H3385.14V2131.62ZM3326.49 2131.62H3297.16V2126.62H3326.49V2131.62ZM3267.84 2131.62H3238.51V2126.62H3267.84V2131.62ZM3209.19 2131.62H3179.86V2126.62H3209.19V2131.62ZM3150.54 2131.62H3121.22V2126.62H3150.54V2131.62ZM3091.89 2131.62H3062.57V2126.62H3091.89V2131.62ZM3033.24 2131.62H3003.92V2126.62H3033.24V2131.62ZM2974.59 2131.62H2945.27V2126.62H2974.59V2131.62ZM2915.95 2131.62H2886.62V2126.62H2915.95V2131.62ZM2857.3 2131.62H2827.97V2126.62H2857.3V2131.62ZM2798.65 2131.62H2769.32V2126.62H2798.65V2131.62ZM2740 2131.62H2710.67V2126.62H2740V2131.62Z" fill="#102048"/>
<path d="M3711.8 1718.51H3042.16V2181.59H3711.8V1718.51Z" fill="#D3DFFF"/>
<path d="M3193.33 1912.45H3140.86V2120.38H3193.33V1912.45Z" fill="#708CD5"/>
<path d="M3298.27 1979.61H3245.8V2120.38H3298.27V1979.61Z" fill="#708CD5"/>
<path d="M3403.21 1938.11H3350.74V2120.38H3403.21V1938.11Z" fill="#708CD5"/>
<path d="M3508.16 1856.24H3455.69V2120.38H3508.16V1856.24Z" fill="#708CD5"/>
<path d="M3613.1 1792.07H3560.63V2120.38H3613.1V1792.07Z" fill="#708CD5"/>
<path d="M1211.49 2933.68H1182.17V2928.69H1211.49V2933.68ZM1152.84 2933.68H1123.52V2928.69H1152.84V2933.68ZM1106.55 2921.33H1101.55V2892H1106.55V2921.33ZM1106.55 2862.68H1101.55V2833.36H1106.55V2862.68ZM1106.55 2804.03H1101.55V2774.71H1106.55V2804.03ZM1106.55 2745.38H1101.55V2716.06H1106.55V2745.38ZM1106.55 2686.73H1101.55V2657.41H1106.55V2686.73ZM1106.55 2628.09H1101.55V2598.76H1106.55V2628.09ZM1106.55 2569.44H1101.55V2540.11H1106.55V2569.44ZM1106.55 2510.79H1101.55V2481.46H1106.55V2510.79ZM1106.55 2452.14H1101.55V2422.81H1106.55V2452.14ZM1106.55 2393.49H1101.55V2364.17H1106.55V2393.49ZM1106.55 2334.84H1101.55V2305.52H1106.55V2334.84ZM1106.55 2276.19H1101.55V2246.87H1106.55V2276.19ZM1106.55 2217.54H1101.55V2188.22H1106.55V2217.54ZM1106.55 2158.9H1101.55V2129.57H1106.55V2158.9ZM1546.31 2124.13H1535.97V2119.13H1546.31V2124.13ZM1506.64 2124.13H1477.32V2119.13H1506.64V2124.13ZM1448 2124.13H1418.67V2119.13H1448V2124.13ZM1389.35 2124.13H1360.02V2119.13H1389.35V2124.13ZM1330.7 2124.13H1301.37V2119.13H1330.7V2124.13ZM1272.05 2124.13H1242.72V2119.13H1272.05V2124.13ZM1213.4 2124.13H1184.08V2119.13H1213.4V2124.13ZM1154.75 2124.13H1125.43V2119.13H1154.75V2124.13Z" fill="#102048"/>
<path d="M1356.93 1718.51H894.825V2314.56H1356.93V1718.51Z" fill="#708CD5"/>
<path d="M1021.07 1852.86H949.86V1924.07H1021.07V1852.86Z" fill="#EDF2FF"/>
<path d="M1196.84 1852.86H1068.13V1879.69H1196.84V1852.86Z" fill="#D3DFFF"/>
<path d="M1304.39 1896.95H1068.13V1923.77H1304.39V1896.95Z" fill="#EDF2FF"/>
<path d="M979.232 1912.52L965.181 1889.25L969.313 1886.75L979.208 1903.14L1003.9 1861.78L1008.05 1864.25L979.232 1912.52Z" fill="#102048"/>
<path d="M1021.07 1989.45H949.86V2060.66H1021.07V1989.45Z" fill="#EDF2FF"/>
<path d="M1304.39 1989.45H1068.13V2016.28H1304.39V1989.45Z" fill="#D3DFFF"/>
<path d="M1222.83 2033.54H1068.13V2060.37H1222.83V2033.54Z" fill="#EDF2FF"/>
<path d="M1021.07 2126.04H949.86V2197.25H1021.07V2126.04Z" fill="#EDF2FF"/>
<path d="M1289.47 2126.04H1068.13V2152.87H1289.47V2126.04Z" fill="#D3DFFF"/>
<path d="M1196.13 2170.13H1068.13V2196.96H1196.13V2170.13Z" fill="#EDF2FF"/>
<path d="M982.25 2050.73L968.2 2027.46L972.332 2024.97L982.228 2041.35L1006.92 1999.99L1011.07 2002.47L982.25 2050.73Z" fill="#102048"/>
<path d="M981.626 2188.16L967.576 2164.89L971.707 2162.39L981.603 2178.78L1006.3 2137.42L1010.44 2139.89L981.626 2188.16Z" fill="#102048"/>
<path d="M1177.2 2627.38H1029.92C1021.28 2627.38 1014.27 2620.37 1014.27 2611.73V2525.61C1014.27 2516.97 1021.28 2509.97 1029.92 2509.97H1177.2C1185.84 2509.97 1192.85 2516.98 1192.85 2525.61V2611.73C1192.85 2620.37 1185.84 2627.38 1177.2 2627.38Z" fill="white"/>
<path d="M1177.2 2629.88H1029.92C1019.91 2629.88 1011.77 2621.74 1011.77 2611.73V2525.62C1011.77 2515.61 1019.91 2507.47 1029.92 2507.47H1177.2C1187.21 2507.47 1195.35 2515.61 1195.35 2525.62V2611.73C1195.35 2621.74 1187.21 2629.88 1177.2 2629.88ZM1029.92 2512.47C1022.67 2512.47 1016.77 2518.37 1016.77 2525.62V2611.73C1016.77 2618.98 1022.67 2624.88 1029.92 2624.88H1177.2C1184.45 2624.88 1190.35 2618.98 1190.35 2611.73V2525.62C1190.35 2518.37 1184.45 2512.47 1177.2 2512.47H1029.92Z" fill="#102048"/>
<path d="M1103.57 2581.54C1100.33 2581.54 1097.09 2580.41 1094.33 2578.16L1017.3 2517.06L1020.02 2513.62L1097.08 2574.74C1101.03 2577.96 1106.09 2577.96 1110.02 2574.76L1187.36 2513.3L1190.09 2516.74L1112.77 2578.18C1110.02 2580.41 1106.8 2581.54 1103.57 2581.54Z" fill="#102048"/>
<path d="M2682.99 2988.54H2088.96V3387.61H2682.99V2988.54Z" fill="#F5C7BE"/>
<path opacity="0.2" d="M2292.57 3037.8H2150.98V3157.73H2292.57V3037.8Z" fill="#6F3428"/>
<path opacity="0.2" d="M2616.85 3037.8H2355.87V3157.73H2616.85V3037.8Z" fill="#6F3428"/>
<path opacity="0.2" d="M2616.37 3191.04H2150.98V3226.03H2616.37V3191.04Z" fill="#6F3428"/>
<path opacity="0.15" d="M2450.83 3244.35H2150.98V3279.33H2450.83V3244.35Z" fill="#6F3428"/>
<path opacity="0.15" d="M2397.53 3297.65H2150.98V3332.64H2397.53V3297.65Z" fill="#6F3428"/>
<path d="M3060.48 3493.29H3043.36V3488.29H3055.49V3476.1H3060.48V3493.29ZM3014.03 3493.29H2984.71V3488.29H3014.03V3493.29ZM2955.38 3493.29H2926.06V3488.29H2955.38V3493.29ZM2896.73 3493.29H2867.41V3488.29H2896.73V3493.29ZM2838.08 3493.29H2808.76V3488.29H2838.08V3493.29ZM2779.43 3493.29H2750.11V3488.29H2779.43V3493.29ZM2720.79 3493.29H2691.46V3488.29H2720.79V3493.29ZM2662.14 3493.29H2632.81V3488.29H2662.14V3493.29ZM2603.49 3493.29H2574.16V3488.29H2603.49V3493.29ZM2544.84 3493.29H2515.52V3488.29H2544.84V3493.29ZM2486.19 3493.29H2456.87V3488.29H2486.19V3493.29ZM2427.54 3493.29H2425.79V3488.29H2427.54V3493.29ZM3060.48 3446.77H3055.49V3417.45H3060.48V3446.77ZM3060.48 3388.13H3055.49V3369.06H3070.74V3374.06H3060.48V3388.13ZM3715.13 3374.06H3686.56V3369.06H3710.13V3368.31H3715.13V3374.06ZM3657.23 3374.06H3627.91V3369.06H3657.23V3374.06ZM3598.58 3374.06H3569.26V3369.06H3598.58V3374.06ZM3539.93 3374.06H3510.61V3369.06H3539.93V3374.06ZM3481.28 3374.06H3451.96V3369.06H3481.28V3374.06ZM3422.64 3374.06H3393.31V3369.06H3422.64V3374.06ZM3363.99 3374.06H3334.66V3369.06H3363.99V3374.06ZM3305.34 3374.06H3276.01V3369.06H3305.34V3374.06ZM3246.69 3374.06H3217.37V3369.06H3246.69V3374.06ZM3188.04 3374.06H3158.72V3369.06H3188.04V3374.06ZM3129.39 3374.06H3100.07V3369.06H3129.39V3374.06ZM3715.13 3338.99H3710.13V3309.66H3715.13V3338.99ZM3715.13 3280.34H3710.13V3251.01H3715.13V3280.34Z" fill="#102048"/>
<path d="M3058.04 3397.12C3071.77 3397.12 3082.89 3386 3082.89 3372.27C3082.89 3358.55 3071.77 3347.42 3058.04 3347.42C3044.32 3347.42 3033.19 3358.55 3033.19 3372.27C3033.19 3386 3044.32 3397.12 3058.04 3397.12Z" fill="#102048"/>
</svg>
