<svg width="5000" height="5000" viewBox="0 0 5000 5000" fill="none" xmlns="http://www.w3.org/2000/svg">
<path d="M3708.21 3525.85C3651.23 3585.83 3597.32 3624.51 3554.73 3655.07C3054.06 4014.31 2461.65 3909.59 2335.74 3884.02C2149.82 3846.26 1790.43 3773.26 1530.6 3467.71C1137.5 3005.43 1198.71 2277.13 1503.63 1796.36C1559.4 1708.42 1854.01 1220.33 2452.81 1142.06C2815.2 1094.69 3237.63 1190.23 3543.54 1446.52C4185.67 1984.5 4139.96 3071.32 3708.21 3525.85Z" fill="url(#paint0_linear_6_523)"/>
<path d="M3221.89 3259.89C3641.42 2840.36 3641.42 2160.16 3221.89 1740.63C2802.36 1321.1 2122.16 1321.1 1702.63 1740.63C1283.1 2160.16 1283.1 2840.36 1702.63 3259.89C2122.16 3679.42 2802.36 3679.42 3221.89 3259.89Z" fill="#BDD0FB"/>
<path d="M2462.28 3417.12C2968.65 3417.12 3379.15 3006.63 3379.15 2500.26C3379.15 1993.89 2968.65 1583.39 2462.28 1583.39C1955.91 1583.39 1545.42 1993.89 1545.42 2500.26C1545.42 3006.63 1955.91 3417.12 2462.28 3417.12Z" fill="url(#paint1_linear_6_523)"/>
<path d="M2462.28 3463.05C1931.4 3463.05 1499.5 3031.15 1499.5 2500.26C1499.5 1969.37 1931.4 1537.47 2462.28 1537.47C2993.16 1537.47 3425.07 1969.37 3425.07 2500.26C3425.07 3031.15 2993.16 3463.05 2462.28 3463.05ZM2462.28 1583.39C1956.72 1583.39 1545.42 1994.69 1545.42 2500.26C1545.42 3005.82 1956.72 3417.12 2462.28 3417.12C2967.84 3417.12 3379.14 3005.82 3379.14 2500.26C3379.14 1994.69 2967.84 1583.39 2462.28 1583.39Z" fill="white"/>
<path d="M2462.28 3059.22C2770.99 3059.22 3021.25 2808.97 3021.25 2500.26C3021.25 2191.55 2770.99 1941.29 2462.28 1941.29C2153.57 1941.29 1903.32 2191.55 1903.32 2500.26C1903.32 2808.97 2153.57 3059.22 2462.28 3059.22Z" fill="url(#paint2_linear_6_523)"/>
<path d="M2462.28 3105.15C2128.75 3105.15 1857.4 2833.79 1857.4 2500.26C1857.4 2166.72 2128.75 1895.38 2462.28 1895.38C2795.82 1895.38 3067.17 2166.72 3067.17 2500.26C3067.17 2833.79 2795.82 3105.15 2462.28 3105.15ZM2462.28 1987.22C2179.39 1987.22 1949.24 2217.37 1949.24 2500.26C1949.24 2783.15 2179.39 3013.31 2462.28 3013.31C2745.17 3013.31 2975.32 2783.15 2975.32 2500.26C2975.32 2217.37 2745.17 1987.22 2462.28 1987.22Z" fill="white"/>
<path d="M2462.28 2716.82C2581.88 2716.82 2678.84 2619.86 2678.84 2500.26C2678.84 2380.66 2581.88 2283.7 2462.28 2283.7C2342.68 2283.7 2245.72 2380.66 2245.72 2500.26C2245.72 2619.86 2342.68 2716.82 2462.28 2716.82Z" fill="url(#paint3_linear_6_523)"/>
<path d="M2462.28 2762.74C2317.55 2762.74 2199.8 2644.99 2199.8 2500.26C2199.8 2355.52 2317.55 2237.77 2462.28 2237.77C2607.01 2237.77 2724.76 2355.52 2724.76 2500.26C2724.76 2644.99 2607.01 2762.74 2462.28 2762.74ZM2462.28 2329.62C2368.19 2329.62 2291.64 2406.16 2291.64 2500.26C2291.64 2594.35 2368.19 2670.9 2462.28 2670.9C2556.37 2670.9 2632.92 2594.35 2632.92 2500.26C2632.92 2406.16 2556.37 2329.62 2462.28 2329.62Z" fill="white"/>
<path d="M3487.34 1477.97L3510.15 1500.78L2646.41 2364.52L2623.6 2341.71L3487.34 1477.97Z" fill="url(#paint4_linear_6_523)"/>
<path d="M2639.75 2286.68C2652.84 2273.59 2714.53 2335.28 2701.44 2348.37L2472.63 2528.25C2464.18 2534.89 2453.22 2523.94 2459.87 2515.49L2639.75 2286.68Z" fill="url(#paint5_linear_6_523)"/>
<path d="M3509.66 1501.27L3625.86 1512.82L3466.34 1672.34C3414.07 1724.61 3341.12 1750.67 3267.57 1743.36L3509.66 1501.27Z" fill="#91B3FA"/>
<path d="M3486.85 1478.46L3475.3 1362.26L3315.78 1521.78C3263.51 1574.05 3237.45 1647 3244.76 1720.55L3486.85 1478.46Z" fill="#91B3FA"/>
<g opacity="0.3">
<path d="M1892.18 1317.62C1888.94 1320.86 1883.67 1320.86 1880.43 1317.61C1874.12 1311.3 1867.45 1305.18 1860.59 1299.4C1857.13 1296.47 1856.65 1291.32 1859.49 1287.81C1859.53 1287.77 1859.56 1287.73 1859.6 1287.68C1862.55 1284.17 1867.8 1283.73 1871.31 1286.69C1878.53 1292.77 1885.55 1299.22 1892.19 1305.86C1895.22 1308.9 1895.42 1313.7 1892.77 1316.96C1892.59 1317.19 1892.39 1317.41 1892.18 1317.62ZM1825.29 1273.56C1817.72 1268.77 1809.87 1264.27 1801.95 1260.16C1797.88 1258.04 1796.28 1253.03 1798.4 1248.95C1800.53 1244.87 1805.53 1243.29 1809.61 1245.4C1817.94 1249.72 1826.2 1254.47 1834.17 1259.5C1838.05 1261.96 1839.21 1267.09 1836.76 1270.97C1836.58 1271.26 1836.39 1271.52 1836.19 1271.78C1833.57 1275 1828.89 1275.84 1825.29 1273.56ZM1761.83 1242.77C1753.4 1239.8 1744.74 1237.16 1736.09 1234.92C1731.64 1233.77 1728.97 1229.23 1730.12 1224.79C1731.27 1220.35 1735.81 1217.68 1740.25 1218.82C1749.37 1221.18 1758.49 1223.96 1767.36 1227.09C1771.69 1228.62 1773.96 1233.37 1772.44 1237.7C1772.11 1238.62 1771.64 1239.45 1771.06 1240.17C1768.9 1242.82 1765.24 1243.97 1761.83 1242.77ZM1693.08 1226.95C1684.19 1225.93 1675.15 1225.29 1666.21 1225.04C1661.63 1224.91 1658.01 1221.09 1658.14 1216.5C1658.27 1211.91 1662.09 1208.3 1666.68 1208.42C1676.09 1208.69 1685.6 1209.36 1694.96 1210.43C1699.52 1210.95 1702.8 1215.07 1702.28 1219.63C1702.09 1221.26 1701.44 1222.73 1700.48 1223.92C1698.75 1226.05 1696.01 1227.28 1693.08 1226.95ZM1622.51 1226.84C1613.64 1227.82 1604.68 1229.2 1595.89 1230.93C1591.39 1231.82 1587.02 1228.89 1586.13 1224.38C1585.24 1219.88 1588.17 1215.51 1592.67 1214.62C1601.92 1212.8 1611.35 1211.35 1620.68 1210.32C1625.24 1209.81 1629.35 1213.1 1629.86 1217.66C1630.11 1219.96 1629.4 1222.15 1628.05 1223.81C1626.72 1225.45 1624.77 1226.59 1622.51 1226.84ZM1553.68 1242.34C1545.23 1245.27 1536.81 1248.59 1528.63 1252.22C1524.44 1254.09 1519.52 1252.2 1517.66 1248C1515.8 1243.81 1517.68 1238.9 1521.88 1237.03C1530.48 1233.21 1539.35 1229.71 1548.24 1226.63C1552.58 1225.13 1557.31 1227.43 1558.82 1231.77C1559.79 1234.59 1559.16 1237.57 1557.41 1239.73C1556.47 1240.89 1555.2 1241.82 1553.68 1242.34ZM1341.65 1466.67C1337.21 1465.52 1334.55 1460.98 1335.7 1456.54C1338.07 1447.43 1340.87 1438.31 1344.03 1429.43C1345.56 1425.1 1350.32 1422.84 1354.64 1424.38C1358.97 1425.91 1361.23 1430.66 1359.69 1434.99C1356.7 1443.42 1354.04 1452.08 1351.79 1460.73C1351.48 1461.91 1350.93 1462.97 1350.21 1463.86C1348.22 1466.32 1344.91 1467.52 1341.65 1466.67ZM1490.04 1272.7C1482.45 1277.43 1474.98 1282.54 1467.84 1287.9C1464.16 1290.66 1458.95 1289.91 1456.2 1286.24C1453.44 1282.56 1454.2 1277.37 1457.86 1274.6C1465.39 1268.96 1473.26 1263.57 1481.24 1258.59C1485.14 1256.17 1490.26 1257.35 1492.69 1261.25C1494.62 1264.34 1494.27 1268.2 1492.1 1270.88C1491.53 1271.58 1490.84 1272.2 1490.04 1272.7ZM1365.95 1398.42C1361.88 1396.3 1360.3 1391.28 1362.42 1387.21C1366.77 1378.87 1371.53 1370.61 1376.58 1362.65C1379.02 1358.76 1384.18 1357.63 1388.05 1360.09C1391.93 1362.55 1393.08 1367.68 1390.62 1371.56C1385.82 1379.12 1381.29 1386.97 1377.16 1394.9C1376.9 1395.4 1376.59 1395.87 1376.24 1396.29C1373.8 1399.3 1369.51 1400.28 1365.95 1398.42ZM1434.78 1316.51C1428.45 1322.81 1422.31 1329.47 1416.53 1336.3C1413.57 1339.81 1408.32 1340.25 1404.82 1337.28C1401.36 1334.35 1400.89 1329.21 1403.73 1325.7C1403.77 1325.66 1403.8 1325.61 1403.84 1325.57C1409.93 1318.37 1416.39 1311.36 1423.05 1304.73C1426.31 1301.5 1431.57 1301.51 1434.81 1304.76C1437.83 1307.8 1438.02 1312.59 1435.38 1315.85C1435.19 1316.08 1434.99 1316.3 1434.78 1316.51Z" fill="#91B3FA"/>
<path d="M1340.67 1521.45C1341.7 1520.18 1342.37 1518.59 1342.5 1516.83C1342.81 1512.56 1343.22 1508.22 1343.71 1503.93C1344.24 1499.37 1340.96 1495.25 1336.4 1494.73C1331.84 1494.2 1327.72 1497.48 1327.2 1502.04C1326.68 1506.55 1326.25 1511.11 1325.92 1515.61C1325.58 1520.18 1329.02 1524.17 1333.6 1524.51C1336.42 1524.72 1339.01 1523.49 1340.67 1521.45Z" fill="#91B3FA"/>
</g>
<g opacity="0.3">
<path d="M1422.2 1761.4C1424.73 1758.28 1424.69 1753.71 1421.93 1750.62C1419.07 1747.43 1416.23 1744.13 1413.49 1740.8C1410.57 1737.26 1405.33 1736.76 1401.78 1739.68C1398.23 1742.61 1397.74 1747.84 1400.66 1751.38C1403.55 1754.88 1406.54 1758.36 1409.55 1761.72C1412.61 1765.14 1417.87 1765.43 1421.29 1762.36C1421.62 1762.06 1421.93 1761.74 1422.2 1761.4Z" fill="#91B3FA"/>
<path d="M1904.13 1762.13C1901.06 1765.55 1895.81 1765.85 1892.39 1762.78C1888.97 1759.72 1888.68 1754.47 1891.74 1751.04C1897.57 1744.53 1903.21 1737.67 1908.58 1730.58C1911.32 1726.92 1916.56 1726.19 1920.23 1728.96C1923.89 1731.73 1924.61 1736.95 1921.84 1740.61C1919.51 1743.68 1917.15 1746.71 1914.74 1749.68C1911.3 1753.92 1907.73 1758.11 1904.13 1762.13ZM1935.34 1705.88C1931.34 1703.64 1929.92 1698.57 1932.17 1694.57C1936.48 1686.88 1940.52 1678.93 1944.17 1670.94C1946.06 1666.76 1951.01 1664.92 1955.18 1666.83C1959.36 1668.73 1961.2 1673.66 1959.29 1677.84C1955.45 1686.25 1951.2 1694.62 1946.66 1702.71C1946.42 1703.13 1946.16 1703.52 1945.86 1703.88C1943.36 1706.97 1938.92 1707.9 1935.34 1705.88ZM1871.67 1793.73C1864.62 1799.71 1857.21 1805.48 1849.65 1810.85C1845.91 1813.52 1840.72 1812.65 1838.06 1808.9C1835.4 1805.17 1836.27 1799.98 1840.01 1797.31C1847.19 1792.2 1854.22 1786.73 1860.91 1781.05C1864.42 1778.08 1869.66 1778.51 1872.63 1782.01C1875.26 1785.11 1875.22 1789.57 1872.75 1792.62C1872.43 1793.01 1872.07 1793.39 1871.67 1793.73ZM1964.89 1641C1960.49 1639.69 1957.99 1635.06 1959.3 1630.66C1961.82 1622.23 1964.01 1613.59 1965.81 1604.98C1966.75 1600.48 1971.15 1597.6 1975.65 1598.55C1980.14 1599.48 1983.02 1603.89 1982.09 1608.38C1980.19 1617.44 1977.88 1626.54 1975.23 1635.42C1974.91 1636.49 1974.39 1637.45 1973.73 1638.27C1971.67 1640.81 1968.21 1642 1964.89 1641ZM1811.07 1834.51C1802.88 1838.8 1794.39 1842.79 1785.83 1846.37C1781.6 1848.15 1776.73 1846.16 1774.95 1841.93C1773.18 1837.69 1775.17 1832.82 1779.4 1831.05C1787.53 1827.64 1795.59 1823.85 1803.37 1819.78C1807.44 1817.65 1812.46 1819.23 1814.58 1823.3C1816.17 1826.33 1815.7 1829.89 1813.67 1832.39C1812.98 1833.24 1812.1 1833.97 1811.07 1834.51ZM1742.99 1861.02C1734.04 1863.41 1724.88 1865.46 1715.78 1867.09C1711.26 1867.9 1706.94 1864.9 1706.13 1860.38C1705.31 1855.86 1708.32 1851.54 1712.84 1850.73C1721.49 1849.17 1730.19 1847.23 1738.7 1844.96C1743.13 1843.77 1747.69 1846.41 1748.87 1850.84C1749.59 1853.52 1748.91 1856.23 1747.3 1858.23C1746.23 1859.55 1744.75 1860.55 1742.99 1861.02ZM1670.75 1872.06C1661.49 1872.45 1652.1 1872.45 1642.87 1872.06C1638.28 1871.87 1634.72 1868 1634.91 1863.41C1635.1 1858.82 1638.97 1855.26 1643.56 1855.45C1652.34 1855.82 1661.25 1855.82 1670.06 1855.45C1674.64 1855.26 1678.52 1858.82 1678.71 1863.41C1678.8 1865.51 1678.1 1867.47 1676.86 1868.99C1675.41 1870.77 1673.23 1871.95 1670.75 1872.06ZM1597.83 1867.08C1588.7 1865.43 1579.55 1863.37 1570.61 1860.96C1566.17 1859.77 1563.55 1855.21 1564.74 1850.77C1565.94 1846.35 1570.5 1843.72 1574.93 1844.91C1583.42 1847.2 1592.12 1849.15 1600.78 1850.72C1605.3 1851.53 1608.3 1855.85 1607.49 1860.37C1607.23 1861.8 1606.62 1863.07 1605.77 1864.12C1603.92 1866.41 1600.92 1867.63 1597.83 1867.08ZM1527.74 1846.18C1519.23 1842.57 1510.75 1838.55 1502.55 1834.23C1498.49 1832.09 1496.94 1827.06 1499.08 1823C1501.21 1818.95 1506.25 1817.38 1510.31 1819.52C1518.1 1823.63 1526.14 1827.45 1534.23 1830.88C1538.46 1832.67 1540.43 1837.55 1538.64 1841.77C1538.33 1842.51 1537.93 1843.18 1537.45 1843.77C1535.17 1846.57 1531.23 1847.66 1527.74 1846.18ZM1464.02 1810.45C1458.48 1806.48 1452.98 1802.3 1447.7 1798.02C1445.79 1796.47 1443.9 1794.9 1442.03 1793.31C1438.53 1790.35 1437.99 1785.09 1441.06 1781.6C1444.03 1778.1 1449.27 1777.66 1452.78 1780.63C1454.55 1782.14 1456.35 1783.63 1458.17 1785.1C1463.2 1789.18 1468.41 1793.15 1473.69 1796.92C1477.42 1799.59 1478.29 1804.78 1475.62 1808.51C1475.52 1808.65 1475.41 1808.79 1475.31 1808.92C1472.56 1812.31 1467.62 1813.01 1464.02 1810.45Z" fill="#91B3FA"/>
<path d="M1986.47 1567.94C1987.51 1566.66 1988.18 1565.06 1988.3 1563.29C1988.61 1558.8 1988.83 1554.21 1988.96 1549.67C1989.08 1545.08 1985.46 1541.26 1980.87 1541.13C1976.29 1541.01 1972.46 1544.62 1972.34 1549.21C1972.22 1553.53 1972.01 1557.88 1971.72 1562.15C1971.4 1566.72 1974.86 1570.69 1979.44 1571.01C1982.25 1571.2 1984.82 1569.97 1986.47 1567.94Z" fill="#91B3FA"/>
</g>
<path d="M1892.97 1460.41C1892.63 1458.79 1891.3 1457.56 1889.65 1457.35L1842.75 1451.36C1833.44 1431.33 1820.87 1412.65 1805.21 1396.18L1816.82 1350.38C1817.23 1348.77 1816.57 1347.08 1815.19 1346.17L1767.76 1315.08C1766.37 1314.17 1764.56 1314.24 1763.25 1315.25L1725.87 1344.17C1704.53 1336.37 1682.38 1332.29 1660.31 1331.74L1636.11 1291.11C1635.26 1289.69 1633.61 1288.96 1631.98 1289.3L1576.45 1300.85C1574.83 1301.18 1573.6 1302.51 1573.39 1304.16L1567.4 1351.06C1547.38 1360.37 1528.7 1372.94 1512.23 1388.6L1466.43 1376.99C1464.82 1376.58 1463.13 1377.24 1462.22 1378.63L1431.12 1426.06C1430.21 1427.44 1430.29 1429.25 1431.3 1430.56L1460.21 1467.94C1452.41 1489.29 1448.34 1511.43 1447.79 1533.51L1407.16 1557.7C1405.74 1558.55 1405.01 1560.21 1405.35 1561.83L1416.9 1617.36C1417.23 1618.98 1418.56 1620.21 1420.21 1620.42L1467.11 1626.41C1476.42 1646.44 1488.99 1665.12 1504.65 1681.58L1493.04 1727.39C1492.63 1729 1493.29 1730.68 1494.67 1731.59L1542.11 1762.69C1543.49 1763.6 1545.3 1763.53 1546.61 1762.51L1583.99 1733.6C1605.33 1741.4 1627.48 1745.48 1649.56 1746.03L1673.75 1786.65C1674.6 1788.08 1676.25 1788.81 1677.88 1788.47L1733.41 1776.92C1735.03 1776.58 1736.26 1775.25 1736.47 1773.61L1742.46 1726.7C1762.48 1717.4 1781.17 1704.83 1797.63 1689.17L1843.44 1700.78C1845.04 1701.18 1846.73 1700.53 1847.64 1699.14L1878.74 1651.71C1879.65 1650.32 1879.58 1648.51 1878.56 1647.2L1849.65 1609.83C1857.45 1588.48 1861.52 1566.34 1862.07 1544.26L1902.7 1520.07C1904.12 1519.22 1904.85 1517.56 1904.52 1515.94L1892.97 1460.41Z" fill="#91B3FA"/>
<path d="M1693.51 1580.86C1670.36 1602.13 1634.22 1600.61 1612.95 1577.46C1602.65 1566.25 1597.33 1551.69 1597.97 1536.48C1598.61 1521.26 1605.14 1507.21 1616.35 1496.9C1639.5 1475.63 1675.64 1477.16 1696.91 1500.31C1716.26 1521.37 1716.74 1553.17 1699.24 1574.76C1697.51 1576.9 1695.59 1578.94 1693.51 1580.86ZM1611.26 1537.04C1610.77 1548.7 1614.84 1559.86 1622.75 1568.46C1639.05 1586.21 1666.76 1587.38 1684.51 1571.07C1702.27 1554.76 1703.43 1527.05 1687.12 1509.31C1670.81 1491.56 1643.1 1490.39 1625.35 1506.7C1623.75 1508.18 1622.27 1509.75 1620.91 1511.42C1615.04 1518.66 1611.66 1527.56 1611.26 1537.04Z" fill="#BDD0FB"/>
<path d="M1762.47 1627.53C1765.47 1623.82 1768.31 1619.94 1770.96 1615.89C1771.8 1614.62 1772.61 1613.33 1773.41 1612.03C1777.32 1605.62 1780.72 1598.91 1783.55 1592C1783.59 1591.91 1783.63 1591.82 1783.67 1591.72C1783.77 1591.46 1783.88 1591.19 1783.99 1590.92C1784.2 1590.4 1784.4 1589.87 1784.6 1589.35C1785.14 1587.97 1784.69 1586.45 1783.6 1585.57C1783.33 1585.35 1783.03 1585.18 1782.7 1585.05C1780.98 1584.39 1779.06 1585.25 1778.4 1586.96C1775 1595.77 1770.63 1604.28 1765.4 1612.25C1739.46 1651.82 1695.94 1673.08 1651.81 1672.51C1627.26 1672.2 1602.52 1665.13 1580.52 1650.7C1576.66 1648.17 1572.95 1645.47 1569.42 1642.6C1545.62 1623.3 1529.32 1596.63 1523 1566.23C1515.73 1531.31 1522.5 1495.65 1542.06 1465.82C1582.46 1404.22 1665.37 1386.99 1726.95 1427.36C1730.74 1429.85 1734.4 1432.52 1737.9 1435.37C1753.08 1447.68 1765.4 1463.17 1773.91 1480.78C1774.13 1481.24 1774.44 1481.62 1774.81 1481.92C1775.78 1482.7 1777.16 1482.91 1778.35 1482.33C1780.01 1481.52 1780.7 1479.54 1779.9 1477.89C1770.96 1459.4 1758.03 1443.13 1742.09 1430.2C1738.42 1427.22 1734.58 1424.42 1730.59 1421.8C1665.95 1379.42 1578.87 1397.55 1536.5 1462.17C1515.97 1493.48 1508.86 1530.92 1516.49 1567.58C1523.12 1599.49 1540.24 1627.5 1565.22 1647.76C1568.93 1650.77 1572.82 1653.61 1576.87 1656.26C1608.18 1676.79 1645.62 1683.9 1682.28 1676.28C1714.2 1669.64 1742.21 1652.52 1762.47 1627.53Z" fill="#BDD0FB"/>
<g opacity="0.3">
<path d="M2241.57 1234.58C2242.97 1232.86 2243.13 1230.36 2241.81 1228.44C2239.33 1224.85 2236.71 1221.29 2234.03 1217.85C2232.28 1215.62 2229.06 1215.23 2226.82 1216.97C2224.58 1218.71 2224.19 1221.95 2225.94 1224.18C2228.5 1227.45 2231 1230.85 2233.36 1234.27C2234.97 1236.6 2238.16 1237.19 2240.5 1235.58C2240.91 1235.29 2241.27 1234.96 2241.57 1234.58Z" fill="#91B3FA"/>
<path d="M2215.9 1204.67C2213.9 1206.68 2210.65 1206.68 2208.64 1204.68C2203.57 1199.64 2198.18 1194.79 2192.62 1190.28C2191.45 1189.33 2190.26 1188.39 2189.06 1187.46C2186.82 1185.72 2186.41 1182.5 2188.15 1180.26C2189.88 1178.21 2193.12 1177.62 2195.36 1179.35C2196.62 1180.33 2197.86 1181.31 2199.08 1182.31C2204.91 1187.03 2210.56 1192.11 2215.88 1197.41C2217.77 1199.28 2217.89 1202.25 2216.25 1204.27C2216.14 1204.41 2216.03 1204.54 2215.9 1204.67ZM2167.53 1172.75C2160.08 1168.31 2152.29 1164.28 2144.37 1160.79C2141.78 1159.64 2140.6 1156.61 2141.75 1154.02C2142.89 1151.44 2145.92 1150.25 2148.52 1151.39C2156.81 1155.05 2164.98 1159.27 2172.79 1163.94C2175.23 1165.39 2176.02 1168.55 2174.57 1170.98C2174.44 1171.2 2174.3 1171.4 2174.15 1171.59C2172.56 1173.54 2169.75 1174.08 2167.53 1172.75ZM2119.91 1151.77C2111.61 1149.29 2103.06 1147.3 2094.51 1145.86C2091.72 1145.39 2089.83 1142.74 2090.3 1139.95C2090.78 1137.14 2093.42 1135.26 2096.22 1135.73C2105.18 1137.24 2114.15 1139.33 2122.85 1141.93C2125.56 1142.75 2127.11 1145.61 2126.3 1148.32C2126.1 1148.99 2125.78 1149.58 2125.37 1150.08C2124.1 1151.65 2121.96 1152.39 2119.91 1151.77ZM2068.58 1143.13C2059.91 1142.76 2051.14 1142.92 2042.52 1143.62C2039.69 1143.84 2037.22 1141.74 2036.99 1138.91C2036.77 1136.09 2038.87 1133.61 2041.69 1133.38C2050.74 1132.65 2059.93 1132.48 2069.02 1132.87C2071.86 1133 2074.06 1135.39 2073.93 1138.23C2073.88 1139.37 2073.46 1140.41 2072.79 1141.23C2071.8 1142.45 2070.27 1143.21 2068.58 1143.13ZM2016.7 1147.29C2008.21 1149.03 1999.74 1151.32 1991.54 1154.08C1988.85 1154.99 1985.94 1153.54 1985.03 1150.85C1984.13 1148.17 1985.57 1145.25 1988.26 1144.35C1996.86 1141.45 2005.73 1139.06 2014.63 1137.22C2017.41 1136.66 2020.13 1138.44 2020.7 1141.22C2021.02 1142.79 2020.59 1144.34 2019.65 1145.49C2018.93 1146.38 2017.91 1147.04 2016.7 1147.29ZM1967.4 1163.91C1959.6 1167.66 1951.95 1171.94 1944.68 1176.62C1942.3 1178.16 1939.12 1177.47 1937.59 1175.09C1936.05 1172.71 1936.73 1169.54 1939.12 1167.99C1946.74 1163.08 1954.77 1158.59 1962.96 1154.65C1965.51 1153.42 1968.58 1154.5 1969.81 1157.05C1970.69 1158.9 1970.38 1161.02 1969.17 1162.51C1968.7 1163.08 1968.11 1163.57 1967.4 1163.91ZM1923.69 1192.07C1917.06 1197.6 1910.69 1203.63 1904.76 1209.99C1902.83 1212.06 1899.58 1212.17 1897.51 1210.24C1895.44 1208.31 1895.35 1205.09 1897.26 1202.98C1903.48 1196.32 1910.15 1190 1917.1 1184.19C1919.28 1182.37 1922.51 1182.66 1924.33 1184.84C1925.93 1186.75 1925.9 1189.49 1924.38 1191.36C1924.18 1191.61 1923.95 1191.85 1923.69 1192.07ZM1867.21 1254.11C1864.72 1252.74 1863.83 1249.62 1865.2 1247.14C1869 1240.27 1873.24 1233.49 1877.8 1227.01C1878.48 1226.02 1879.18 1225.05 1879.89 1224.08C1881.48 1221.75 1884.76 1221.27 1887.06 1222.95C1889.35 1224.62 1889.86 1227.83 1888.19 1230.12C1887.52 1231.03 1886.87 1231.95 1886.21 1232.89C1881.86 1239.09 1877.81 1245.56 1874.18 1252.11C1874.04 1252.38 1873.86 1252.63 1873.68 1252.86C1872.14 1254.76 1869.42 1255.34 1867.21 1254.11Z" fill="#91B3FA"/>
</g>
<g opacity="0.3">
<path d="M2229.55 1496.46C2223.83 1503.34 2217.63 1509.92 2211.14 1516.04C2209.08 1517.98 2205.83 1517.88 2203.88 1515.82C2201.93 1513.75 2202.07 1510.51 2204.1 1508.56C2210.29 1502.73 2216.2 1496.45 2221.66 1489.89C2223.47 1487.71 2226.71 1487.41 2228.89 1489.23C2231.05 1491.03 2231.36 1494.23 2229.59 1496.4C2229.58 1496.42 2229.56 1496.44 2229.55 1496.46ZM2238.38 1476.31C2236 1474.78 2235.32 1471.6 2236.86 1469.22C2241.5 1462.06 2245.74 1454.54 2249.48 1446.88C2250.72 1444.35 2253.8 1443.28 2256.35 1444.52C2258.9 1445.77 2259.95 1448.84 2258.71 1451.39C2254.79 1459.42 2250.34 1467.29 2245.48 1474.79C2245.38 1474.95 2245.27 1475.1 2245.16 1475.24C2243.53 1477.25 2240.61 1477.75 2238.38 1476.31ZM2190.47 1533.24C2183.25 1538.54 2175.64 1543.43 2167.87 1547.8C2165.39 1549.18 2162.26 1548.3 2160.88 1545.83C2159.49 1543.36 2160.37 1540.24 2162.84 1538.84C2170.26 1534.68 2177.51 1530.01 2184.4 1524.96C2186.69 1523.29 2189.9 1523.78 2191.58 1526.07C2192.99 1527.99 2192.86 1530.57 2191.43 1532.34C2191.15 1532.67 2190.84 1532.98 2190.47 1533.24ZM2262.48 1429.72C2259.8 1428.8 2258.37 1425.87 2259.3 1423.19C2262.07 1415.13 2264.38 1406.82 2266.15 1398.48C2266.74 1395.71 2269.47 1393.94 2272.23 1394.52C2275.01 1395.11 2276.78 1397.84 2276.19 1400.61C2274.34 1409.36 2271.92 1418.08 2269.01 1426.53C2268.8 1427.12 2268.51 1427.64 2268.14 1428.1C2266.82 1429.72 2264.57 1430.44 2262.48 1429.72ZM2143.67 1559.49C2135.41 1562.88 2126.85 1565.8 2118.23 1568.17C2115.5 1568.93 2112.67 1567.32 2111.92 1564.58C2111.17 1561.85 2112.77 1559.02 2115.51 1558.27C2123.73 1556.01 2131.89 1553.22 2139.77 1549.98C2142.39 1548.91 2145.39 1550.16 2146.47 1552.79C2147.21 1554.58 2146.85 1556.56 2145.71 1557.97C2145.18 1558.62 2144.5 1559.15 2143.67 1559.49ZM2091.94 1573.74C2083.09 1575.05 2074.07 1575.84 2065.16 1576.09C2062.32 1576.17 2059.96 1573.94 2059.89 1571.1C2059.81 1568.27 2062.04 1565.9 2064.88 1565.83C2073.38 1565.59 2081.98 1564.84 2090.43 1563.58C2093.23 1563.16 2095.84 1565.1 2096.26 1567.9C2096.48 1569.38 2096.05 1570.81 2095.17 1571.89C2094.39 1572.86 2093.26 1573.54 2091.94 1573.74ZM2038.28 1575.19C2029.36 1574.35 2020.42 1572.96 2011.7 1571.05C2008.93 1570.44 2007.18 1567.7 2007.78 1564.93C2008.39 1562.16 2011.13 1560.41 2013.9 1561.02C2022.21 1562.84 2030.74 1564.17 2039.24 1564.97C2042.06 1565.23 2044.13 1567.74 2043.87 1570.56C2043.77 1571.61 2043.36 1572.55 2042.75 1573.31C2041.7 1574.6 2040.05 1575.36 2038.28 1575.19Z" fill="#91B3FA"/>
<path d="M2279.07 1376.56C2279.69 1375.79 2280.1 1374.83 2280.19 1373.77C2280.57 1369.39 2280.82 1364.98 2280.94 1360.66C2281.02 1357.83 2278.78 1355.47 2275.95 1355.39C2273.12 1355.32 2270.76 1357.55 2270.67 1360.38C2270.56 1364.5 2270.32 1368.71 2269.96 1372.88C2269.72 1375.71 2271.81 1378.2 2274.63 1378.44C2276.4 1378.59 2278.03 1377.84 2279.07 1376.56Z" fill="#91B3FA"/>
</g>
<path d="M2217.13 1300.94C2216.91 1299.86 2216.02 1299.03 2214.92 1298.89L2183.53 1294.89C2177.3 1281.49 2168.89 1268.99 2158.41 1257.97L2166.18 1227.32C2166.45 1226.24 2166.01 1225.11 2165.09 1224.5L2133.35 1203.69C2132.42 1203.09 2131.21 1203.13 2130.33 1203.81L2105.32 1223.16C2091.04 1217.94 2076.22 1215.21 2061.45 1214.84L2045.26 1187.66C2044.69 1186.71 2043.58 1186.22 2042.49 1186.44L2005.34 1194.17C2004.25 1194.4 2003.43 1195.29 2003.29 1196.39L1999.28 1227.77C1985.88 1234 1973.38 1242.41 1962.36 1252.89L1931.71 1245.12C1930.63 1244.85 1929.5 1245.29 1928.9 1246.22L1908.09 1277.96C1907.48 1278.89 1907.53 1280.1 1908.2 1280.97L1927.55 1305.98C1922.33 1320.27 1919.61 1335.09 1919.24 1349.86L1892.05 1366.05C1891.1 1366.61 1890.61 1367.72 1890.84 1368.81L1898.57 1405.97C1898.79 1407.05 1899.68 1407.88 1900.78 1408.02L1932.17 1412.03C1938.4 1425.42 1946.81 1437.93 1957.29 1448.95L1949.52 1479.6C1949.24 1480.67 1949.68 1481.8 1950.61 1482.41L1982.35 1503.22C1983.28 1503.83 1984.49 1503.78 1985.37 1503.1L2010.38 1483.75C2024.66 1488.97 2039.48 1491.7 2054.25 1492.07L2070.44 1519.25C2071.01 1520.21 2072.12 1520.7 2073.2 1520.47L2110.36 1512.74C2111.45 1512.52 2112.27 1511.63 2112.41 1510.53L2116.42 1479.14C2129.82 1472.91 2142.32 1464.5 2153.34 1454.02L2183.99 1461.79C2185.06 1462.06 2186.19 1461.62 2186.8 1460.7L2207.61 1428.96C2208.22 1428.03 2208.17 1426.82 2207.49 1425.94L2188.14 1400.93C2193.36 1386.65 2196.09 1371.83 2196.46 1357.06L2223.64 1340.87C2224.6 1340.3 2225.08 1339.19 2224.86 1338.1L2217.13 1300.94Z" fill="#91B3FA"/>
<path d="M2084.13 1382.05C2076.49 1389.07 2066.58 1392.7 2056.21 1392.26C2045.85 1391.82 2036.28 1387.37 2029.26 1379.73C2014.77 1363.97 2015.81 1339.4 2031.57 1324.86C2047.35 1310.37 2071.96 1311.41 2086.44 1327.18C2093.46 1334.82 2097.09 1344.73 2096.65 1355.09C2096.29 1363.52 2093.29 1371.42 2088.07 1377.85C2086.87 1379.33 2085.56 1380.73 2084.13 1382.05ZM2036.82 1372.78C2041.98 1378.4 2049.02 1381.68 2056.65 1382C2064.27 1382.32 2071.56 1379.65 2077.18 1374.49C2082.79 1369.32 2086.07 1362.29 2086.39 1354.66C2086.72 1347.04 2084.05 1339.74 2078.88 1334.13C2068.23 1322.53 2050.12 1321.77 2038.52 1332.42C2037.48 1333.38 2036.52 1334.4 2035.65 1335.48C2026.88 1346.29 2027.12 1362.23 2036.82 1372.78Z" fill="#BDD0FB"/>
<path d="M2132.13 1414.52C2134.17 1412 2136.11 1409.35 2137.93 1406.58C2141.54 1401.08 2144.59 1395.2 2147.01 1389.09C2147.12 1388.82 2147.23 1388.54 2147.33 1388.27C2148.15 1386.14 2147.46 1383.8 2145.78 1382.44C2145.37 1382.11 2144.9 1381.83 2144.39 1381.63C2141.74 1380.61 2138.78 1381.94 2137.75 1384.58C2135.55 1390.3 2132.72 1395.8 2129.34 1400.95L2129.34 1400.95C2129.16 1401.23 2128.97 1401.51 2128.78 1401.79C2120.68 1413.89 2109.87 1423.52 2097.3 1430.1C2090.48 1433.67 2083.13 1436.35 2075.42 1438.03C2075.35 1438.04 2075.29 1438.05 2075.23 1438.07C2075.03 1438.11 2074.84 1438.15 2074.65 1438.19C2052.04 1442.89 2028.96 1438.51 2009.65 1425.85C2007.15 1424.21 2004.75 1422.46 2002.47 1420.6C1987.06 1408.11 1976.51 1390.84 1972.41 1371.16C1967.71 1348.55 1972.1 1325.47 1984.76 1306.16C1997.42 1286.87 2016.84 1273.63 2039.45 1268.92C2062.05 1264.22 2085.14 1268.6 2104.45 1281.26C2106.9 1282.87 2109.27 1284.6 2111.54 1286.44C2121.37 1294.41 2129.34 1304.44 2134.85 1315.84C2135.19 1316.55 2135.67 1317.14 2136.24 1317.59C2137.73 1318.81 2139.86 1319.13 2141.71 1318.23C2144.25 1316.99 2145.33 1313.93 2144.09 1311.37C2137.92 1298.61 2129 1287.39 2118.01 1278.47C2115.47 1276.41 2112.83 1274.48 2110.08 1272.68C2088.47 1258.51 2062.65 1253.61 2037.35 1258.87C2012.06 1264.13 1990.33 1278.9 1976.17 1300.53C1962 1322.13 1957.1 1347.95 1962.36 1373.25C1966.94 1395.27 1978.75 1414.59 1995.98 1428.56C1998.54 1430.64 2001.22 1432.6 2004.02 1434.43C2045.85 1461.85 2101.28 1452.57 2132.13 1414.52Z" fill="#BDD0FB"/>
<path d="M1615.17 3839.6C1615.17 3839.6 1609.39 3870.59 1606.41 3901.31C1605.24 3913.31 1614.4 3923.83 1626.45 3924.44C1667.36 3926.54 1754.89 3930.69 1786.32 3929.59C1791.04 3929.42 1794.18 3924.62 1792.47 3920.21C1791.04 3916.51 1788.25 3913.51 1784.66 3911.82L1640.67 3843.97L1615.17 3839.6Z" fill="url(#paint6_linear_6_523)"/>
<path d="M1610.85 3821.31L1614.9 3858.49C1614.9 3858.49 1640.13 3870.53 1657.55 3857.41L1647.46 3815.92L1610.85 3821.31Z" fill="url(#paint7_linear_6_523)"/>
<path d="M1620.82 3123.08C1618.83 3132.76 1605.99 3606.99 1654.66 3820.03C1655.46 3823.51 1653.66 3827.06 1650.35 3828.38C1642.54 3831.48 1627.26 3835.94 1608.98 3836.38C1603.32 3836.51 1598.28 3832.79 1596.74 3827.34C1582.72 3777.89 1515.63 3530.14 1508.82 3294.02C1501.21 3030.18 1508.91 3285.04 1508.91 3285.04L1516.4 3122.07L1620.82 3123.08Z" fill="url(#paint8_linear_6_523)"/>
<path d="M1448.65 3854.21C1448.65 3854.21 1439.77 3869.8 1430.92 3911.37C1429.32 3918.88 1434.51 3926.13 1442.14 3926.95C1455.64 3928.41 1476.43 3930.32 1493.1 3930.36C1500.78 3930.38 1506.84 3923.75 1505.99 3916.12C1504.29 3900.89 1498.78 3875.89 1481.2 3856.28L1448.65 3854.21Z" fill="url(#paint9_linear_6_523)"/>
<path d="M1441.44 3806.36L1451.2 3862.63C1451.2 3862.63 1461.3 3870.3 1481.5 3865L1477.16 3804.52L1441.44 3806.36Z" fill="url(#paint10_linear_6_523)"/>
<path d="M1420.01 3135.72C1376.16 3385.58 1423.11 3754.32 1439.44 3826.56C1440.44 3830.98 1443.97 3834.4 1448.43 3835.18C1456.02 3836.51 1468.52 3837.66 1480.88 3834.2C1485.14 3833 1488.16 3829.2 1488.38 3824.78C1491.21 3766.53 1490.52 3408.75 1530.5 3267.74C1532.53 3260.6 1536.96 3254.39 1543.06 3250.14L1618.56 3197.55L1625.13 3111.43L1420.01 3135.72Z" fill="url(#paint11_linear_6_523)"/>
<path d="M1688.76 2664.07C1564.51 2660.83 1427.07 2694.21 1427.07 2694.21C1387.97 2909.98 1416.15 3159.57 1416.15 3159.57C1512.12 3185.71 1621.03 3146.1 1621.03 3146.1C1637.88 3055.91 1714.91 2802.38 1714.91 2802.38C1775.69 2795.43 1825.88 2778.39 1867.29 2755.62C1836.22 2718.9 1821.85 2672.42 1815.68 2644.97C1771.61 2658.2 1727.08 2665.07 1688.76 2664.07Z" fill="url(#paint12_linear_6_523)"/>
<path d="M2057.56 2484.54C2045.5 2469.68 2029.98 2476.5 2029.98 2476.5C2010.96 2553.57 1914.47 2615.29 1815.68 2644.97C1821.85 2672.42 1836.22 2718.9 1867.29 2755.62C2031.65 2665.26 2057.56 2484.54 2057.56 2484.54Z" fill="url(#paint13_linear_6_523)"/>
<path d="M2054.56 2488.26C2055.8 2492.33 2040.95 2498.37 2032.4 2481.68C2032.17 2473.72 2027.66 2439.58 2032.48 2433.14C2058.14 2398.84 2107.66 2356.02 2107.66 2356.02C2115.88 2364.29 2108.97 2372.27 2108.97 2372.27L2084.91 2396.86C2089.8 2405.91 2095.81 2413.57 2098.55 2424.49C2100.63 2432.76 2099.23 2441.57 2094.99 2449.03C2090.74 2456.53 2084.94 2466.27 2079.47 2473.88C2069.12 2488.29 2054.56 2488.26 2054.56 2488.26Z" fill="url(#paint14_linear_6_523)"/>
<path d="M2074.33 2412.87L2052.45 2431.06L2045.45 2449.32L2064.61 2470.98C2064.61 2470.98 2071.46 2434.69 2076.37 2426.86C2081.29 2419.04 2078.81 2415.21 2074.33 2412.87Z" fill="url(#paint15_linear_6_523)"/>
<path d="M1473.59 2814.99L1427.07 2694.21C1427.07 2694.21 1310.25 2771.96 1290.21 2871.77C1312.12 2873.6 1351.98 2879.68 1390.85 2899.78C1399.88 2852.65 1473.59 2814.99 1473.59 2814.99Z" fill="url(#paint16_linear_6_523)"/>
<path d="M1573.94 2929.18C1573.94 2929.18 1442.92 3001.58 1399.55 2938.27C1390.54 2925.13 1388.48 2912.13 1390.85 2899.78C1351.97 2879.68 1312.12 2873.6 1290.2 2871.77C1284.16 2901.86 1286.9 2933.95 1304.3 2966.52C1379.98 3108.15 1590.88 2961.47 1590.88 2961.47L1573.94 2929.18Z" fill="url(#paint17_linear_6_523)"/>
<path d="M1563.85 2561.99L1523.22 2675.95C1522.55 2677.84 1523.31 2679.95 1525.05 2680.93C1535.77 2686.99 1574.44 2704.59 1621.52 2675.37C1626.42 2672.32 1629.79 2667.31 1630.58 2661.6L1644.33 2562.75L1563.85 2561.99Z" fill="url(#paint18_linear_6_523)"/>
<path d="M1650.89 2456.92C1650.89 2456.92 1693.53 2539.06 1687.65 2572.03C1681.77 2604.99 1627.98 2602.1 1581.25 2574.84L1549.26 2486.28L1650.89 2456.92Z" fill="url(#paint19_linear_6_523)"/>
<path d="M1583.74 2531.52C1585.66 2530.69 1586.38 2528.36 1585.26 2526.61C1581.83 2521.26 1575.41 2510.35 1573.42 2500.84C1573.42 2500.84 1565.67 2495.77 1593.4 2489.41C1621.13 2483.05 1662.5 2473.17 1671.4 2449.7C1680.07 2426.81 1658.4 2368.85 1622.52 2414.53C1621.15 2416.26 1618.51 2416.28 1617.18 2414.51C1611.44 2406.89 1596.31 2391.05 1575.01 2400.36C1555.07 2409.08 1552.7 2423.6 1552.9 2430.94C1552.96 2433.09 1551.02 2434.75 1548.9 2434.33C1538.88 2432.32 1514.82 2430.44 1503.34 2455.04C1493.89 2475.3 1499.8 2486.88 1505.22 2492.57C1506.98 2494.41 1506.17 2497.41 1503.73 2498.13C1497.12 2500.09 1488.55 2505.6 1489.25 2521.06C1490.23 2542.43 1514.13 2540.78 1520.94 2539.87C1522.05 2539.72 1523.17 2540.11 1523.92 2540.95C1529.69 2547.46 1555.7 2575.11 1584.1 2578.68C1586.56 2578.99 1588.49 2576.58 1587.71 2574.23L1575.74 2538.34C1575.19 2536.68 1576 2534.86 1577.61 2534.17L1583.74 2531.52Z" fill="url(#paint20_linear_6_523)"/>
<path d="M1588.64 2536.65C1588.64 2536.65 1557.93 2515.14 1555.5 2532.98C1553.07 2550.82 1583.09 2559.12 1598.06 2552.6L1588.64 2536.65Z" fill="url(#paint21_linear_6_523)"/>
<path d="M1547.16 3043.6L1618.53 2794.36C1619.34 2791.53 1621.76 2789.46 1624.68 2789.12C1637.61 2787.61 1675.08 2783.38 1718.35 2779.72C1770.46 2775.31 1830.98 2771.74 1867.14 2774.78C1872.28 2775.21 1875.39 2780.65 1873.1 2785.27C1852.54 2826.88 1767.95 2996.12 1725.59 3051.56C1724.18 3053.39 1722.01 3054.47 1719.7 3054.45L1554.11 3052.91C1549.29 3052.86 1545.84 3048.24 1547.16 3043.6Z" fill="url(#paint22_linear_6_523)"/>
<path d="M1564.41 2983.39C1564.41 2983.39 1554.46 2942.5 1558.47 2928C1562.48 2913.5 1570.25 2894.85 1596.15 2898.99C1622.06 2903.14 1652.61 2914.05 1652.61 2914.05C1652.61 2914.05 1651.06 2932.94 1631.38 2926.84L1643.59 2936.29C1643.59 2936.29 1641.84 2951.41 1625.21 2943.33L1636.57 2955.86C1636.57 2955.86 1629.43 2968.28 1617.19 2960.32C1604.96 2952.35 1599.1 2988.31 1564.41 2983.39Z" fill="url(#paint23_linear_6_523)"/>
<path d="M1713.59 2854.12C1713.59 2865.7 1722.97 2875.08 1734.54 2875.08C1746.11 2875.08 1755.49 2865.7 1755.49 2854.12C1755.49 2842.55 1746.11 2833.17 1734.54 2833.17C1722.97 2833.17 1713.59 2842.55 1713.59 2854.12Z" fill="#91B3FA"/>
<path d="M1626.61 2867.94L1641.14 2818.64C1642.92 2812.59 1647.79 2808.04 1653.84 2806.78C1699.39 2797.28 1824.05 2795.26 1825.3 2795.24L1825.22 2789.67C1820.08 2789.75 1698.77 2791.72 1652.7 2801.33C1644.64 2803.01 1638.16 2809.04 1635.8 2817.06L1621.27 2866.36L1626.61 2867.94Z" fill="#BDD0FB"/>
<path d="M3481.57 2497.26C3483.55 2493.47 3489.15 2494.07 3490.29 2498.19C3494.53 2513.42 3504.77 2540.01 3526.27 2549.45C3527.35 2549.92 3528.38 2550.4 3529.37 2550.89C3530.34 2547.96 3530.36 2544.57 3528.02 2541C3521.34 2530.79 3533.4 2516.84 3533.4 2516.84C3533.4 2516.84 3534.2 2529.12 3543.54 2536.86C3551.58 2543.52 3555.44 2558.35 3549.95 2570.51C3538.31 2615.7 3520.89 2675.47 3588.75 2719.13C3656.61 2762.8 3752.18 2636.73 3752.18 2636.73L3704.75 2787.1C3704.75 2787.1 3631.54 2841.12 3546.38 2765.15C3461.22 2689.18 3517.66 2578.64 3517.66 2578.64C3517.66 2578.64 3452.71 2552.43 3481.57 2497.26Z" fill="url(#paint24_linear_6_523)"/>
<path d="M3764.07 2415.79C3764.07 2415.79 3744.41 2327.6 3845.43 2350.95C3845.43 2350.95 3894.46 2342.94 3896.95 2389.22C3896.95 2389.22 3928.56 2410.05 3905.42 2450.1C3905.42 2450.1 3999.36 2413.82 4040.29 2496.15C4081.21 2578.49 4043.59 2623.8 4004.15 2635.6C4004.15 2635.6 4036.11 2651.64 4020.98 2687.87C4005.86 2724.09 3929.26 2749.63 3884.02 2705.57C3884.02 2705.57 3755.27 2722.59 3757.84 2631.65C3757.84 2631.65 3697.96 2592.98 3760.86 2517.82C3823.75 2442.67 3764.07 2415.79 3764.07 2415.79Z" fill="url(#paint25_linear_6_523)"/>
<path d="M3758.52 2620.21C3778.82 2614.12 3837.92 2602.89 3894.14 2654.77C3903.68 2663.57 3907.57 2676.94 3904.17 2689.46C3889.07 2745.05 3849.23 2909.29 3884.17 2980.36C3884.17 2980.36 3822.61 3048.22 3755.45 2993.52C3755.45 2993.52 3725.31 2862.19 3685.85 2804.54C3658.6 2764.74 3729.29 2655.07 3747.18 2628.58C3749.89 2624.57 3753.88 2621.6 3758.52 2620.21Z" fill="url(#paint26_linear_6_523)"/>
<path d="M3814.57 2509.76C3814.57 2509.76 3844.59 2594.68 3846.85 2632.14C3846.85 2632.14 3813.67 2647.23 3782.4 2621.77C3782.4 2621.77 3779.12 2536.95 3774.38 2521.76L3814.57 2509.76Z" fill="url(#paint27_linear_6_523)"/>
<path d="M3772.87 2393.98C3772.87 2393.98 3694.34 2503.87 3741.28 2535.79C3788.22 2567.71 3844.12 2489.61 3844.12 2489.61C3844.12 2489.61 3862.34 2429.47 3843.29 2409.06C3824.24 2388.66 3772.87 2393.98 3772.87 2393.98Z" fill="url(#paint28_linear_6_523)"/>
<path d="M3809.21 2367.72C3809.21 2367.72 3773.14 2376.27 3768.08 2392.59C3763.03 2408.91 3819.24 2424.05 3834.99 2424.79L3847.68 2490.65C3847.68 2490.65 3885.2 2428.69 3870.33 2392.91C3855.47 2357.12 3809.21 2367.72 3809.21 2367.72Z" fill="url(#paint29_linear_6_523)"/>
<path d="M3828.9 2481.53C3828.9 2481.53 3859.46 2446.13 3871.62 2469.21C3883.78 2492.28 3844.11 2509.61 3830.38 2498.28L3828.9 2481.53Z" fill="url(#paint30_linear_6_523)"/>
<path d="M3677.05 3269.27C3677.28 3275.23 3666.81 3322.52 3661.11 3347.74C3658.82 3357.89 3660.42 3368.52 3665.58 3377.55L3862.88 3709.6C3865.27 3713.62 3867 3717.97 3868.06 3722.52C3871.67 3738.1 3879.17 3776.29 3875.26 3811.04L3865.05 3832.23L3909.19 3822.21L3918.8 3703.67L3906.3 3696.05C3895.5 3689.47 3887.1 3679.63 3882.29 3667.94C3864.45 3624.6 3820.14 3514.29 3808.72 3460.53C3795.75 3399.44 3727.9 3349.81 3727.9 3349.81L3739.82 3321.63L3677.05 3269.27Z" fill="url(#paint31_linear_6_523)"/>
<path d="M3958.25 3781.42C3958.25 3781.42 3934.41 3743.63 3931.61 3728.92C3928.8 3714.21 3920.99 3688.23 3906.3 3696.05C3906.3 3696.05 3899.37 3767.51 3901.76 3795.44C3904.15 3823.36 3870.2 3822.46 3870.2 3822.46C3870.2 3822.46 3860.84 3823.77 3853.98 3830.63C3849.25 3835.36 3852.64 3843.56 3859.31 3843.99C3870.43 3844.71 3888.07 3844.9 3906.6 3841.32C3913.08 3840.07 3917.88 3834.56 3918.27 3827.97L3923.16 3745.73L3953.23 3783.69L3958.25 3781.42Z" fill="url(#paint32_linear_6_523)"/>
<path d="M3794.91 3322.16C3794.91 3322.16 3801.86 3619.18 3802.81 3661.37C3803.75 3703.55 3796.15 3797.04 3753.86 3824.98L3772.26 3838.6C3772.26 3838.6 3795.25 3819.06 3817.72 3781.44C3842.96 3739.18 3850.59 3731.46 3850.59 3731.46L3842.22 3714.31C3838.55 3706.8 3837.47 3698.31 3839.16 3690.13C3848.29 3645.89 3878.77 3498.78 3887.09 3467.1C3896.91 3429.7 3897.6 3379.76 3863.45 3337.95C3829.3 3296.15 3794.91 3322.16 3794.91 3322.16Z" fill="url(#paint33_linear_6_523)"/>
<path d="M3833.96 3851.99C3835.27 3852 3836.38 3851.06 3836.57 3849.77C3837.98 3839.86 3843.84 3800.16 3848.63 3789.88C3854.12 3778.11 3872.06 3728.56 3848.62 3724.35C3848.62 3724.35 3790.35 3809.49 3779.16 3820.97C3767.97 3832.45 3753.86 3824.98 3753.86 3824.98C3753.86 3824.98 3742.96 3828.2 3734.74 3838.7C3730.83 3843.7 3734.47 3851.04 3740.82 3851.1L3780.07 3851.48C3791.47 3851.59 3801.72 3844.66 3805.96 3834.08C3812.87 3816.82 3824.74 3791.51 3838.57 3780.28L3831.38 3849.1C3831.22 3850.64 3832.41 3851.98 3833.96 3851.99Z" fill="url(#paint34_linear_6_523)"/>
<path d="M3746.16 2961.5C3746.16 2961.5 3755 2989.69 3741.41 3036.13L3657.12 3330.49C3655.79 3335.11 3658.29 3339.95 3662.82 3341.58C3688.03 3350.63 3770.92 3376.2 3884.07 3368.4C3889.76 3368.01 3894.54 3363.98 3895.78 3358.4C3903.23 3324.85 3928.67 3210.35 3933.91 3186.82C3953.87 3097.18 3976.15 3000.51 3878.12 2942.06C3832.94 2961.41 3790.81 2972.81 3746.16 2961.5Z" fill="url(#paint35_linear_6_523)"/>
<path d="M3902.19 2665.86C3902.19 2665.86 3998.1 2745.57 4021.9 2854.48C4045.7 2963.39 3881.75 2974.97 3881.75 2974.97C3881.75 2974.97 3859.5 2950.11 3833.07 2958.98C3806.65 2967.84 3831.03 2915.6 3861.94 2915.74C3892.86 2915.88 3878.53 2940.32 3922.27 2920.51C3964.87 2901.21 3991.2 2841.53 3882.51 2751.06C3876.21 2745.82 3871.18 2739.13 3868.15 2731.51C3847.03 2678.36 3863.78 2643.51 3902.19 2665.86Z" fill="url(#paint36_linear_6_523)"/>
<path d="M3302.04 3479.61H3267.83V3849.56H3302.04V3479.61Z" fill="#7D97F4"/>
<path d="M3434.75 3856.7H3135.12V3836.9C3135.12 3835.53 3136.23 3834.43 3137.6 3834.43H3432.28C3433.64 3834.43 3434.75 3835.53 3434.75 3836.9V3856.7Z" fill="#7D97F4"/>
<path d="M3491.41 3465.96C3491.41 3487.46 3473.82 3505.06 3452.31 3505.06H3130.14C3108.64 3505.06 3091.05 3487.46 3091.05 3465.96V3430.61C3091.05 3409.1 3108.64 3391.51 3130.14 3391.51H3452.31C3473.82 3391.51 3491.41 3409.1 3491.41 3430.61V3465.96Z" fill="#7D97F4"/>
<path d="M2981.68 3737.21C2981.68 3737.21 2871.09 3784.85 2877.42 3834.7C2877.42 3834.7 2991.75 3812.78 3012.2 3780.1C3032.66 3747.42 3021.39 3728.5 3021.39 3728.5L2981.68 3737.21Z" fill="url(#paint37_linear_6_523)"/>
<path d="M3008.77 3682.77L3014.38 3731.31C3015.23 3738.63 3011.16 3745.86 3004.22 3748.36C3000.75 3749.61 2996.19 3750.47 2990.21 3750.5C2981.77 3750.54 2974.3 3744.99 2972.05 3736.86L2961.17 3697.6L3008.77 3682.77Z" fill="url(#paint38_linear_6_523)"/>
<path d="M3250.37 3310.55C3250.37 3310.55 3046.95 3301.14 2945.73 3360.17C2844.51 3419.19 2950.86 3702.5 2950.86 3702.5C2950.86 3702.5 2977.31 3708.18 3015.38 3687.84C3015.38 3687.84 2961.04 3480.45 3055.42 3444.36C3161.53 3403.8 3271.27 3413.67 3271.27 3413.67L3250.94 3316.96L3250.37 3310.55Z" fill="url(#paint39_linear_6_523)"/>
<path d="M2899.65 3812.82C2922.78 3807.76 2991.37 3779.33 3001.79 3779.72C3012.2 3780.1 3026.96 3795.71 3026.96 3795.71C3026.96 3795.71 3029.51 3804.24 3022.06 3816.49C3004.38 3830.27 2966.31 3855.57 2922.05 3858.34C2889.49 3860.38 2869.9 3847.43 2858.7 3834.86C2868.51 3825.31 2884.25 3816.2 2899.65 3812.82Z" fill="url(#paint40_linear_6_523)"/>
<path d="M2922.05 3858.34C2966.31 3855.57 3004.38 3830.27 3022.06 3816.49C3017.02 3824.77 3007.43 3834.74 2989.39 3844.93C2944.66 3870.2 2870.73 3866.52 2856.08 3860.83C2844.34 3856.27 2847.97 3845.31 2858.7 3834.86C2869.9 3847.43 2889.49 3860.38 2922.05 3858.34Z" fill="url(#paint41_linear_6_523)"/>
<path d="M3051.25 3770.3C3049.74 3776.03 3033.53 3793.24 3024.17 3802.83C3019.72 3807.39 3013.25 3809.34 3007.03 3807.98C3003.08 3807.12 2998.62 3805.77 2994.77 3803.68C2988.98 3800.54 2986.96 3793.18 2990.14 3787.41L3013.83 3744.33L3051.25 3770.3Z" fill="url(#paint42_linear_6_523)"/>
<path d="M3451.96 3293.49C3451.96 3293.49 3469.72 3419.46 3418.38 3445.2C3367.04 3470.95 3254.44 3487.81 3215.65 3553.14C3176.87 3618.47 3107.21 3746.7 3043.82 3783.55C3043.82 3783.55 3007.62 3771.78 2997.04 3753.97C2997.04 3753.97 3072.28 3556.17 3103.67 3508.09C3130.85 3466.46 3170.6 3406.47 3227.08 3380.53C3243.24 3373.1 3244.51 3355.95 3241.66 3338.39L3236.48 3306.41L3451.96 3293.49Z" fill="url(#paint43_linear_6_523)"/>
<path d="M2976.14 3150.7C3048.12 3171.24 3080.34 2968.68 3080.05 2963.75L3190.4 3092.78C3190.4 3092.78 3124.65 3208.48 3025.36 3220.8C3000.24 3223.91 2978.87 3219.57 2960.95 3211.36C2974.15 3189.73 2977.17 3168.37 2976.14 3150.7Z" fill="url(#paint44_linear_6_523)"/>
<path d="M2842.86 3084.4C2874.22 3071.51 2900.84 3097.23 2900.84 3097.23C2931.92 3129.05 2956.57 3145.11 2976.14 3150.7C2977.17 3168.37 2974.15 3189.73 2960.95 3211.36C2922.17 3193.59 2899.56 3157.67 2890.25 3139.75C2886.89 3133.3 2879.03 3130.57 2872.49 3133.73C2865.84 3136.95 2858.99 3141.85 2858.56 3148.51C2857.71 3161.65 2842.08 3162.43 2841.98 3157.57C2841.89 3152.72 2854.09 3126.77 2854.09 3126.77C2854.09 3126.77 2818.05 3149.89 2804.02 3158.74C2789.99 3167.58 2778.04 3152.98 2778.04 3152.98C2778.04 3152.98 2811.49 3097.29 2842.86 3084.4Z" fill="url(#paint45_linear_6_523)"/>
<path d="M3424.24 2880.4C3424.24 2880.4 3327.51 2814.42 3093.91 2933.76C3093.91 2933.76 3069.86 2964.25 3081.13 2998.63C3092.39 3033.01 3231.09 3219.07 3236.48 3306.41C3236.48 3306.41 3331.3 3362.23 3454.37 3306.89C3454.37 3306.89 3495.65 3076.25 3424.24 2880.4Z" fill="url(#paint46_linear_6_523)"/>
<path d="M3222.83 2796.04L3261.05 2870.94C3264.85 2878.37 3264.05 2887.38 3258.85 2893.9C3248.32 2907.09 3226.35 2924.81 3188.85 2913.39C3177.69 2909.99 3169.16 2900.92 3166.47 2889.57L3146.65 2805.97L3222.83 2796.04Z" fill="url(#paint47_linear_6_523)"/>
<path d="M3495.86 3141.94C3502.41 3096.41 3382.1 3008.17 3382.1 3008.17L3424.24 2880.4C3424.24 2880.4 3653.82 3044.24 3605.54 3178.03C3598.61 3197.21 3588.29 3211.19 3575.7 3221.09C3551.39 3171.23 3518.42 3150.51 3495.86 3141.94Z" fill="url(#paint48_linear_6_523)"/>
<path d="M3328.02 3154.58C3328.02 3154.58 3464.11 3192.59 3492.35 3151.16C3494.26 3148.35 3495.39 3145.26 3495.86 3141.94C3518.42 3150.51 3551.39 3171.23 3575.7 3221.09C3511.09 3271.93 3386.5 3214.94 3352.64 3197.86C3347.08 3195.05 3340.67 3194.5 3334.72 3196.36C3322.68 3200.12 3301.81 3205.95 3290.19 3205.31C3273.18 3204.38 3254.93 3265.84 3225.99 3250.28C3225.99 3250.28 3239.14 3145.28 3328.02 3154.58Z" fill="url(#paint49_linear_6_523)"/>
<path d="M3173.83 2673.64C3172.62 2674.69 3122.2 2762.74 3096.54 2807.63C3088.7 2821.34 3094.57 2838.79 3109.08 2845.01L3120.2 2849.77C3135.39 2856.28 3168.06 2861.74 3180.92 2851.35L3261.97 2765.79C3261.97 2765.79 3201.1 2650.04 3173.83 2673.64Z" fill="url(#paint50_linear_6_523)"/>
<path d="M3284.81 2742.45C3294.75 2736.86 3306.7 2725.55 3297.4 2705.55C3287.94 2685.22 3269.25 2683.46 3257.21 2684.76C3252.34 2685.28 3247.93 2682.19 3246.52 2677.5C3245.71 2674.83 3243.74 2672.47 3239.47 2671.8C3233.72 2670.89 3230.15 2665.01 3231.65 2659.39C3234.53 2648.58 3234.04 2633.9 3216.65 2623.37C3185.81 2604.69 3156.97 2631.82 3148.94 2655.41C3140.91 2678.99 3175.5 2697.34 3197.59 2701.08C3214.39 2703.93 3222.58 2723.3 3225.55 2732.43C3226.49 2735.32 3226.04 2738.46 3224.37 2741L3199.72 2778.45C3206.5 2786.97 3212.51 2795.98 3218.43 2805.1C3220.64 2802.71 3222.58 2800.72 3224.1 2799.33C3234.8 2789.53 3253.83 2794.59 3261.67 2797.29C3264.24 2798.17 3267.04 2797.96 3269.45 2796.71C3277.99 2792.3 3295.22 2779.91 3281.1 2756.48C3278.14 2751.57 3279.82 2745.25 3284.81 2742.45Z" fill="url(#paint51_linear_6_523)"/>
<path d="M3209.46 2821.1C3209.46 2821.1 3225.21 2780.61 3243.12 2782.87C3261.03 2785.13 3274.43 2803.62 3251.31 2822.82C3222.56 2846.7 3209.46 2821.1 3209.46 2821.1Z" fill="url(#paint52_linear_6_523)"/>
<path d="M3154.24 3241.23C3153.99 3241.24 3153.75 3241.25 3153.5 3241.25L2835.56 3240.9C2827.7 3240.89 2821.33 3234.52 2821.34 3226.66C2821.35 3218.79 2827.75 3212.3 2835.59 3212.44L3153.54 3212.79C3161.4 3212.79 3167.76 3219.17 3167.75 3227.03C3167.74 3234.65 3161.76 3240.86 3154.24 3241.23Z" fill="url(#paint53_linear_6_523)"/>
<path d="M2549.73 2952.55H2814.52C2834.06 2952.55 2851.84 2963.82 2860.17 2981.49L2982.58 3241.06H2653.52C2640.93 3241.06 2629.62 3233.37 2624.99 3221.66L2530.07 2981.47C2524.58 2967.59 2534.81 2952.55 2549.73 2952.55Z" fill="url(#paint54_linear_6_523)"/>
<path d="M2736.28 3085.64C2742.02 3103.47 2737.78 3120.78 2726.81 3124.31C2715.85 3127.84 2702.3 3116.25 2696.57 3098.42C2690.83 3080.6 2695.07 3063.28 2706.03 3059.75C2717 3056.22 2730.54 3067.81 2736.28 3085.64Z" fill="#91B3FA"/>
<path d="M2592.66 3923.17C2590.9 3923.17 2589.11 3922.83 2587.39 3922.11C2580.61 3919.29 2577.48 3911.68 2580.4 3905.12L2860.61 3274.48C2863.52 3267.92 2871.38 3264.89 2878.16 3267.7C2884.94 3270.53 2888.07 3278.14 2885.16 3284.7L2604.94 3915.34C2602.77 3920.24 2597.84 3923.17 2592.66 3923.17Z" fill="#91B3FA"/>
<path d="M2908.34 3923.17C2903.16 3923.17 2898.23 3920.24 2896.05 3915.34L2615.84 3284.7C2612.92 3278.14 2616.06 3270.53 2622.83 3267.7C2629.61 3264.88 2637.47 3267.91 2640.39 3274.47L2920.6 3905.12C2923.52 3911.68 2920.39 3919.29 2913.61 3922.11C2911.89 3922.83 2910.1 3923.17 2908.34 3923.17Z" fill="#91B3FA"/>
<path d="M3460.05 3923.17C3458.28 3923.17 3456.49 3922.83 3454.77 3922.11C3447.99 3919.29 3444.86 3911.68 3447.78 3905.12L3727.99 3274.48C3730.91 3267.92 3738.76 3264.89 3745.55 3267.7C3752.32 3270.53 3755.45 3278.14 3752.54 3284.7L3472.32 3915.34C3470.15 3920.24 3465.22 3923.17 3460.05 3923.17Z" fill="#91B3FA"/>
<path d="M3775.72 3923.17C3770.54 3923.17 3765.61 3920.24 3763.44 3915.34L3483.22 3284.7C3480.31 3278.14 3483.44 3270.53 3490.22 3267.7C3496.99 3264.88 3504.85 3267.91 3507.77 3274.47L3787.98 3905.12C3790.9 3911.68 3787.77 3919.29 3780.99 3922.11C3779.27 3922.83 3777.48 3923.17 3775.72 3923.17Z" fill="#91B3FA"/>
<path d="M3808.58 3255C3809.3 3250.87 3808.32 3246.59 3805.93 3243.34C3803.53 3240.09 3799.97 3238.21 3796.2 3238.21H2521.43C2516.49 3238.21 2511.88 3241.03 2509.21 3245.7C2506.55 3250.37 2506.19 3256.24 2508.26 3261.27L2522.08 3294.74C2525.24 3302.4 2532.1 3307.31 2539.64 3307.31H3787.46C3794.47 3307.31 3800.5 3301.74 3801.84 3294.03L3808.58 3255Z" fill="#91B3FA"/>
<defs>
<linearGradient id="paint0_linear_6_523" x1="4390.59" y1="4740.71" x2="1910.15" y2="1660.16" gradientUnits="userSpaceOnUse">
<stop stop-color="#DAE3FE"/>
<stop offset="1" stop-color="#E9EFFD"/>
</linearGradient>
<linearGradient id="paint1_linear_6_523" x1="3261.04" y1="1439.78" x2="1196.61" y2="4180.64" gradientUnits="userSpaceOnUse">
<stop stop-color="#4F52FF"/>
<stop offset="1" stop-color="#4042E2"/>
</linearGradient>
<linearGradient id="paint2_linear_6_523" x1="3261.04" y1="1439.78" x2="1196.61" y2="4180.64" gradientUnits="userSpaceOnUse">
<stop stop-color="#4F52FF"/>
<stop offset="1" stop-color="#4042E2"/>
</linearGradient>
<linearGradient id="paint3_linear_6_523" x1="2649.49" y1="1024.61" x2="2534.57" y2="1930.43" gradientUnits="userSpaceOnUse">
<stop stop-color="#FF928E"/>
<stop offset="1" stop-color="#FE7062"/>
</linearGradient>
<linearGradient id="paint4_linear_6_523" x1="2218.34" y1="2434.56" x2="3142.13" y2="1875.72" gradientUnits="userSpaceOnUse">
<stop stop-color="#09005D"/>
<stop offset="1" stop-color="#1A0F91"/>
</linearGradient>
<linearGradient id="paint5_linear_6_523" x1="2529.76" y1="2434.33" x2="3183.67" y2="1891.94" gradientUnits="userSpaceOnUse">
<stop stop-color="#09005D"/>
<stop offset="1" stop-color="#1A0F91"/>
</linearGradient>
<linearGradient id="paint6_linear_6_523" x1="1782.98" y1="3798.28" x2="1247.92" y2="4369.3" gradientUnits="userSpaceOnUse">
<stop stop-color="#09005D"/>
<stop offset="1" stop-color="#1A0F91"/>
</linearGradient>
<linearGradient id="paint7_linear_6_523" x1="1610.68" y1="3839.43" x2="1657.72" y2="3839.87" gradientUnits="userSpaceOnUse">
<stop stop-color="#FEBBBA"/>
<stop offset="1" stop-color="#FF928E"/>
</linearGradient>
<linearGradient id="paint8_linear_6_523" x1="1830.9" y1="3147.18" x2="1374.43" y2="3753.72" gradientUnits="userSpaceOnUse">
<stop stop-color="#09005D"/>
<stop offset="1" stop-color="#1A0F91"/>
</linearGradient>
<linearGradient id="paint9_linear_6_523" x1="1665.22" y1="3687.91" x2="1130.13" y2="4258.95" gradientUnits="userSpaceOnUse">
<stop stop-color="#09005D"/>
<stop offset="1" stop-color="#1A0F91"/>
</linearGradient>
<linearGradient id="paint10_linear_6_523" x1="1441.16" y1="3835.4" x2="1481.78" y2="3835.78" gradientUnits="userSpaceOnUse">
<stop stop-color="#FEBBBA"/>
<stop offset="1" stop-color="#FF928E"/>
</linearGradient>
<linearGradient id="paint11_linear_6_523" x1="1751.15" y1="3087.16" x2="1294.68" y2="3693.69" gradientUnits="userSpaceOnUse">
<stop stop-color="#09005D"/>
<stop offset="1" stop-color="#1A0F91"/>
</linearGradient>
<linearGradient id="paint12_linear_6_523" x1="-12584.3" y1="-7597.9" x2="-12104.3" y2="-7243.01" gradientUnits="userSpaceOnUse">
<stop stop-color="#FF928E"/>
<stop offset="1" stop-color="#FE7062"/>
</linearGradient>
<linearGradient id="paint13_linear_6_523" x1="1815.97" y1="2613.98" x2="2056.31" y2="2616.26" gradientUnits="userSpaceOnUse">
<stop stop-color="#FEBBBA"/>
<stop offset="1" stop-color="#FF928E"/>
</linearGradient>
<linearGradient id="paint14_linear_6_523" x1="2003.16" y1="2575.47" x2="1838.4" y2="2940.87" gradientUnits="userSpaceOnUse">
<stop stop-color="#FEBBBA"/>
<stop offset="1" stop-color="#FF928E"/>
</linearGradient>
<linearGradient id="paint15_linear_6_523" x1="2056.7" y1="2453.77" x2="2124.98" y2="2350.94" gradientUnits="userSpaceOnUse">
<stop stop-color="#FEBBBA"/>
<stop offset="1" stop-color="#FF928E"/>
</linearGradient>
<linearGradient id="paint16_linear_6_523" x1="-12618.2" y1="-7552.03" x2="-12138.3" y2="-7197.14" gradientUnits="userSpaceOnUse">
<stop stop-color="#FF928E"/>
<stop offset="1" stop-color="#FE7062"/>
</linearGradient>
<linearGradient id="paint17_linear_6_523" x1="1286.82" y1="2949.39" x2="1590.97" y2="2952.28" gradientUnits="userSpaceOnUse">
<stop stop-color="#FEBBBA"/>
<stop offset="1" stop-color="#FF928E"/>
</linearGradient>
<linearGradient id="paint18_linear_6_523" x1="1510.42" y1="2781.44" x2="1625.34" y2="2558.36" gradientUnits="userSpaceOnUse">
<stop stop-color="#FEBBBA"/>
<stop offset="1" stop-color="#FF928E"/>
</linearGradient>
<linearGradient id="paint19_linear_6_523" x1="1673.04" y1="2551.38" x2="1541.59" y2="2469.48" gradientUnits="userSpaceOnUse">
<stop stop-color="#FEBBBA"/>
<stop offset="1" stop-color="#FF928E"/>
</linearGradient>
<linearGradient id="paint20_linear_6_523" x1="1472.42" y1="2383.81" x2="1641.94" y2="2520.34" gradientUnits="userSpaceOnUse">
<stop stop-color="#09005D"/>
<stop offset="1" stop-color="#1A0F91"/>
</linearGradient>
<linearGradient id="paint21_linear_6_523" x1="1638.03" y1="2581.12" x2="1519.76" y2="2507.44" gradientUnits="userSpaceOnUse">
<stop stop-color="#FEBBBA"/>
<stop offset="1" stop-color="#FF928E"/>
</linearGradient>
<linearGradient id="paint22_linear_6_523" x1="1672.52" y1="2756.13" x2="1840.35" y2="3455.41" gradientUnits="userSpaceOnUse">
<stop stop-color="#09005D"/>
<stop offset="1" stop-color="#1A0F91"/>
</linearGradient>
<linearGradient id="paint23_linear_6_523" x1="1557.52" y1="2941.13" x2="1652.61" y2="2941.13" gradientUnits="userSpaceOnUse">
<stop stop-color="#FEBBBA"/>
<stop offset="1" stop-color="#FF928E"/>
</linearGradient>
<linearGradient id="paint24_linear_6_523" x1="3452.59" y1="2391.4" x2="3707.72" y2="2800.27" gradientUnits="userSpaceOnUse">
<stop stop-color="#FEBBBA"/>
<stop offset="1" stop-color="#FF928E"/>
</linearGradient>
<linearGradient id="paint25_linear_6_523" x1="4160.83" y1="2353.76" x2="3903.13" y2="2525.58" gradientUnits="userSpaceOnUse">
<stop stop-color="#09005D"/>
<stop offset="1" stop-color="#1A0F91"/>
</linearGradient>
<linearGradient id="paint26_linear_6_523" x1="4088.58" y1="2382.6" x2="3902.68" y2="2669.9" gradientUnits="userSpaceOnUse">
<stop stop-color="#FF928E"/>
<stop offset="1" stop-color="#FE7062"/>
</linearGradient>
<linearGradient id="paint27_linear_6_523" x1="3766.81" y1="2674.23" x2="3814.64" y2="2568.01" gradientUnits="userSpaceOnUse">
<stop stop-color="#FEBBBA"/>
<stop offset="1" stop-color="#FF928E"/>
</linearGradient>
<linearGradient id="paint28_linear_6_523" x1="3764.35" y1="2416.08" x2="3861.42" y2="2626.24" gradientUnits="userSpaceOnUse">
<stop stop-color="#FEBBBA"/>
<stop offset="1" stop-color="#FF928E"/>
</linearGradient>
<linearGradient id="paint29_linear_6_523" x1="4091.57" y1="2249.89" x2="3833.87" y2="2421.71" gradientUnits="userSpaceOnUse">
<stop stop-color="#09005D"/>
<stop offset="1" stop-color="#1A0F91"/>
</linearGradient>
<linearGradient id="paint30_linear_6_523" x1="3810.02" y1="2394.99" x2="3907.09" y2="2605.14" gradientUnits="userSpaceOnUse">
<stop stop-color="#FEBBBA"/>
<stop offset="1" stop-color="#FF928E"/>
</linearGradient>
<linearGradient id="paint31_linear_6_523" x1="4035.22" y1="3997.1" x2="3678.85" y2="3353.87" gradientUnits="userSpaceOnUse">
<stop stop-color="#FEBBBA"/>
<stop offset="1" stop-color="#FF928E"/>
</linearGradient>
<linearGradient id="paint32_linear_6_523" x1="3958.36" y1="3770.15" x2="3852.41" y2="3769.14" gradientUnits="userSpaceOnUse">
<stop stop-color="#09005D"/>
<stop offset="1" stop-color="#1A0F91"/>
</linearGradient>
<linearGradient id="paint33_linear_6_523" x1="3628.97" y1="3519.9" x2="4169.38" y2="3698.38" gradientUnits="userSpaceOnUse">
<stop stop-color="#FEBBBA"/>
<stop offset="1" stop-color="#FF928E"/>
</linearGradient>
<linearGradient id="paint34_linear_6_523" x1="3859.95" y1="3788.35" x2="3733.66" y2="3787.15" gradientUnits="userSpaceOnUse">
<stop stop-color="#09005D"/>
<stop offset="1" stop-color="#1A0F91"/>
</linearGradient>
<linearGradient id="paint35_linear_6_523" x1="4236.35" y1="2843.37" x2="3932.16" y2="3076.58" gradientUnits="userSpaceOnUse">
<stop stop-color="#09005D"/>
<stop offset="1" stop-color="#1A0F91"/>
</linearGradient>
<linearGradient id="paint36_linear_6_523" x1="4000.99" y1="3004.73" x2="3490.19" y2="2247.37" gradientUnits="userSpaceOnUse">
<stop stop-color="#FEBBBA"/>
<stop offset="1" stop-color="#FF928E"/>
</linearGradient>
<linearGradient id="paint37_linear_6_523" x1="2915.72" y1="3649.93" x2="2949.02" y2="3778.93" gradientUnits="userSpaceOnUse">
<stop stop-color="#09005D"/>
<stop offset="1" stop-color="#1A0F91"/>
</linearGradient>
<linearGradient id="paint38_linear_6_523" x1="3017.63" y1="3720.89" x2="2958.89" y2="3707.89" gradientUnits="userSpaceOnUse">
<stop stop-color="#FEBBBA"/>
<stop offset="1" stop-color="#FF928E"/>
</linearGradient>
<linearGradient id="paint39_linear_6_523" x1="3133.32" y1="3583.46" x2="2961.14" y2="3178.37" gradientUnits="userSpaceOnUse">
<stop stop-color="#09005D"/>
<stop offset="1" stop-color="#1A0F91"/>
</linearGradient>
<linearGradient id="paint40_linear_6_523" x1="2923.99" y1="3774.74" x2="3069.24" y2="4087.29" gradientUnits="userSpaceOnUse">
<stop stop-color="#09005D"/>
<stop offset="1" stop-color="#1A0F91"/>
</linearGradient>
<linearGradient id="paint41_linear_6_523" x1="3013.47" y1="3855.27" x2="2855.53" y2="3820.32" gradientUnits="userSpaceOnUse">
<stop stop-color="#4F52FF"/>
<stop offset="1" stop-color="#4042E2"/>
</linearGradient>
<linearGradient id="paint42_linear_6_523" x1="3048.11" y1="3784.5" x2="2992.98" y2="3772.29" gradientUnits="userSpaceOnUse">
<stop stop-color="#FEBBBA"/>
<stop offset="1" stop-color="#FF928E"/>
</linearGradient>
<linearGradient id="paint43_linear_6_523" x1="3184.7" y1="3777.71" x2="3274.47" y2="3306.9" gradientUnits="userSpaceOnUse">
<stop stop-color="#09005D"/>
<stop offset="1" stop-color="#1A0F91"/>
</linearGradient>
<linearGradient id="paint44_linear_6_523" x1="3360.17" y1="2868.15" x2="2817.72" y2="3288.93" gradientUnits="userSpaceOnUse">
<stop stop-color="#FF928E"/>
<stop offset="1" stop-color="#FE7062"/>
</linearGradient>
<linearGradient id="paint45_linear_6_523" x1="2978.13" y1="3160.34" x2="2785.83" y2="3117.78" gradientUnits="userSpaceOnUse">
<stop stop-color="#FEBBBA"/>
<stop offset="1" stop-color="#FF928E"/>
</linearGradient>
<linearGradient id="paint46_linear_6_523" x1="2736.53" y1="3452.38" x2="3253.63" y2="3132.99" gradientUnits="userSpaceOnUse">
<stop stop-color="#FF928E"/>
<stop offset="1" stop-color="#FE7062"/>
</linearGradient>
<linearGradient id="paint47_linear_6_523" x1="3266.69" y1="2868.33" x2="3139.1" y2="2840.09" gradientUnits="userSpaceOnUse">
<stop stop-color="#FEBBBA"/>
<stop offset="1" stop-color="#FF928E"/>
</linearGradient>
<linearGradient id="paint48_linear_6_523" x1="2767.78" y1="3502.98" x2="3284.89" y2="3183.59" gradientUnits="userSpaceOnUse">
<stop stop-color="#FF928E"/>
<stop offset="1" stop-color="#FE7062"/>
</linearGradient>
<linearGradient id="paint49_linear_6_523" x1="3368.01" y1="3187.25" x2="3874.72" y2="3896.79" gradientUnits="userSpaceOnUse">
<stop stop-color="#FEBBBA"/>
<stop offset="1" stop-color="#FF928E"/>
</linearGradient>
<linearGradient id="paint50_linear_6_523" x1="3196.07" y1="2704.8" x2="3131.97" y2="3005.49" gradientUnits="userSpaceOnUse">
<stop stop-color="#FEBBBA"/>
<stop offset="1" stop-color="#FF928E"/>
</linearGradient>
<linearGradient id="paint51_linear_6_523" x1="3284.72" y1="2785.07" x2="3157" y2="2637.53" gradientUnits="userSpaceOnUse">
<stop stop-color="#09005D"/>
<stop offset="1" stop-color="#1A0F91"/>
</linearGradient>
<linearGradient id="paint52_linear_6_523" x1="3221.29" y1="2991.41" x2="3237.18" y2="2804.36" gradientUnits="userSpaceOnUse">
<stop stop-color="#FEBBBA"/>
<stop offset="1" stop-color="#FF928E"/>
</linearGradient>
<linearGradient id="paint53_linear_6_523" x1="3208.18" y1="3156.75" x2="2955.78" y2="3239.53" gradientUnits="userSpaceOnUse">
<stop stop-color="#09005D"/>
<stop offset="1" stop-color="#1A0F91"/>
</linearGradient>
<linearGradient id="paint54_linear_6_523" x1="2861.46" y1="2991.26" x2="2679.7" y2="3183.38" gradientUnits="userSpaceOnUse">
<stop stop-color="#09005D"/>
<stop offset="1" stop-color="#1A0F91"/>
</linearGradient>
</defs>
</svg>
