<svg width="5000" height="5000" viewBox="0 0 5000 5000" fill="none" xmlns="http://www.w3.org/2000/svg">
<path d="M3711.4 3013.43C3669.33 2917.75 3588.55 2837.92 3491.52 2798.62C3390.45 2757.69 3274.4 2772.59 3167.94 2758.88C3075.48 2746.97 3008.77 2705.7 2953.56 2632.31C2900.67 2562 2853.24 2484.12 2766.75 2451.6C2698.41 2425.9 2620.71 2433.02 2552.79 2459.8C2427.64 2509.15 2333.1 2614.08 2253.49 2718.61C2180.8 2814.05 2121.52 2918.55 1987.07 2921.96C1852.53 2925.38 1724.46 2848.63 1589 2868.97C1409.97 2895.84 1260.87 3044.88 1229.63 3222.31C1200.35 3388.59 1273.82 3549.87 1400.05 3644.63H3569.72C3728.78 3475.9 3812.24 3242.81 3711.4 3013.43Z" fill="#F7F0E3"/>
<path d="M1750.05 3644.64H1756.02C1797.47 3599.08 1829.94 3543.8 1850.58 3482.43C1883.99 3383.11 1882.58 3278.87 1846.61 3188.92C1828.44 3143.47 1802.19 3101.1 1776.81 3060.13C1751.07 3018.58 1724.45 2975.61 1706.38 2929.57C1698.91 2910.53 1693.4 2890.09 1690.08 2869.24C1688.58 2869.04 1687.08 2868.88 1685.59 2868.7C1688.92 2890.3 1694.59 2911.47 1702.32 2931.17C1720.53 2977.58 1747.25 3020.71 1773.1 3062.43C1798.38 3103.24 1824.53 3145.44 1842.56 3190.54C1878.14 3279.53 1879.52 3382.7 1846.44 3481.04C1825.55 3543.17 1792.4 3598.97 1750.05 3644.64Z" fill="white"/>
<path d="M3559.24 3455.42C3603.94 3464.94 3647.02 3473.49 3688.68 3478.86C3689.4 3477.48 3690.09 3476.1 3690.8 3474.72C3648.79 3469.38 3605.31 3460.77 3560.15 3451.15C3491.39 3436.5 3416.97 3420.64 3343.16 3420.64C3297.45 3420.64 3251.99 3426.72 3208.25 3442.93C3191.68 3449.07 3175.71 3456.86 3160.51 3466.14C3121.02 3449.31 3081.32 3430.93 3041.99 3410.76C3070.52 3389.26 3099.36 3368.21 3128.51 3347.86C3344.88 3196.77 3544.56 3111.12 3737.47 3086.81C3737.09 3085.39 3736.68 3083.98 3736.28 3082.57C3542.85 3107.08 3342.73 3192.95 3126.01 3344.28C3096.25 3365.06 3066.8 3386.58 3037.68 3408.54C2993.45 3385.69 2949.75 3360.58 2907.46 3332.87C2830.75 3282.6 2739.5 3210.86 2659.81 3115.53C2968.62 3080.88 3283.02 3037.23 3539.77 2865.63C3549.52 2859.12 3560.32 2851.43 3571.51 2842.72C3570.27 2841.84 3569.02 2840.97 3567.77 2840.11C3557.05 2848.41 3546.71 2855.75 3537.35 2862C3280.66 3033.56 2965.68 3076.87 2656.47 3111.51C2600.16 3043.4 2549.84 2963.4 2514.88 2870.78C2460.42 2726.5 2463.29 2584.92 2522.77 2482.34C2525.35 2477.88 2528.08 2473.5 2530.89 2469.15C2528.41 2470.29 2525.95 2471.48 2523.49 2472.66C2521.95 2475.14 2520.45 2477.63 2518.99 2480.15C2458.86 2583.88 2455.87 2726.81 2510.8 2872.32C2545.57 2964.44 2595.44 3044.12 2651.29 3112.09C2633.39 3114.09 2615.49 3116.07 2597.64 3118.04C2533.25 3125.14 2466.66 3132.49 2402.01 3140.81C2378.41 3143.85 2354.41 3147.4 2330.53 3151.84C2279.34 3043.8 2223.11 2938.39 2150.42 2848C2149.38 2849.04 2148.32 2850.04 2147.28 2851.06C2219.34 2940.77 2275.22 3045.39 2326.1 3152.67C2221.95 3172.53 2120.81 3209.87 2066.81 3296.79C2016.38 3377.96 2016.42 3490.16 2066.95 3630.27C2068.69 3635.11 2070.49 3639.89 2072.32 3644.64H2076.99C2074.99 3639.45 2073 3634.2 2071.05 3628.79C2021 3489.99 2020.83 3379.07 2070.52 3299.09C2123.88 3213.21 2224.46 3176.37 2328.03 3156.74C2346.1 3194.97 2363.56 3233.51 2380.91 3271.82L2382.8 3275.99C2443.06 3409 2505.38 3537.37 2586.98 3644.64H2592.42C2510.08 3537.17 2447.41 3408.04 2386.78 3274.19L2384.89 3270.02C2367.69 3232.04 2350.38 3193.83 2332.47 3155.92C2355.89 3151.59 2379.42 3148.12 2402.57 3145.14C2467.19 3136.83 2533.75 3129.48 2598.12 3122.37C2616.92 3120.3 2635.76 3118.22 2654.62 3116.11C2735.06 3212.93 2827.47 3285.68 2905.06 3336.52C2946.9 3363.93 2990.1 3388.8 3033.82 3411.46C2959.6 3467.6 2887.41 3526.66 2816.92 3584.33C2792.52 3604.3 2767.83 3624.47 2742.95 3644.64H2749.86C2773.33 3625.6 2796.64 3606.55 2819.69 3587.7C2890.67 3529.63 2963.37 3470.15 3038.12 3413.68C3077.23 3433.8 3116.71 3452.15 3155.99 3468.95C3102.25 3503.13 3058.46 3556.05 3031.98 3620.32C3028.66 3628.36 3025.77 3636.48 3023.09 3644.64H3027.68C3030.21 3637.05 3032.92 3629.48 3036.01 3621.98C3062.57 3557.54 3106.73 3504.67 3160.88 3471.04C3270.68 3517.68 3378.6 3552.31 3471.32 3579.75L3474.81 3580.78C3513.89 3592.33 3553.86 3604.17 3589.21 3623.19C3590.2 3622.07 3591.19 3620.94 3592.17 3619.81C3556.25 3600.32 3515.69 3588.32 3476.05 3576.59L3472.56 3575.56C3380.78 3548.4 3274.1 3514.2 3165.47 3468.24C3179.63 3459.82 3194.44 3452.71 3209.77 3447.02C3322.96 3405.07 3448.49 3431.82 3559.24 3455.42Z" fill="white"/>
<path d="M1410.99 3172.8C1430.26 3251.68 1421.66 3336.87 1387.4 3406.52C1364.96 3452.15 1332.55 3493.45 1292.63 3528.92C1293.43 3530.16 1294.24 3531.38 1295.04 3532.61C1335.61 3496.67 1368.54 3454.76 1391.32 3408.45C1426.03 3337.89 1434.74 3251.62 1415.23 3171.77C1399.98 3109.37 1369.34 3056.53 1327 3018.29C1326.05 3019.4 1325.12 3020.51 1324.18 3021.63C1365.82 3059.28 1395.97 3111.33 1410.99 3172.8Z" fill="white"/>
<path d="M2398.46 2173.57C2436.47 2212.41 2453.5 2277.84 2432.55 2338.17C2412.26 2396.58 2367.77 2444.97 2314.33 2476.07C2271.33 2501.1 2215.24 2514.9 2172.95 2488.7C2141.35 2469.11 2124.96 2430.69 2124.05 2393.52C2123.14 2356.35 2135.64 2320.13 2151.09 2286.32C2172.86 2238.65 2202.17 2192.42 2245.83 2163.43C2306.01 2123.48 2361.93 2136.24 2398.46 2173.57Z" fill="#F7F0E3"/>
<path d="M1894.64 1492.6H1579.91V1352H1894.64V1492.6ZM1586.45 1486.06H1888.09V1358.54H1586.45V1486.06Z" fill="#E9DDCA"/>
<path d="M1689.89 1627.06H1375.16V1486.46H1689.89V1627.06ZM1381.71 1620.51H1683.35V1493H1381.71V1620.51Z" fill="#E9DDCA"/>
<path d="M3685.38 1776.88C3665.01 1709.11 3629.16 1646.9 3577.85 1590.02C3526.44 1533.14 3456.31 1486.18 3367.48 1449.05C3278.66 1411.91 3165.79 1393.34 3028.89 1393.34C2919.68 1393.34 2808.39 1408.07 2695 1437.52C2581.51 1467.08 2483.07 1509.13 2399.57 1563.77L2508.25 1862.16L2450 1909.35L2534.48 1934.17C2617.88 1890.53 2693.85 1858.83 2762.41 1839.09C2830.86 1819.45 2903.59 1809.64 2980.71 1809.64C3057.73 1809.64 3116.05 1828.21 3155.65 1865.34C3195.26 1902.59 3215.01 1947.3 3215.01 1999.8C3215.01 2063.19 3194.63 2119.43 3154.08 2168.63C3113.33 2217.82 3068.39 2267.55 3019.17 2317.81C2985 2352.71 2951.77 2388.78 2919.68 2425.92C2887.6 2463.16 2859.18 2502.97 2834.62 2545.65C2809.95 2588.23 2790.2 2634.12 2775.26 2683.31C2760.21 2732.51 2752.79 2787.68 2752.79 2848.83C2752.79 2868.57 2753.21 2892.05 2754.36 2919.37C2754.55 2924.41 2754.82 2929.32 2755.12 2934.17H2675.25L2762.41 2993.11H3186.17C3183.97 2979.98 3182.93 2964.72 3182.93 2947.22C3182.93 2929.72 3182.93 2916.59 3182.93 2907.84C3182.93 2870.71 3190.45 2834.1 3205.4 2798.03C3220.34 2761.96 3239.15 2727.6 3261.62 2694.73C3284.09 2661.97 3309.17 2630.81 3337.08 2601.36C3364.87 2571.8 3391.63 2543.94 3417.34 2517.69C3451.51 2482.8 3486.83 2445.66 3523.2 2406.28C3559.57 2366.91 3591.75 2325.5 3619.55 2281.75C3647.35 2238 3670.34 2190.51 3688.52 2139.07C3706.71 2087.74 3715.9 2031.5 3715.9 1970.25C3715.9 1909.1 3705.66 1844.64 3685.38 1776.88Z" fill="#102048"/>
<path d="M2891 1788.82C2814.78 1788.82 2742.9 1798.32 2675.25 1817.33C2607.5 1836.43 2532.42 1867.11 2450 1909.35L2316.67 1550.87C2399.19 1497.99 2496.48 1457.3 2608.64 1428.69C2720.69 1400.19 2830.69 1385.94 2938.61 1385.94C3073.9 1385.94 3185.44 1403.91 3273.23 1439.85C3361.02 1475.79 3430.32 1521.23 3481.13 1576.28C3531.84 1631.32 3567.26 1691.53 3587.4 1757.11C3607.44 1822.7 3617.56 1885.08 3617.56 1944.25C3617.56 2003.53 3608.47 2057.96 3590.5 2107.64C3572.53 2157.42 3549.81 2203.38 3522.34 2245.72C3494.86 2288.07 3463.05 2328.14 3427.11 2366.25C3391.17 2404.36 3356.27 2440.3 3322.49 2474.07C3297.09 2499.48 3270.65 2526.43 3243.18 2555.04C3215.6 2583.54 3190.81 2613.7 3168.61 2645.41C3146.4 2677.22 3127.81 2710.47 3113.04 2745.38C3098.28 2780.29 3090.84 2815.71 3090.84 2851.65C3090.84 2860.12 3090.84 2872.82 3090.84 2889.76C3090.84 2906.7 3091.87 2921.47 3094.04 2934.17H2675.25C2670.92 2913 2668.33 2889.24 2667.3 2862.81C2666.16 2836.37 2665.75 2813.65 2665.75 2794.54C2665.75 2735.36 2673.08 2681.97 2687.95 2634.36C2702.72 2586.75 2722.24 2542.34 2746.62 2501.13C2770.89 2459.82 2798.98 2421.29 2830.68 2385.25C2862.39 2349.31 2895.23 2314.4 2929 2280.63C2977.65 2231.99 3022.06 2183.86 3062.34 2136.25C3102.41 2088.64 3122.55 2034.21 3122.55 1972.86C3122.55 1922.05 3103.03 1878.78 3063.89 1842.73C3024.74 1806.79 2967.11 1788.82 2891 1788.82Z" fill="#2C4EA3"/>
<path d="M3215.17 3404.44C3215.17 3480.85 3190.44 3539.8 3140.97 3581.39C3091.5 3623.06 3035.6 3643.81 2973.18 3643.81C2910.67 3643.81 2854.76 3623.06 2805.3 3581.39C2755.92 3539.8 2731.18 3480.85 2731.18 3404.44C2731.18 3328.13 2755.92 3269.17 2805.3 3227.5C2881.44 3163.24 2994.09 3148.93 3083.24 3194.03C3162.34 3234.04 3215.17 3315.31 3215.17 3404.44Z" fill="#102048"/>
<path d="M3132.27 3404.44C3132.27 3480.84 3107.54 3539.8 3058.07 3581.39C3008.61 3623.06 2952.71 3643.81 2890.28 3643.81C2827.77 3643.81 2771.87 3623.06 2722.4 3581.39C2673.02 3539.8 2648.29 3480.84 2648.29 3404.44C2648.29 3328.13 2673.02 3269.17 2722.4 3227.5C2771.87 3185.91 2827.77 3165.08 2890.28 3165.08C2952.71 3165.08 3008.61 3185.91 3058.07 3227.5C3107.54 3269.17 3132.27 3328.13 3132.27 3404.44Z" fill="#2C4EA3"/>
<path d="M1877.74 2321.27C1882.38 2296.5 1866.06 2272.65 1841.29 2268.01C1816.51 2263.37 1792.67 2279.69 1788.03 2304.46C1783.38 2329.24 1799.7 2353.08 1824.48 2357.72C1849.25 2362.37 1873.1 2346.05 1877.74 2321.27Z" fill="#D3DFFF"/>
<path d="M1899.57 2407.07C1902.18 2393.13 1892.92 2379.7 1878.89 2377.07C1864.86 2374.44 1851.36 2383.61 1848.75 2397.54C1846.14 2411.48 1855.4 2424.9 1869.43 2427.53C1883.47 2430.16 1896.96 2421 1899.57 2407.07Z" fill="#D3DFFF"/>
<path d="M1847.31 2210.2C1917.48 2140.03 1917.48 2026.26 1847.31 1956.08C1777.14 1885.91 1663.37 1885.91 1593.2 1956.08C1523.03 2026.26 1523.03 2140.03 1593.2 2210.2C1663.37 2280.37 1777.14 2280.37 1847.31 2210.2Z" fill="#D3DFFF"/>
<path d="M1651.27 2105.78C1663.78 2105.78 1673.91 2095.65 1673.91 2083.14C1673.91 2070.64 1663.78 2060.51 1651.27 2060.51C1638.77 2060.51 1628.63 2070.64 1628.63 2083.14C1628.63 2095.65 1638.77 2105.78 1651.27 2105.78Z" fill="white"/>
<path d="M1720.27 2105.78C1732.77 2105.78 1742.91 2095.65 1742.91 2083.14C1742.91 2070.64 1732.77 2060.51 1720.27 2060.51C1707.77 2060.51 1697.63 2070.64 1697.63 2083.14C1697.63 2095.65 1707.77 2105.78 1720.27 2105.78Z" fill="white"/>
<path d="M1789.27 2105.78C1801.77 2105.78 1811.9 2095.65 1811.9 2083.14C1811.9 2070.64 1801.77 2060.51 1789.27 2060.51C1776.76 2060.51 1766.63 2070.64 1766.63 2083.14C1766.63 2095.65 1776.76 2105.78 1789.27 2105.78Z" fill="white"/>
<path d="M1591.55 3553.86L1608.34 3618.58C1612.72 3635.46 1629.04 3646.87 1647.09 3645.64C1702.14 3641.9 1816.52 3628.41 1882.16 3580.03L1863.5 3486.75C1773.24 3481.65 1688.83 3486.67 1615.74 3511.27C1597.44 3517.44 1586.86 3535.78 1591.55 3553.86Z" fill="#102048"/>
<path d="M1696.75 3605.38C1695.79 3605.38 1694.92 3604.75 1694.65 3603.79L1672.1 3523.07C1671.78 3521.91 1672.46 3520.71 1673.62 3520.38C1674.78 3520.06 1675.98 3520.74 1676.31 3521.9L1698.85 3602.61C1699.17 3603.77 1698.5 3604.98 1697.33 3605.3C1697.14 3605.36 1696.94 3605.38 1696.75 3605.38Z" fill="white"/>
<path d="M1745.47 3594.47C1744.51 3594.47 1743.64 3593.84 1743.37 3592.88L1720.82 3512.16C1720.5 3511 1721.18 3509.8 1722.34 3509.48C1723.51 3509.15 1724.7 3509.83 1725.03 3510.99L1747.57 3591.71C1747.89 3592.87 1747.22 3594.07 1746.05 3594.39C1745.86 3594.45 1745.66 3594.47 1745.47 3594.47Z" fill="white"/>
<path d="M1802.05 3203.99L1592.27 3266.25L1748.06 3479.71L1971.72 3497.5L2280.22 3367.05L2162.99 3190.64L1802.05 3203.99Z" fill="#FBC343"/>
<path d="M2060.67 3233.63C2521.36 3097.26 2595.4 3504.41 1876.6 3578.53C1851.21 3549.96 1821.54 3500.39 1809.76 3458.95L2189.35 3283.54L2060.67 3233.63Z" fill="#FBC343"/>
<path d="M2080.24 3525.44C2058.7 3518.54 2038.05 3504.91 2038.05 3504.91L1964.01 3528.13L1980.98 3608.67L2057.89 3624.3C2081.32 3581.45 2082.69 3546.26 2080.24 3525.44Z" fill="#F9B384"/>
<path d="M1811.41 3461.78L1808.12 3456.12C1887.31 3410.1 2090.15 3299.54 2262.96 3266.93L2264.18 3273.36C2092.36 3305.78 1890.3 3415.93 1811.41 3461.78Z" fill="#E49B31"/>
<path d="M1802.05 3203.99C1373.24 3122.46 1262.18 3534.55 1980.98 3608.67C2006.37 3580.1 2026.27 3546.35 2038.05 3504.91C1927.64 3431.03 1804.18 3360.81 1668.88 3293.92L1802.05 3203.99Z" fill="#FBC343"/>
<path d="M2036.29 3507.67C2015.9 3494.69 1994.64 3480.96 1972.14 3466.43C1859.18 3393.5 1731.14 3310.83 1622.37 3263.69L1624.97 3257.69C1734.24 3305.04 1862.51 3387.86 1975.69 3460.93C1998.18 3475.46 2019.43 3489.18 2039.81 3502.15L2036.29 3507.67Z" fill="#E49B31"/>
<path d="M1487.43 3408.32L1481.71 3405.15C1497.8 3376.01 1523.58 3356.36 1558.33 3346.73L1560.08 3353.04C1526.62 3362.31 1502.86 3380.39 1487.43 3408.32Z" fill="#E49B31"/>
<path d="M2382.43 3383.51C2367 3355.58 2343.24 3337.5 2309.78 3328.23L2311.53 3321.93C2346.28 3331.55 2372.06 3351.2 2388.16 3380.34L2382.43 3383.51Z" fill="#E49B31"/>
<path d="M1940.82 3605.05L1936.04 3600.59C1970.34 3563.85 1991.41 3525.07 2000.45 3482.02L2006.85 3483.37C1997.56 3527.61 1975.96 3567.42 1940.82 3605.05Z" fill="#E49B31"/>
<path d="M2294.1 3501.45C2239.16 3467.51 2132.66 3526.16 2105.92 3529.12C2098.13 3529.98 2089.11 3528.28 2080.24 3525.44C2082.69 3546.26 2081.32 3581.45 2057.89 3624.3L2070.96 3626.96C2070.96 3626.96 2161.27 3660.06 2257.08 3640.79C2345.52 3623 2337.29 3528.13 2294.1 3501.45Z" fill="#102048"/>
<path d="M2219.22 3612.47C2219 3612.47 2218.78 3612.44 2218.56 3612.37C2217.41 3612.01 2216.77 3610.78 2217.14 3609.63C2223.66 3588.97 2226.51 3548.31 2207.6 3521C2206.92 3520.01 2207.17 3518.65 2208.16 3517.97C2209.14 3517.28 2210.51 3517.52 2211.19 3518.52C2230.99 3547.11 2228.08 3589.46 2221.29 3610.95C2221 3611.88 2220.14 3612.47 2219.22 3612.47Z" fill="white"/>
<path d="M2176.13 3620.65C2175.91 3620.65 2175.69 3620.62 2175.47 3620.55C2174.33 3620.19 2173.69 3618.96 2174.05 3617.82C2180.58 3597.15 2183.43 3556.49 2164.52 3529.18C2163.83 3528.19 2164.08 3526.83 2165.07 3526.15C2166.06 3525.46 2167.42 3525.71 2168.11 3526.7C2187.9 3555.29 2185 3597.64 2178.21 3619.13C2177.92 3620.06 2177.06 3620.65 2176.13 3620.65Z" fill="white"/>
<path d="M1726.19 2672.64C1726.19 2672.64 1834.18 2580.81 1830.18 2563.35C1827.33 2550.88 1796.73 2569.17 1796.73 2569.17C1796.73 2569.17 1839.64 2518.27 1837.45 2512.09C1833.56 2501.04 1803.88 2521.63 1803.88 2521.63C1803.88 2521.63 1823.94 2492.76 1814.35 2488.06C1804.76 2483.36 1783.86 2501.15 1783.86 2501.15C1783.86 2501.15 1796.07 2485.12 1790.33 2480.91C1784.6 2476.71 1759.84 2494 1759.84 2494C1759.84 2494 1768.72 2473.79 1749.85 2481.45C1730.98 2489.11 1598.66 2610.54 1598.66 2610.54L1726.19 2672.64Z" fill="#F9B384"/>
<path d="M1770.37 2563.72C1769.85 2563.72 1769.32 2563.53 1768.9 2563.15C1750.36 2546.21 1742.19 2542.1 1721.74 2535.81C1720.59 2535.45 1719.94 2534.23 1720.3 2533.08C1720.65 2531.93 1721.87 2531.28 1723.02 2531.64C1744.21 2538.15 1752.68 2542.41 1771.85 2559.92C1772.74 2560.74 1772.8 2562.12 1771.99 2563.01C1771.55 2563.48 1770.96 2563.72 1770.37 2563.72Z" fill="#E28B6D"/>
<path d="M1737.84 2613.53C1737.73 2613.53 1737.63 2613.52 1737.53 2613.51C1736.34 2613.34 1735.51 2612.24 1735.67 2611.04C1737.8 2595.86 1742.58 2586.37 1750.29 2582.03C1756.88 2578.33 1765.46 2578.71 1775.78 2583.16C1776.89 2583.64 1777.4 2584.93 1776.92 2586.03C1776.45 2587.14 1775.16 2587.65 1774.05 2587.17C1765.05 2583.28 1757.77 2582.83 1752.43 2585.84C1746.07 2589.41 1741.89 2598.09 1739.99 2611.65C1739.84 2612.74 1738.91 2613.53 1737.84 2613.53Z" fill="#E28B6D"/>
<path d="M1732.74 2521.72C1732.16 2521.72 1731.58 2521.49 1731.15 2521.04C1730.33 2520.16 1730.37 2518.78 1731.25 2517.95L1758.35 2492.41C1759.22 2491.58 1760.6 2491.63 1761.43 2492.5C1762.26 2493.38 1762.21 2494.76 1761.34 2495.59L1734.24 2521.13C1733.82 2521.53 1733.28 2521.72 1732.74 2521.72Z" fill="#E28B6D"/>
<path d="M1757.83 2530.45C1757.29 2530.45 1756.74 2530.25 1756.32 2529.84C1755.45 2529 1755.42 2527.62 1756.26 2526.75L1782.29 2499.63C1783.12 2498.76 1784.5 2498.73 1785.37 2499.57C1786.24 2500.41 1786.27 2501.79 1785.43 2502.66L1759.4 2529.78C1758.98 2530.22 1758.4 2530.45 1757.83 2530.45Z" fill="#E28B6D"/>
<path d="M1783.46 2545.72C1782.93 2545.72 1782.4 2545.52 1781.98 2545.13C1781.09 2544.31 1781.05 2542.93 1781.87 2542.05L1802.29 2520.14C1803.11 2519.26 1804.49 2519.21 1805.37 2520.03C1806.25 2520.85 1806.3 2522.23 1805.48 2523.12L1785.06 2545.02C1784.63 2545.48 1784.05 2545.72 1783.46 2545.72Z" fill="#E28B6D"/>
<path d="M2134.14 3286.87L1739.29 3302.14L1695.66 2942.19C1695.66 2942.19 1827.84 2816.82 1878.7 2770.64L1964.55 2766.24C2230.93 2887.32 2187.31 3038.54 2134.14 3286.87Z" fill="#3A6BEA"/>
<path d="M1964.55 2766.24C1964.55 2766.24 2269.3 2792.3 2365.38 3001.09C2459.39 3205.4 2073.06 3278.14 2073.06 3278.14L1964.55 2766.24Z" fill="#3A6BEA"/>
<path d="M1616.21 2810.98L1742.14 2657.73L1624.38 2586.37C1575.25 2620.52 1480.26 2697.89 1399.75 2785.5C1381.98 2804.84 1368.11 2827.42 1361.11 2852.29C1355.15 2873.52 1354.07 2894.48 1357.42 2915C1366.16 2968.5 1408.24 3009.79 1464.42 3016.37C1512.39 3021.98 1695.65 3007.64 1844 2964.01L1887.63 2795.62C1865.21 2782.89 1698.58 2780.69 1616.21 2810.98Z" fill="#3A6BEA"/>
<g opacity="0.8">
<path d="M2218.88 2849.1C2219.53 2848.95 2220.19 2848.8 2220.85 2848.65C2219.47 2847.83 2218.09 2847.04 2216.71 2846.24C2194.37 2851.38 2171.33 2856.64 2148.62 2859.38C2134.96 2861.02 2089.36 2864.03 2076.03 2833.64C2069.39 2818.53 2074.41 2801.71 2081.91 2789.91C2080.82 2789.59 2079.73 2789.29 2078.65 2788.98C2070.96 2801.48 2066.03 2819.02 2073.03 2834.96C2087.26 2867.42 2134.79 2864.34 2149.01 2862.62C2172.38 2859.81 2196.02 2854.37 2218.88 2849.1Z" fill="white"/>
<path d="M2361.1 3084.58C2346.54 3078.96 2331.5 3073.14 2315.68 3074.63C2287.95 3077.26 2264.22 3104.68 2262.78 3135.77C2261.79 3156.97 2269.89 3179.19 2285.33 3198.73C2286.26 3198.15 2287.19 3197.56 2288.11 3196.97C2273.02 3177.99 2265.1 3156.43 2266.05 3135.93C2267.41 3106.4 2289.82 3080.37 2315.99 3077.89C2331.03 3076.5 2345.06 3081.9 2359.92 3087.63C2365.22 3089.68 2370.61 3091.75 2376.09 3093.5C2376.37 3092.45 2376.64 3091.39 2376.9 3090.33C2371.56 3088.61 2366.29 3086.59 2361.1 3084.58Z" fill="white"/>
<path d="M1591.9 2980.52C1572.88 2964.78 1543.31 2960.58 1510.81 2968.98C1481.84 2976.47 1456.99 2991.31 1439.91 3010.96C1441.03 3011.32 1442.13 3011.73 1443.27 3012.06C1459.88 2993.42 1483.81 2979.34 1511.63 2972.15C1543.1 2964 1571.61 2967.98 1589.82 2983.04C1598.48 2990.19 1604.6 2999.49 1609.04 3009.52C1610.17 3009.39 1611.3 3009.26 1612.43 3009.13C1607.77 2998.34 1601.28 2988.27 1591.9 2980.52Z" fill="white"/>
<path d="M1419.9 2764.09C1455.55 2755.24 1490.34 2742.79 1522.43 2724.31C1534.55 2717.33 1548.24 2708.42 1557.87 2695.35C1568.12 2681.44 1571.52 2664.88 1566.98 2651.05C1565.2 2645.63 1562.04 2640.87 1558.1 2637.05C1557.27 2637.73 1556.42 2638.42 1555.58 2639.12C1559.26 2642.62 1562.21 2647.03 1563.87 2652.08C1568.08 2664.9 1564.85 2680.35 1555.24 2693.41C1545.97 2706 1532.63 2714.66 1520.8 2721.48C1490.53 2738.91 1457.8 2750.97 1424.17 2759.68C1422.74 2761.14 1421.32 2762.62 1419.9 2764.09Z" fill="white"/>
</g>
<path d="M1992.45 2686.22L1992.39 2691.8L1991.51 2778.59L1991.4 2787.99C1991.23 2802.71 1985.2 2816.04 1975.47 2825.72C1965.79 2835.34 1952.46 2841.37 1937.69 2841.48C1907.93 2841.65 1883.59 2817.75 1883.31 2787.94L1882.26 2680.68L1992.45 2686.22Z" fill="#F9B384"/>
<path d="M1992.39 2691.8L1991.5 2778.59C1943.27 2758.96 1923.41 2706.74 1923.41 2706.74L1992.39 2691.8Z" fill="#102048"/>
<path d="M2011.47 2540.35C2028.76 2561.09 2079.24 2678.64 2028.07 2718.74C1970.49 2763.87 1882.87 2689.7 1882.87 2689.7L1871.11 2552.8L1947.17 2532.75L2011.47 2540.35Z" fill="#F9B384"/>
<path d="M1832.36 2532.81C1832.36 2532.81 1663.66 2620.8 1801.22 2874.43C1818.88 2907 1858.02 2921.22 1891.49 2905.33C1927.4 2888.28 1941 2844.41 1921.5 2809.77C1899 2769.79 1877.28 2718.32 1886.55 2680.02L1832.36 2532.81Z" fill="#102048"/>
<path d="M1880.54 2606.72C1898.37 2588.9 1898.37 2560.01 1880.54 2542.19C1862.72 2524.37 1833.83 2524.37 1816.01 2542.19C1798.19 2560.01 1798.19 2588.9 1816.01 2606.72C1833.83 2624.55 1862.72 2624.55 1880.54 2606.72Z" fill="#FBC343"/>
<path d="M1904.44 2629.29C1899.5 2600.82 1896.5 2581.3 1925.27 2566.63C1925.27 2566.63 2026.68 2585.06 2046.05 2546.8C2065.41 2508.54 2035.9 2448.16 1974.14 2490.11C1816.03 2459.22 1794.82 2607.19 1842.76 2656.51L1890.08 2649.25C1899.6 2647.79 1906.08 2638.78 1904.44 2629.29Z" fill="#102048"/>
<path d="M1982.95 2636.12C1986.68 2636.12 1989.69 2633.1 1989.69 2629.37C1989.69 2625.65 1986.68 2622.63 1982.95 2622.63C1979.23 2622.63 1976.21 2625.65 1976.21 2629.37C1976.21 2633.1 1979.23 2636.12 1982.95 2636.12Z" fill="#102048"/>
<path d="M2028.59 2613.64C2032.31 2613.64 2035.33 2610.62 2035.33 2606.9C2035.33 2603.18 2032.31 2600.16 2028.59 2600.16C2024.86 2600.16 2021.85 2603.18 2021.85 2606.9C2021.85 2610.62 2024.86 2613.64 2028.59 2613.64Z" fill="#102048"/>
<path d="M2023.92 2650.12C2023.45 2650.12 2022.97 2649.95 2022.61 2649.6C2021.84 2648.87 2021.81 2647.66 2022.54 2646.9C2025.24 2644.05 2028.2 2640.05 2026.96 2637.15C2025.67 2634.14 2020.2 2632.84 2017.7 2632.84C2012.32 2632.84 2009.74 2623.27 2009.27 2621.35C2009.03 2620.32 2009.66 2619.29 2010.68 2619.05C2011.7 2618.79 2012.74 2619.43 2012.98 2620.45C2013.97 2624.5 2016.19 2629.02 2017.7 2629.02C2020.27 2629.02 2028.15 2630.24 2030.47 2635.64C2032.12 2639.51 2030.39 2644.18 2025.31 2649.53C2024.93 2649.92 2024.42 2650.12 2023.92 2650.12Z" fill="#102048"/>
<path d="M2024.26 2675.71C2023.9 2675.71 2023.53 2675.6 2023.2 2675.38C2010.5 2666.81 1997.69 2674 1997.56 2674.07C1996.65 2674.59 1995.48 2674.28 1994.95 2673.37C1994.43 2672.45 1994.74 2671.28 1995.66 2670.76C1996.26 2670.41 2010.69 2662.33 2025.33 2672.22C2026.2 2672.81 2026.44 2673.99 2025.85 2674.87C2025.48 2675.41 2024.88 2675.71 2024.26 2675.71Z" fill="#102048"/>
<path d="M1980 2600.17C1983.83 2607.39 1977.15 2608.84 1969.32 2613C1961.49 2617.16 1953.47 2618.69 1951.64 2615.24C1949.81 2611.8 1954.68 2605.64 1962.51 2601.48C1970.34 2597.31 1977.03 2594.59 1980 2600.17Z" fill="#102048"/>
<path d="M2008.56 2587.15C2010.24 2593.59 2015.05 2590.77 2022.04 2588.94C2029.03 2587.11 2034.67 2583.6 2033.87 2580.52C2033.06 2577.45 2026.75 2576.44 2019.76 2578.27C2012.77 2580.1 2007.25 2582.16 2008.56 2587.15Z" fill="#102048"/>
<path opacity="0.4" d="M1965.38 2675.44C1973.46 2668 1973.96 2655.42 1966.52 2647.35C1959.08 2639.28 1946.5 2638.77 1938.43 2646.21C1930.36 2653.66 1929.85 2666.23 1937.29 2674.3C1944.74 2682.37 1957.31 2682.88 1965.38 2675.44Z" fill="#EB5D60"/>
<path d="M1900.57 2679.49C1909.65 2667.71 1906.17 2649.8 1892.79 2639.48C1879.42 2629.16 1861.21 2630.34 1852.13 2642.11C1843.04 2653.88 1846.52 2671.79 1859.9 2682.11C1873.28 2692.43 1891.48 2691.26 1900.57 2679.49Z" fill="#F9B384"/>
<path d="M1888.18 2670.88C1887.12 2670.88 1886.27 2670.03 1886.27 2668.97C1886.27 2663.34 1883.52 2658.13 1878.92 2655.04C1874.99 2652.39 1870.29 2651.77 1866.37 2653.37C1865.4 2653.76 1864.28 2653.3 1863.89 2652.32C1863.49 2651.34 1863.96 2650.23 1864.93 2649.83C1870.03 2647.75 1876.06 2648.51 1881.05 2651.87C1886.71 2655.67 1890.08 2662.06 1890.08 2668.97C1890.08 2670.03 1889.23 2670.88 1888.18 2670.88Z" fill="#102048"/>
<path d="M1614.58 2809.44L1545.7 2883.95L1548.9 2886.91L1617.78 2812.4L1614.58 2809.44Z" fill="#102048"/>
<path d="M2099.87 3129.72L2098.6 3125.55C2148.74 3110.26 2197.41 3091.98 2241.51 3036.83L2244.91 3039.55C2200.04 3095.68 2150.7 3114.23 2099.87 3129.72Z" fill="#102048"/>
<path d="M2130.36 2960.76H1703.8C1688.46 2960.76 1676.02 2974.22 1676.02 2990.81V3295.36C1676.02 3311.96 1688.46 3325.41 1703.8 3325.41H2130.36C2145.7 3325.41 2158.14 3311.96 2158.14 3295.36V2990.81C2158.13 2974.22 2145.7 2960.76 2130.36 2960.76Z" fill="#D3DFFF"/>
<path d="M1939.6 3123.84C1941.22 3123.84 1942.53 3125.26 1942.53 3127.01V3159.16C1942.53 3160.92 1941.22 3162.34 1939.6 3162.34H1894.56C1892.94 3162.34 1891.63 3160.92 1891.63 3159.16V3127.01C1891.63 3125.26 1892.94 3123.84 1894.56 3123.84H1939.6ZM1939.6 3115.11H1894.56C1888.13 3115.11 1882.9 3120.45 1882.9 3127.01V3159.16C1882.9 3165.73 1888.13 3171.06 1894.56 3171.06H1939.6C1946.02 3171.06 1951.25 3165.73 1951.25 3159.16V3127.01C1951.25 3120.45 1946.02 3115.11 1939.6 3115.11Z" fill="#1F3C88"/>
<path d="M3785.86 3640.27H1214V3649H3785.86V3640.27Z" fill="#102048"/>
</svg>
