<svg width="5000" height="5000" viewBox="0 0 5000 5000" fill="none" xmlns="http://www.w3.org/2000/svg">
<g clip-path="url(#clip0_6_525)">
<path d="M3035.91 2070.01H1965.06C1946.67 2069.99 1929.05 2062.68 1916.05 2049.69C1903.05 2036.69 1895.74 2019.07 1895.72 2000.69V1159.79C1895.74 1146.32 1901.09 1133.41 1910.62 1123.89C1920.14 1114.37 1933.05 1109.02 1946.52 1109H3053.58C3067.28 1109.02 3080.41 1114.47 3090.1 1124.15C3099.78 1133.84 3105.23 1146.97 3105.25 1160.67V2000.69C3105.23 2019.07 3097.92 2036.69 3084.92 2049.69C3071.92 2062.68 3054.3 2069.99 3035.91 2070.01Z" fill="#F2F2F2"/>
<path d="M2032.29 2000.69H2968.68C2986.51 2000.69 3003.61 1993.61 3016.22 1981.01C3028.83 1968.4 3035.92 1951.3 3035.92 1933.47V1288.37C3035.92 1270.55 3028.83 1253.45 3016.22 1240.84C3003.61 1228.23 2986.51 1221.15 2968.68 1221.15H2032.29C2014.46 1221.15 1997.36 1228.23 1984.75 1240.84C1972.14 1253.45 1965.06 1270.55 1965.06 1288.37V1933.47C1965.06 1951.3 1972.14 1968.4 1984.75 1981.01C1997.36 1993.61 2014.46 2000.69 2032.29 2000.69Z" fill="white"/>
<path d="M3104.28 1155.82H1894.75V1120.53C1894.78 1102.09 1902.12 1084.41 1915.16 1071.38C1928.21 1058.34 1945.89 1051.02 1964.34 1051H3034.7C3053.14 1051.02 3070.82 1058.34 3083.87 1071.38C3096.92 1084.41 3104.26 1102.09 3104.28 1120.53V1155.82Z" fill="#CCCCCC"/>
<path d="M2021.21 1121.51C2031.15 1121.51 2039.21 1113.46 2039.21 1103.52C2039.21 1093.58 2031.15 1085.52 2021.21 1085.52C2011.27 1085.52 2003.21 1093.58 2003.21 1103.52C2003.21 1113.46 2011.27 1121.51 2021.21 1121.51Z" fill="white"/>
<path d="M2089.53 1121.51C2099.48 1121.51 2107.53 1113.46 2107.53 1103.52C2107.53 1093.58 2099.48 1085.52 2089.53 1085.52C2079.59 1085.52 2071.54 1093.58 2071.54 1103.52C2071.54 1113.46 2079.59 1121.51 2089.53 1121.51Z" fill="white"/>
<path d="M2157.86 1121.51C2167.8 1121.51 2175.86 1113.46 2175.86 1103.52C2175.86 1093.58 2167.8 1085.52 2157.86 1085.52C2147.92 1085.52 2139.86 1093.58 2139.86 1103.52C2139.86 1113.46 2147.92 1121.51 2157.86 1121.51Z" fill="white"/>
<path d="M2101.2 1523.46H2054.83C2052.31 1523.46 2049.9 1522.46 2048.12 1520.68C2046.34 1518.9 2045.34 1516.49 2045.34 1513.98V1467.61C2045.34 1465.1 2046.34 1462.69 2048.12 1460.91C2049.9 1459.13 2052.31 1458.13 2054.83 1458.13H2101.2C2103.71 1458.13 2106.13 1459.13 2107.9 1460.91C2109.68 1462.69 2110.68 1465.1 2110.69 1467.61V1513.98C2110.68 1516.49 2109.68 1518.9 2107.9 1520.68C2106.13 1522.46 2103.71 1523.46 2101.2 1523.46Z" fill="#6C63FF"/>
<path d="M2101.2 1643.59H2054.83C2052.31 1643.59 2049.9 1642.59 2048.12 1640.81C2046.34 1639.03 2045.34 1636.62 2045.34 1634.11V1587.74C2045.34 1585.23 2046.34 1582.82 2048.12 1581.04C2049.9 1579.26 2052.31 1578.26 2054.83 1578.26H2101.2C2103.71 1578.26 2106.13 1579.26 2107.9 1581.04C2109.68 1582.82 2110.68 1585.23 2110.69 1587.74V1634.11C2110.68 1636.62 2109.68 1639.03 2107.9 1640.81C2106.13 1642.59 2103.71 1643.59 2101.2 1643.59Z" fill="#3F3D56"/>
<path d="M2101.2 1763.72H2054.83C2052.31 1763.72 2049.9 1762.72 2048.12 1760.94C2046.34 1759.16 2045.34 1756.75 2045.34 1754.24V1707.87C2045.34 1705.36 2046.34 1702.94 2048.12 1701.17C2049.9 1699.39 2052.31 1698.39 2054.83 1698.39H2101.2C2103.71 1698.39 2106.13 1699.39 2107.9 1701.17C2109.68 1702.94 2110.68 1705.36 2110.69 1707.87V1754.24C2110.68 1756.75 2109.68 1759.16 2107.9 1760.94C2106.13 1762.72 2103.71 1763.72 2101.2 1763.72Z" fill="#CCCCCC"/>
<path d="M2404.74 1500.28H2181.3C2178.79 1500.27 2176.38 1499.27 2174.61 1497.49C2172.83 1495.72 2171.83 1493.31 2171.83 1490.79C2171.83 1488.28 2172.83 1485.87 2174.61 1484.1C2176.38 1482.32 2178.79 1481.32 2181.3 1481.31H2404.74C2405.99 1481.31 2407.22 1481.55 2408.38 1482.03C2409.53 1482.5 2410.58 1483.2 2411.46 1484.08C2412.34 1484.96 2413.04 1486.01 2413.52 1487.16C2414 1488.31 2414.25 1489.55 2414.25 1490.79C2414.25 1492.04 2414 1493.28 2413.52 1494.43C2413.04 1495.58 2412.34 1496.63 2411.46 1497.51C2410.58 1498.39 2409.53 1499.09 2408.38 1499.56C2407.22 1500.04 2405.99 1500.28 2404.74 1500.28Z" fill="#CCCCCC"/>
<path d="M2404.74 1620.41H2181.3C2178.79 1620.4 2176.38 1619.4 2174.61 1617.62C2172.83 1615.84 2171.83 1613.44 2171.83 1610.92C2171.83 1608.41 2172.83 1606 2174.61 1604.22C2176.38 1602.45 2178.79 1601.44 2181.3 1601.44H2404.74C2407.26 1601.44 2409.67 1602.44 2411.45 1604.22C2413.23 1606 2414.23 1608.41 2414.23 1610.92C2414.23 1613.44 2413.23 1615.85 2411.45 1617.63C2409.67 1619.41 2407.26 1620.41 2404.74 1620.41Z" fill="#CCCCCC"/>
<path d="M2404.74 1740.54H2181.3C2178.79 1740.53 2176.38 1739.53 2174.61 1737.75C2172.83 1735.97 2171.83 1733.56 2171.83 1731.05C2171.83 1728.54 2172.83 1726.13 2174.61 1724.35C2176.38 1722.58 2178.79 1721.57 2181.3 1721.57H2404.74C2405.99 1721.57 2407.22 1721.81 2408.38 1722.28C2409.53 1722.76 2410.58 1723.46 2411.46 1724.34C2412.34 1725.22 2413.04 1726.27 2413.52 1727.42C2414 1728.57 2414.25 1729.81 2414.25 1731.05C2414.25 1732.3 2414 1733.53 2413.52 1734.69C2413.04 1735.84 2412.34 1736.88 2411.46 1737.77C2410.58 1738.65 2409.53 1739.34 2408.38 1739.82C2407.22 1740.3 2405.99 1740.54 2404.74 1740.54Z" fill="#CCCCCC"/>
<path d="M2955.26 1613.94C2955.5 1609.95 2955.63 1605.93 2955.63 1601.89C2955.63 1549.16 2934.69 1498.6 2897.4 1461.32C2860.11 1424.04 2809.53 1403.09 2756.8 1403.09V1613.94H2955.26Z" fill="#6C63FF"/>
<path d="M2741.74 1632.01V1421.16C2702.92 1421.16 2664.96 1432.52 2632.52 1453.83C2600.09 1475.14 2574.6 1505.48 2559.21 1541.1C2543.81 1576.72 2539.18 1616.07 2545.88 1654.29C2552.59 1692.52 2570.33 1727.94 2596.93 1756.2C2623.53 1784.46 2657.82 1804.32 2695.57 1813.32C2733.33 1822.33 2772.89 1820.1 2809.39 1806.89C2845.88 1793.69 2877.72 1770.09 2900.96 1739.02C2924.2 1707.94 2937.84 1670.74 2940.2 1632.01H2741.74Z" fill="#3F3D56"/>
<path d="M4096.8 3949H903.202C902.088 3949 901.019 3948.56 900.231 3947.77C899.443 3946.98 899 3945.91 899 3944.8C899 3943.68 899.443 3942.62 900.231 3941.83C901.019 3941.04 902.088 3940.6 903.202 3940.6H4096.8C4097.91 3940.6 4098.98 3941.04 4099.77 3941.83C4100.56 3942.62 4101 3943.68 4101 3944.8C4101 3945.91 4100.56 3946.98 4099.77 3947.77C4098.98 3948.56 4097.91 3949 4096.8 3949Z" fill="#CCCCCC"/>
<path d="M3019.76 2785.82C3021.16 2787.73 3022.41 2789.74 3023.5 2791.84L3234.08 2815.51L3264.7 2774.14L3333.19 2812.19L3272.91 2912.68L3014.92 2844.99C3008.35 2851.3 3000.02 2855.46 2991.03 2856.92C2982.04 2858.38 2972.82 2857.07 2964.59 2853.17C2956.37 2849.26 2949.53 2842.94 2944.98 2835.06C2940.43 2827.17 2938.39 2818.08 2939.14 2809.01C2939.88 2799.93 2943.37 2791.3 2949.14 2784.25C2954.91 2777.21 2962.69 2772.09 2971.44 2769.57C2980.19 2767.05 2989.5 2767.26 2998.13 2770.16C3006.76 2773.07 3014.31 2778.53 3019.76 2785.82Z" fill="#FFB8B8"/>
<path d="M1945.27 2731.47C1939.94 2734.6 1934 2736.52 1927.85 2737.1C1921.7 2737.69 1915.49 2736.91 1909.67 2734.84C1903.86 2732.77 1898.56 2729.45 1894.17 2725.11C1889.77 2720.77 1886.38 2715.52 1884.23 2709.72L1734.11 2712.85L1775.7 2646.84L1911.88 2653.99C1921.85 2651.03 1932.56 2651.83 1941.99 2656.24C1951.41 2660.64 1958.88 2668.35 1963 2677.9C1967.11 2687.45 1967.58 2698.18 1964.31 2708.05C1961.05 2717.92 1954.27 2726.26 1945.27 2731.47Z" fill="#FFB8B8"/>
<path d="M1879.29 2712.57C1878.09 2716.55 1875.63 2720.03 1872.26 2722.47C1868.9 2724.9 1864.83 2726.17 1860.68 2726.07L1585.92 2719.09L1337.12 2645.45C1330.28 2643.42 1323.9 2640.05 1318.37 2635.54C1312.84 2631.03 1308.26 2625.46 1304.89 2619.17C1301.53 2612.87 1299.45 2605.97 1298.78 2598.86C1298.11 2591.75 1298.86 2584.58 1300.99 2577.77C1303.12 2570.95 1306.58 2564.63 1311.17 2559.16C1315.76 2553.7 1321.39 2549.2 1327.74 2545.93C1334.09 2542.66 1341.02 2540.69 1348.14 2540.12C1355.25 2539.55 1362.41 2540.41 1369.2 2542.63L1593.97 2616.31L1863.75 2642.34C1868.47 2642.82 1872.85 2645.05 1876.01 2648.59C1879.18 2652.14 1880.9 2656.73 1880.84 2661.48L1880.06 2707.49C1880.03 2709.21 1879.77 2710.92 1879.29 2712.57Z" fill="#3F3D56"/>
<path d="M1480.83 3893.6L1532.34 3893.6L1556.85 3694.93L1480.82 3694.93L1480.83 3893.6Z" fill="#FFB8B8"/>
<path d="M1467.69 3876.78L1569.14 3876.78H1569.14C1577.64 3876.78 1586.04 3878.45 1593.89 3881.7C1601.73 3884.95 1608.86 3889.71 1614.86 3895.71C1620.87 3901.71 1625.63 3908.84 1628.88 3916.68C1632.13 3924.53 1633.8 3932.93 1633.8 3941.42V3943.52L1467.69 3943.53L1467.69 3876.78Z" fill="#2F2E41"/>
<path d="M1329.55 3893.6L1381.06 3893.6L1405.58 3694.93L1329.54 3694.93L1329.55 3893.6Z" fill="#FFB8B8"/>
<path d="M1316.41 3876.78L1417.86 3876.78H1417.87C1426.36 3876.78 1434.77 3878.45 1442.61 3881.7C1450.45 3884.95 1457.58 3889.71 1463.59 3895.71C1469.59 3901.71 1474.35 3908.84 1477.6 3916.68C1480.85 3924.53 1482.52 3932.93 1482.52 3941.42V3943.52L1316.41 3943.53L1316.41 3876.78Z" fill="#2F2E41"/>
<path d="M1294.98 3090.7L1307.28 3820.44C1307.32 3822.75 1307.83 3825.03 1308.79 3827.13C1309.75 3829.23 1311.13 3831.11 1312.85 3832.66C1314.57 3834.2 1316.59 3835.38 1318.79 3836.1C1320.98 3836.83 1323.3 3837.1 1325.61 3836.89L1385.89 3831.41C1389.84 3831.05 1393.54 3829.3 1396.33 3826.48C1399.12 3823.65 1400.82 3819.93 1401.13 3815.97L1436.42 3360.78C1436.5 3359.71 1436.99 3358.72 1437.79 3358C1438.58 3357.28 1439.62 3356.89 1440.69 3356.91C1441.76 3356.93 1442.79 3357.36 1443.55 3358.11C1444.32 3358.86 1444.77 3359.88 1444.81 3360.95L1462.45 3826.56C1462.61 3830.91 1464.45 3835.02 1467.59 3838.03C1470.72 3841.05 1474.9 3842.73 1479.24 3842.73H1543.9C1548.18 3842.73 1552.3 3841.1 1555.41 3838.17C1558.53 3835.23 1560.41 3831.22 1560.67 3826.95L1605.93 3086.5L1337 3019.28L1294.98 3090.7Z" fill="#2F2E41"/>
<path d="M1490.04 2405.48C1547.04 2405.48 1593.25 2359.28 1593.25 2302.29C1593.25 2245.31 1547.04 2199.11 1490.04 2199.11C1433.04 2199.11 1386.84 2245.31 1386.84 2302.29C1386.84 2359.28 1433.04 2405.48 1490.04 2405.48Z" fill="#FFB8B8"/>
<path d="M1601.98 3117.75C1601.88 3117.75 1601.78 3117.75 1601.68 3117.75L1360.35 3114.04C1355.71 3113.96 1351.26 3112.19 1347.84 3109.05C1344.42 3105.91 1342.28 3101.63 1341.82 3097.01L1339.09 3069.69C1339.04 3069.17 1338.79 3068.69 1338.41 3068.34C1338.02 3067.99 1337.52 3067.8 1337 3067.8C1336.48 3067.8 1335.97 3067.99 1335.59 3068.34C1335.2 3068.69 1334.96 3069.17 1334.91 3069.69L1332.09 3097.91C1331.65 3102.33 1329.67 3106.45 1326.49 3109.55C1323.32 3112.66 1319.15 3114.54 1314.72 3114.88L1297.67 3116.19C1294.66 3116.42 1291.64 3115.93 1288.86 3114.76C1286.09 3113.59 1283.63 3111.77 1281.7 3109.46C1279.77 3107.14 1278.41 3104.4 1277.76 3101.46C1277.1 3098.52 1277.16 3095.46 1277.92 3092.55L1292.61 3036.57C1323 2920.23 1325.44 2798.35 1299.74 2680.88L1292.45 2647.7C1286.94 2622.9 1289.46 2597 1299.64 2573.74C1309.81 2550.47 1327.11 2531.03 1349.05 2518.23L1396.45 2490.45L1417.96 2458.19C1422.12 2451.97 1427.72 2446.84 1434.29 2443.24C1440.85 2439.64 1448.19 2437.67 1455.68 2437.51C1485.68 2436.86 1537.14 2442.35 1546.81 2486.21C1570.77 2494.39 1591.52 2509.96 1606.08 2530.68C1620.64 2551.39 1628.26 2576.19 1627.84 2601.5L1620.87 3099.11C1620.8 3104.08 1618.78 3108.82 1615.25 3112.3C1611.71 3115.79 1606.94 3117.75 1601.98 3117.75Z" fill="#3F3D56"/>
<path d="M1481.97 2361.77C1481.55 2376.36 1471.42 2384.8 1458.98 2392.44C1446.55 2400.08 1432.01 2403.39 1417.77 2406.59C1415.86 2407.6 1413.71 2408.11 1411.55 2408.06C1409.38 2408 1407.27 2407.39 1405.41 2406.29C1403.55 2405.18 1402 2403.61 1400.93 2401.73C1399.85 2399.85 1399.27 2397.73 1399.26 2395.56L1386.2 2345.89C1381.57 2330.02 1378.21 2313.82 1376.14 2297.42C1372.99 2265.87 1380.47 2231.93 1402.5 2209.12C1424.52 2186.31 1462.72 2178.21 1489.11 2195.79C1520.43 2155.79 1663.59 2244.15 1628.28 2271.97C1622 2276.91 1612.39 2270.65 1604.42 2270.05C1596.44 2269.44 1587.51 2270.84 1582.44 2277.03C1575.82 2285.11 1578.7 2297.16 1575.98 2307.24C1574.85 2310.79 1573.03 2314.08 1570.62 2316.92C1568.22 2319.76 1565.27 2322.1 1561.96 2323.8C1558.64 2325.5 1555.03 2326.52 1551.31 2326.82C1547.6 2327.11 1543.87 2326.67 1540.33 2325.51C1533.73 2322.26 1527.53 2318.27 1521.84 2313.63C1515.72 2309.55 1507.99 2306.54 1501.11 2309.11C1492.03 2312.5 1488.81 2323.61 1487.99 2333.26C1486.6 2342.88 1484.59 2352.41 1481.97 2361.77Z" fill="#2F2E41"/>
<path opacity="0.2" d="M1506.07 2638.33L1522.88 2844.19L1611.13 3058.46L1480.86 2848.39L1506.07 2638.33Z" fill="black"/>
<path d="M2591.69 3765.65L1670.71 3219.37C1654.91 3209.98 1643.49 3194.7 1638.94 3176.89C1634.39 3159.08 1637.1 3140.2 1646.46 3124.38L2075.6 2401.17C2082.48 2389.6 2093.67 2381.23 2106.72 2377.9C2119.77 2374.57 2133.61 2376.55 2145.2 2383.41L3097.31 2948.15C3109.08 2955.16 3117.6 2966.54 3120.99 2979.81C3124.38 2993.09 3122.36 3007.16 3115.38 3018.95L2686.69 3741.4C2677.3 3757.2 2662.02 3768.62 2644.21 3773.17C2626.39 3777.71 2607.51 3775.01 2591.69 3765.65Z" fill="#F2F2F2"/>
<path d="M1763.91 3194.05L2569.24 3671.73C2584.57 3680.83 2602.9 3683.46 2620.17 3679.05C2637.45 3674.64 2652.27 3663.55 2661.37 3648.22L2990.58 3093.41C2999.68 3078.08 3002.31 3059.76 2997.9 3042.49C2993.49 3025.21 2982.4 3010.4 2967.06 3001.3L2161.73 2523.62C2146.4 2514.52 2128.08 2511.89 2110.8 2516.3C2093.52 2520.71 2078.7 2531.8 2069.6 2547.13L1740.39 3101.94C1731.29 3117.27 1728.66 3135.59 1733.07 3152.87C1737.48 3170.14 1748.57 3184.95 1763.91 3194.05Z" fill="white"/>
<path d="M3117.02 3014.29L2076.78 2397.27L2094.79 2366.91C2104.23 2351.07 2119.56 2339.61 2137.43 2335.06C2155.3 2330.5 2174.25 2333.22 2190.12 2342.61L3110.67 2888.64C3126.53 2898.06 3138 2913.39 3142.56 2931.25C3147.13 2949.12 3144.42 2968.07 3135.04 2983.94L3117.02 3014.29Z" fill="#CCCCCC"/>
<path d="M2212.24 2434.79C2222.18 2434.79 2230.24 2426.73 2230.24 2416.79C2230.24 2406.85 2222.18 2398.8 2212.24 2398.8C2202.3 2398.8 2194.24 2406.85 2194.24 2416.79C2194.24 2426.73 2202.3 2434.79 2212.24 2434.79Z" fill="white"/>
<path d="M2271 2469.64C2280.94 2469.64 2289 2461.59 2289 2451.65C2289 2441.71 2280.94 2433.65 2271 2433.65C2261.06 2433.65 2253 2441.71 2253 2451.65C2253 2461.59 2261.06 2469.64 2271 2469.64Z" fill="white"/>
<path d="M2329.76 2504.5C2339.7 2504.5 2347.76 2496.44 2347.76 2486.5C2347.76 2476.56 2339.7 2468.5 2329.76 2468.5C2319.82 2468.5 2311.76 2476.56 2311.76 2486.5C2311.76 2496.44 2319.82 2504.5 2329.76 2504.5Z" fill="white"/>
<path d="M2885.57 3119.62L2884.4 3121.59L2896.24 3128.61L2897.41 3126.64L2885.57 3119.62Z" fill="#E6E6E6"/>
<path d="M2860.48 3107.4L2836.56 3093.22L2837.73 3091.24L2861.65 3105.43L2860.48 3107.4ZM2812.64 3079.03L2788.72 3064.84L2789.89 3062.87L2813.81 3077.06L2812.64 3079.03ZM2764.8 3050.65L2740.89 3036.46L2742.06 3034.49L2765.97 3048.68L2764.8 3050.65ZM2716.97 3022.28L2693.05 3008.09L2694.22 3006.12L2718.14 3020.3L2716.97 3022.28ZM2669.13 2993.9L2645.21 2979.71L2646.38 2977.74L2670.3 2991.93L2669.13 2993.9ZM2621.29 2965.53L2597.37 2951.34L2598.54 2949.37L2622.46 2963.55L2621.29 2965.53ZM2573.45 2937.15L2549.53 2922.96L2550.7 2920.99L2574.62 2935.18L2573.45 2937.15ZM2525.61 2908.77L2501.69 2894.59L2502.86 2892.61L2526.78 2906.8L2525.61 2908.77ZM2477.77 2880.4L2453.85 2866.21L2455.02 2864.24L2478.94 2878.43L2477.77 2880.4ZM2429.93 2852.02L2406.02 2837.84L2407.19 2835.86L2431.11 2850.05L2429.93 2852.02ZM2382.1 2823.65L2358.18 2809.46L2359.35 2807.49L2383.27 2821.68L2382.1 2823.65ZM2334.26 2795.27L2310.34 2781.08L2311.51 2779.11L2335.43 2793.3L2334.26 2795.27ZM2286.42 2766.9L2262.5 2752.71L2263.67 2750.74L2287.59 2764.92L2286.42 2766.9ZM2238.58 2738.52L2214.66 2724.33L2215.83 2722.36L2239.75 2736.55L2238.58 2738.52ZM2190.74 2710.15L2166.82 2695.96L2167.99 2693.99L2191.91 2708.17L2190.74 2710.15ZM2142.9 2681.77L2118.98 2667.58L2120.16 2665.61L2144.07 2679.8L2142.9 2681.77Z" fill="#E6E6E6"/>
<path d="M2084.4 2644.4L2083.23 2646.37L2095.07 2653.39L2096.24 2651.42L2084.4 2644.4Z" fill="#E6E6E6"/>
<path d="M2387.95 3072.52L2386.78 3074.49L2398.62 3081.51L2399.79 3079.54L2387.95 3072.52Z" fill="#E6E6E6"/>
<path d="M2363.21 3060.51L2339.65 3046.54L2340.82 3044.56L2364.38 3058.54L2363.21 3060.51ZM2316.08 3032.56L2292.52 3018.58L2293.69 3016.61L2317.25 3030.59L2316.08 3032.56ZM2268.96 3004.6L2245.39 2990.63L2246.56 2988.65L2270.13 3002.63L2268.96 3004.6ZM2221.83 2976.65L2198.26 2962.67L2199.43 2960.7L2223 2974.68L2221.83 2976.65ZM2174.7 2948.7L2151.14 2934.72L2152.31 2932.75L2175.87 2946.72L2174.7 2948.7ZM2127.57 2920.74L2104.01 2906.76L2105.18 2904.79L2128.74 2918.77L2127.57 2920.74ZM2080.44 2892.79L2056.88 2878.81L2058.05 2876.84L2081.61 2890.81L2080.44 2892.79ZM2033.32 2864.83L2009.75 2850.86L2010.92 2848.88L2034.49 2862.86L2033.32 2864.83Z" fill="#E6E6E6"/>
<path d="M1975.52 2827.88L1974.35 2829.86L1986.19 2836.88L1987.36 2834.91L1975.52 2827.88Z" fill="#E6E6E6"/>
<path d="M2105.56 3022.38L2104.38 3024.35L2116.22 3031.38L2117.4 3029.4L2105.56 3022.38Z" fill="#E6E6E6"/>
<path d="M2080.14 3009.97L2055.9 2995.59L2057.07 2993.62L2081.31 3008L2080.14 3009.97ZM2031.65 2981.21L2007.41 2966.83L2008.58 2964.86L2032.82 2979.24L2031.65 2981.21ZM1983.17 2952.45L1958.92 2938.07L1960.09 2936.1L1984.34 2950.48L1983.17 2952.45Z" fill="#E6E6E6"/>
<path d="M1924.01 2914.69L1922.84 2916.67L1934.68 2923.69L1935.85 2921.72L1924.01 2914.69Z" fill="#E6E6E6"/>
<path d="M2017.65 3170.52L2016.48 3172.5L2028.32 3179.52L2029.49 3177.55L2017.65 3170.52Z" fill="#E6E6E6"/>
<path d="M1992.23 3158.12L1967.99 3143.74L1969.16 3141.76L1993.41 3156.14L1992.23 3158.12ZM1943.75 3129.36L1919.5 3114.98L1920.67 3113L1944.92 3127.38L1943.75 3129.36ZM1895.26 3100.59L1871.02 3086.21L1872.19 3084.24L1896.43 3098.62L1895.26 3100.59Z" fill="#E6E6E6"/>
<path d="M1836.1 3062.84L1834.93 3064.81L1846.77 3071.83L1847.94 3069.86L1836.1 3062.84Z" fill="#E6E6E6"/>
<path d="M1900.79 3105.92L2583.25 3510.73C2599.78 3520.51 2619.53 3523.33 2638.14 3518.58C2656.76 3513.83 2672.73 3501.89 2682.55 3485.38L2881.96 3149.33L2880.58 3148.57L2428.16 3264.03L2392.33 3123.73C2391.67 3121.14 2390.42 3118.73 2388.68 3116.7C2386.94 3114.67 2384.76 3113.07 2382.29 3112.02C2378.53 3110.51 2374.37 3110.27 2370.45 3111.36L2133.36 3171.86L2107.16 3069.28C2106.59 3067.07 2105.6 3064.99 2104.23 3063.16C2102.86 3061.33 2101.14 3059.79 2099.18 3058.62C2097.21 3057.46 2095.04 3056.69 2092.77 3056.36C2090.51 3056.04 2088.21 3056.16 2085.99 3056.73C2084.39 3057.15 1930.12 3098.02 1900.79 3105.92Z" fill="#6C63FF"/>
<path d="M1896.71 3106.17L1896.14 3103.94L2085.86 3055.52C2090.87 3054.25 2096.19 3055.01 2100.63 3057.65C2105.08 3060.29 2108.3 3064.58 2109.58 3069.59L2135.26 3170.15L2371.03 3109.97C2376.04 3108.7 2381.35 3109.46 2385.8 3112.1C2390.25 3114.74 2393.47 3119.03 2394.75 3124.04L2430.06 3262.32L2884.83 3146.25L2885.4 3148.47L2428.4 3265.11L2392.53 3124.61C2391.97 3122.42 2390.98 3120.36 2389.63 3118.55C2388.28 3116.74 2386.58 3115.22 2384.64 3114.07C2382.69 3112.91 2380.54 3112.16 2378.3 3111.83C2376.07 3111.51 2373.79 3111.63 2371.6 3112.19L2133.6 3172.94L2107.36 3070.16C2106.23 3065.74 2103.39 3061.95 2099.46 3059.62C2095.54 3057.3 2090.85 3056.62 2086.43 3057.74L1896.71 3106.17Z" fill="#3F3D56"/>
<path d="M2116.81 3046.45C2125.68 3046.45 2132.87 3039.26 2132.87 3030.39C2132.87 3021.52 2125.68 3014.33 2116.81 3014.33C2107.94 3014.33 2100.75 3021.52 2100.75 3030.39C2100.75 3039.26 2107.94 3046.45 2116.81 3046.45Z" fill="#3F3D56"/>
<path d="M2399.2 3096.58C2408.07 3096.58 2415.26 3089.39 2415.26 3080.53C2415.26 3071.66 2408.07 3064.47 2399.2 3064.47C2390.33 3064.47 2383.14 3071.66 2383.14 3080.53C2383.14 3089.39 2390.33 3096.58 2399.2 3096.58Z" fill="#3F3D56"/>
<path d="M2891.18 3135.26C2900.05 3135.26 2907.24 3128.07 2907.24 3119.2C2907.24 3110.33 2900.05 3103.14 2891.18 3103.14C2882.31 3103.14 2875.12 3110.33 2875.12 3119.2C2875.12 3128.07 2882.31 3135.26 2891.18 3135.26Z" fill="#3F3D56"/>
<path d="M1631.76 3138.25C1626.94 3134.38 1623.03 3129.51 1620.3 3123.97C1617.58 3118.42 1616.1 3112.35 1615.97 3106.18C1615.84 3100 1617.07 3093.88 1619.57 3088.23C1622.07 3082.58 1625.77 3077.54 1630.43 3073.48L1574.21 2934.27L1650.69 2949.71L1692.35 3079.54C1698.66 3087.81 1701.72 3098.11 1700.94 3108.48C1700.16 3118.85 1695.61 3128.57 1688.14 3135.81C1680.67 3143.04 1670.8 3147.29 1660.41 3147.74C1650.02 3148.19 1639.83 3144.81 1631.76 3138.25Z" fill="#FFB8B8"/>
<path d="M1630.83 3077.93C1626.68 3078.23 1622.56 3077.16 1619.08 3074.88C1615.61 3072.6 1612.98 3069.25 1611.6 3065.33L1520.59 2806.03L1501.14 2547.35C1500.61 2540.23 1501.49 2533.07 1503.74 2526.3C1506 2519.53 1509.58 2513.27 1514.27 2507.89C1518.97 2502.51 1524.68 2498.12 1531.09 2494.97C1537.5 2491.82 1544.47 2489.98 1551.6 2489.54C1558.72 2489.11 1565.87 2490.1 1572.61 2492.45C1579.35 2494.81 1585.55 2498.48 1590.86 2503.25C1596.17 2508.02 1600.48 2513.8 1603.54 2520.25C1606.6 2526.7 1608.34 2533.7 1608.67 2540.83L1619.56 2777.08L1690.98 3038.48C1692.21 3043.07 1691.68 3047.95 1689.49 3052.16C1687.3 3056.38 1683.61 3059.62 1679.15 3061.25L1635.85 3076.85C1634.23 3077.44 1632.54 3077.8 1630.83 3077.93Z" fill="#3F3D56"/>
<path d="M3318.23 2848.18C3316.53 2847.43 3314.95 2846.45 3313.54 2845.25L3228.9 2773.97C3226.87 2772.26 3225.21 2770.14 3224.04 2767.76C3222.86 2765.37 3222.2 2762.77 3222.08 2760.11C3221.96 2757.45 3222.4 2754.8 3223.36 2752.32C3224.32 2749.84 3225.79 2747.59 3227.67 2745.7L3304.47 2668.6C3307.69 2665.34 3311.98 2663.34 3316.56 2662.97C3321.13 2662.61 3325.69 2663.9 3329.39 2666.62L3387.47 2708.78C3391.09 2711.42 3393.68 2715.23 3394.79 2719.57C3395.91 2723.91 3395.47 2728.5 3393.55 2732.56L3343.31 2838.77C3341.17 2843.29 3337.36 2846.8 3332.67 2848.55C3327.99 2850.31 3322.81 2850.18 3318.23 2848.18Z" fill="#6C63FF"/>
<path d="M3648.33 3856.33L3597.79 3870.08L3520.68 3681.69L3595.29 3661.4L3648.33 3856.33Z" fill="#FFB8B8"/>
<path d="M3556.73 3865.74L3655.23 3838.94L3671.94 3900.31L3513.07 3943.53L3512.79 3942.51C3508.44 3926.5 3510.62 3909.42 3518.86 3895.03C3527.1 3880.63 3540.72 3870.09 3556.73 3865.74Z" fill="#2F2E41"/>
<path d="M3216.21 3894.89L3163.83 3894.89L3138.9 3692.87L3216.22 3692.88L3216.21 3894.89Z" fill="#FFB8B8"/>
<path d="M3125.35 3879.93H3227.44V3943.52H3062.8V3942.47C3062.8 3925.88 3069.39 3909.97 3081.12 3898.24C3092.85 3886.52 3108.76 3879.93 3125.35 3879.93Z" fill="#2F2E41"/>
<path d="M3295.13 2561.06C3353.09 2561.06 3400.07 2514.08 3400.07 2456.14C3400.07 2398.19 3353.09 2351.21 3295.13 2351.21C3237.17 2351.21 3190.18 2398.19 3190.18 2456.14C3190.18 2514.08 3237.17 2561.06 3295.13 2561.06Z" fill="#FFB8B8"/>
<path d="M3213.01 3750.86H3141.42C3136.52 3750.85 3131.82 3748.98 3128.25 3745.63C3124.68 3742.28 3122.52 3737.7 3122.21 3732.82C3100.88 3393.78 3113.36 3150.57 3161.48 2967.45C3161.69 2966.65 3161.95 2965.87 3162.26 2965.1L3166.09 2955.51C3167.51 2951.94 3169.97 2948.87 3173.15 2946.72C3176.34 2944.56 3180.1 2943.41 3183.94 2943.43H3331.15C3333.93 2943.43 3336.67 2944.02 3339.19 2945.18C3341.71 2946.34 3343.95 2948.03 3345.75 2950.14L3365.75 2973.47C3366.14 2973.92 3366.5 2974.38 3366.85 2974.87C3457.02 3100.58 3537.82 3346.35 3631.4 3676.69C3632.78 3681.49 3632.23 3686.64 3629.87 3691.04C3627.51 3695.44 3623.52 3698.75 3618.76 3700.25L3541.83 3724.87C3537.41 3726.26 3532.64 3726.02 3528.39 3724.19C3524.13 3722.36 3520.68 3719.07 3518.65 3714.91L3319 3300.91C3317.61 3298.01 3315.32 3295.65 3312.47 3294.16C3309.62 3292.67 3306.37 3292.13 3303.2 3292.63C3300.03 3293.14 3297.1 3294.65 3294.85 3296.94C3292.6 3299.24 3291.15 3302.19 3290.71 3305.38L3232.06 3734.23C3231.41 3738.83 3229.13 3743.04 3225.63 3746.1C3222.13 3749.15 3217.65 3750.84 3213.01 3750.86Z" fill="#2F2E41"/>
<path d="M3357.68 2975.17C3357.47 2975.17 3357.27 2975.17 3357.07 2975.16L3178.26 2969.52C3173.66 2969.39 3169.26 2967.61 3165.87 2964.51C3162.47 2961.41 3160.3 2957.19 3159.76 2952.63C3137.09 2769.18 3199.26 2720.03 3227.04 2707.42C3229.36 2706.37 3231.37 2704.74 3232.88 2702.69C3234.39 2700.64 3235.34 2698.23 3235.64 2695.7L3238.04 2676.47C3238.45 2673.08 3239.76 2669.85 3241.84 2667.13C3285.4 2610.72 3344.87 2592.66 3376.45 2586.91C3379.01 2586.45 3381.64 2586.52 3384.17 2587.1C3386.71 2587.69 3389.1 2588.78 3391.2 2590.32C3393.3 2591.86 3395.06 2593.81 3396.38 2596.05C3397.7 2598.29 3398.56 2600.78 3398.89 2603.36L3402.49 2630.97C3402.86 2633.6 3403.91 2636.09 3405.54 2638.19C3496.38 2756.92 3395.18 2932.23 3373.97 2966.16C3372.24 2968.92 3369.83 2971.19 3366.98 2972.77C3364.13 2974.34 3360.93 2975.17 3357.68 2975.17Z" fill="#6C63FF"/>
<path d="M3410.6 2390.88C3402.8 2367.25 3397.05 2343 3393.4 2318.4C3392.25 2304.07 3395.92 2288.65 3406.36 2278.77C3425.89 2260.27 3459.07 2269.08 3479.49 2286.59C3509.01 2311.89 3523.73 2350.78 3529.29 2389.25C3534.85 2427.72 3532.41 2466.84 3533.75 2505.69C3535.08 2544.54 3540.64 2584.49 3560.45 2617.94C3580.26 2651.39 3617.02 2677.06 3655.8 2674.22C3671.45 2673.37 3686.31 2667.07 3697.81 2656.42C3703.45 2651.05 3707.72 2644.41 3710.27 2637.06C3712.81 2629.7 3713.55 2621.84 3712.43 2614.13C3732.25 2649.61 3722.21 2697.7 3692.64 2725.6C3663.08 2753.49 3617.61 2761.37 3578.75 2749.46C3539.89 2737.56 3507.9 2707.69 3488.8 2671.82C3469.69 2635.95 3462.69 2594.52 3463.7 2553.89C3464.48 2522.69 3469.79 2491.24 3464.51 2460.48C3459.24 2429.72 3439.99 2398.49 3409.63 2391.24L3410.6 2390.88Z" fill="#2F2E41"/>
<path d="M3274.25 2431.32C3269.07 2448.61 3249.27 2459.27 3231.46 2456.34C3222.59 2454.5 3214.39 2450.29 3207.72 2444.16C3201.06 2438.03 3196.17 2430.22 3193.59 2421.54C3188.7 2403.95 3190.7 2385.17 3199.19 2369.01C3203.87 2359.32 3210.41 2350.65 3218.44 2343.5C3226.48 2336.35 3235.84 2330.85 3246 2327.32C3256.22 2323.93 3267.11 2323.05 3277.74 2324.75C3288.37 2326.45 3298.43 2330.67 3307.09 2337.07C3308.01 2333.19 3309.95 2329.62 3312.71 2326.74C3315.47 2323.85 3318.95 2321.75 3322.79 2320.66C3330.52 2318.58 3338.68 2318.7 3346.35 2321.01C3368.44 2327.3 3387.58 2341.23 3400.37 2360.3C3413 2379.32 3421.35 2400.85 3424.86 2423.41C3430.89 2457.24 3428.66 2494.2 3409.66 2522.83C3390.66 2551.47 3351.78 2568.37 3320.24 2554.72C3318.27 2544.67 3322.93 2534.55 3328.32 2525.84C3333.71 2517.13 3340.1 2508.64 3342.17 2498.61C3344.24 2488.58 3340.27 2476.31 3330.57 2473.03C3322.29 2470.23 3313.46 2474.76 3304.74 2475.31C3299.79 2475.62 3294.84 2474.63 3290.39 2472.42C3285.94 2470.22 3282.16 2466.88 3279.41 2462.75C3276.66 2458.62 3275.04 2453.84 3274.72 2448.89C3274.4 2443.94 3275.39 2438.99 3277.59 2434.54L3274.25 2431.32Z" fill="#2F2E41"/>
<path d="M3008.27 2863.58C3010 2865.18 3011.61 2866.92 3013.07 2868.78L3224.34 2852.34L3246.62 2805.94L3321.05 2830.4L3280.79 2940.45L3014.67 2922.6C3009.41 2930.03 3002.01 2935.69 2993.46 2938.82C2984.91 2941.95 2975.6 2942.4 2966.79 2940.11C2957.97 2937.83 2950.06 2932.91 2944.11 2926.02C2938.16 2919.13 2934.44 2910.59 2933.46 2901.54C2932.48 2892.49 2934.28 2883.35 2938.62 2875.35C2942.95 2867.34 2949.63 2860.85 2957.75 2856.73C2965.87 2852.61 2975.05 2851.05 2984.08 2852.28C2993.1 2853.5 3001.54 2857.44 3008.27 2863.58Z" fill="#FFB8B8"/>
<path d="M3319.91 2903.7C3318.13 2903.2 3316.43 2902.44 3314.86 2901.44L3221.3 2842.36C3219.06 2840.94 3217.13 2839.07 3215.64 2836.86C3214.15 2834.66 3213.13 2832.17 3212.66 2829.56C3212.18 2826.94 3212.25 2824.25 3212.86 2821.67C3213.48 2819.08 3214.62 2816.65 3216.23 2814.52L3281.8 2727.68C3284.55 2724 3288.53 2721.44 3293.01 2720.45C3297.5 2719.47 3302.18 2720.13 3306.22 2722.31L3369.5 2756.17C3373.45 2758.29 3376.54 2761.72 3378.23 2765.86C3379.93 2770.01 3380.12 2774.62 3378.77 2778.9L3343.47 2890.96C3341.97 2895.73 3338.67 2899.73 3334.27 2902.11C3329.87 2904.48 3324.72 2905.06 3319.91 2903.7Z" fill="#6C63FF"/>
</g>
<defs>
<clipPath id="clip0_6_525">
<rect width="3202" height="2898" fill="white" transform="translate(899 1051)"/>
</clipPath>
</defs>
</svg>
