<svg width="50" height="50" viewBox="0 0 50 50" fill="none" xmlns="http://www.w3.org/2000/svg">
<path d="M49.7887 19.5294C49.6123 19.2941 49.4358 19.1176 48.5534 19.0588C48.3181 19.0588 47.6123 19 46.377 19C43.1417 19 40.9064 20 39.7887 21.9412C40.0828 20 38.2005 19 34.0828 19C29.2593 19 26.2005 20.9412 24.9652 24.8824C24.4946 26.3529 24.4946 27.5294 24.8475 28.4706H23.6711C22.7887 28.5294 21.6123 28.5882 20.8475 28.5882C19.0828 28.5882 17.9652 28.2941 17.5534 27.7059C17.2005 27.1765 17.2005 26.1765 17.6711 24.7059C18.4358 22.2941 20.2593 21.2353 23.2005 21.2353C24.7299 21.2353 26.2005 21.4118 26.2005 21.4118C26.377 21.4118 26.4946 21.1765 26.4946 21L26.4358 20.8235L26.3181 20C26.2593 19.4706 25.8475 19.1765 25.1417 19.0588C24.4946 19 23.9652 19 23.2593 19H23.2005C19.377 19 16.6711 20.2941 15.2005 22.7647C15.7299 20.2353 13.9652 19 9.90637 19C7.61226 19 5.9652 19.0588 5.02402 19.1765C4.25931 19.2941 3.78873 19.5882 3.61226 20.1176L3.25931 21.1765C3.20049 21.3529 3.31814 21.4706 3.55343 21.4706C3.7299 21.4706 4.43578 21.3529 5.61226 21.2941C7.20049 21.1765 8.31814 21.1176 9.08284 21.1176C11.3181 21.1176 12.3181 21.7059 11.9652 22.8235C11.9064 23.0588 11.7299 23.2353 11.4358 23.2941C9.31814 23.6471 7.61226 23.8824 6.37696 24.0588C2.84755 24.5294 0.788726 25.5882 0.259314 27.3529C-0.505392 29.7647 1.37696 30.9412 5.90637 30.9412C8.14167 30.9412 10.0828 30.8235 11.6123 30.5294C12.4946 30.3529 12.9652 30.1765 13.1417 29.5882L13.9652 26.8824C13.9064 29.5882 15.7299 30.9412 19.6123 30.9412C21.2593 30.9412 22.8476 30.8824 23.6123 30.7647C24.377 30.6471 24.7887 30.4706 24.9652 29.8824L25.1417 29.0588C25.9652 30.3529 27.7887 31 30.5534 31C33.4946 31 35.2005 30.9412 35.6711 30.7647C36.0828 30.6471 36.3181 30.4118 36.4358 30.1176C36.4358 30.0588 36.4358 30 36.4946 29.9412L36.8476 28.8235C36.9064 28.6471 36.7887 28.5294 36.5534 28.5294L34.6711 28.6471C33.4358 28.7059 32.4358 28.7647 31.7299 28.7647C30.377 28.7647 29.4946 28.6471 28.9652 28.4706C28.2005 28.1765 27.8476 27.6471 27.9064 26.7647L33.8476 26C36.4946 25.6471 38.3181 24.8235 39.2005 23.5294L37.1417 30.4118C37.0828 30.5294 37.1417 30.6471 37.2005 30.7059C37.2593 30.7647 37.377 30.8235 37.6123 30.8235H40.0828C40.4946 30.8235 40.6711 30.5882 40.7299 30.4118L42.9064 22.8235C43.2005 21.8235 44.0828 21.3529 45.7299 21.3529C47.2005 21.3529 48.2593 21.3529 48.9652 21.4118H49.024C49.1417 21.4118 49.377 21.3529 49.5534 21.0588L49.9064 20C49.9064 19.8235 49.9064 19.6471 49.7887 19.5294ZM10.1417 28.5882C9.37696 28.7059 8.25931 28.7647 6.84755 28.7647C4.31814 28.7647 3.25931 28.2353 3.55343 27.2353C3.78873 26.5294 4.43579 26.0588 5.49461 25.9412L11.2005 25.1765L10.1417 28.5882ZM36.4358 22.4706C36.2005 23.2353 35.0828 23.7647 33.0828 24.0588L28.3181 24.7059L28.4358 24.2941C28.8476 23 29.377 22.1765 30.0828 21.7059C30.7887 21.2353 31.9652 21 33.6123 21C35.7887 21.0588 36.7299 21.5294 36.4358 22.4706Z" fill="black"/>
</svg>
