<svg width="50" height="50" viewBox="0 0 50 50" fill="none" xmlns="http://www.w3.org/2000/svg">
<path d="M25 2C12.2969 2 2 12.2969 2 25C2 37.7031 12.2969 48 25 48C37.7031 48 48 37.7031 48 25C48 12.2969 37.7031 2 25 2ZM22.2812 19.125L24.125 20.5625L19.5625 24.125L20.4375 24.8125L25 21.25L26.8438 22.6875L22.2812 26.2812L23.1562 26.9688L27.7188 23.375V20.0938H31V26.7812H34.3125V29.5625H27.7188V26.2812L22.2812 30.5312L17.3125 26.625C16.5977 28.3477 14.875 29.5625 12.875 29.5625H8.625V20.0938H12.875C15.1055 20.0938 16.7109 21.5195 17.3125 23.0312L22.2812 19.125ZM35.1875 20.0938H38.4688V26.7812H41.7812V29.5625H35.1875V20.0938ZM11.8125 22.8125V26.8438H12.5312C13.6484 26.8438 14.5938 26.2148 14.5938 24.8125C14.5938 23.5273 13.7305 22.8125 12.5312 22.8125H11.8125Z" fill="black"/>
</svg>
