<svg width="50" height="50" viewBox="0 0 50 50" fill="none" xmlns="http://www.w3.org/2000/svg">
<path d="M23.8434 18.7469C21.7699 18.7469 19.5496 19.873 19.5496 22.2198C19.5496 24.3261 21.2521 24.9936 23.0225 25.4608C24.71 25.9108 26.4618 26.1429 26.4618 27.3804C26.4618 28.5538 25.0299 28.8116 24.1455 28.8116C22.7939 28.8116 21.524 28.2172 21.524 26.6907V26.6876H19.165C19.1322 29.5173 21.5118 30.7709 24.0509 30.7709C27.1712 30.7709 28.8239 29.1967 28.8239 27.0905C28.8239 24.4858 26.2021 23.9826 25.3662 23.7732C22.4896 23.0341 21.9116 22.8967 21.9116 22.0123C21.9116 21.0483 22.9258 20.7092 23.7305 20.7092C24.9367 20.7092 25.996 21.0629 26.0773 22.4457H28.4393C28.4393 19.7941 26.2387 18.7469 23.8434 18.7469ZM34.61 18.75C31.2225 18.75 29.2664 21.2884 29.2664 24.7681C29.2664 28.2478 31.2225 30.7861 34.61 30.7861C37.9975 30.7861 39.9536 28.2478 39.9536 24.7681C39.9536 21.2884 37.999 18.75 34.61 18.75ZM9.50317 19.0857V30.4504H11.8683V27.0416H14.0076C16.8998 27.0416 18.8416 25.6214 18.8416 23.0652C18.8416 20.5105 16.8982 19.0857 14.0076 19.0857H9.50317ZM0 19.0887V30.4504H8.49304V28.4241H2.36206V25.6073H8.08105V23.6328H2.36206V21.1121H8.49304V19.0887H0ZM40.8478 19.0887V30.4504H43.1641V25.8484C43.1641 24.5906 43.1177 23.4729 43.0756 22.4854C43.349 23.0541 44.1774 24.7637 44.5618 25.4059L47.5739 30.4535H50V19.0887H47.6868V23.5779C47.6868 24.8357 47.73 26.0694 47.7722 27.0569C47.4988 26.4881 46.6704 24.7785 46.286 24.1364L43.2739 19.0887H40.8478ZM34.61 20.7764C36.7615 20.7764 37.5946 22.7571 37.5946 24.7711C37.5946 26.7836 36.7615 28.7628 34.61 28.7628C32.4584 28.7628 31.6284 26.7836 31.6284 24.7711C31.6284 22.7586 32.4569 20.7764 34.61 20.7764ZM11.8683 21.1121H14.0076C15.4919 21.1121 16.4795 21.7589 16.4795 23.0652C16.4795 24.3699 15.4919 25.0183 14.0076 25.0183H11.8683V21.1121Z" fill="black"/>
</svg>
