<svg width="50" height="50" viewBox="0 0 50 50" fill="none" xmlns="http://www.w3.org/2000/svg">
<path d="M25.2051 2.00781L20.1504 16H23.3945C25.5145 16 26.6576 17.632 25.9316 19.627L20.4922 34.002L16.5742 34L22.1504 19H18.9648L13.3887 34H9.15039L20.7988 2.39453C20.3278 2.48153 19.8604 2.57931 19.4004 2.69531C9.41639 5.20231 2.00195 14.251 2.00195 25.002C2.00195 35.383 8.91491 44.1744 18.3789 47.0254C18.6999 47.1224 19.0246 47.2158 19.3516 47.2988L20.043 45.3867L24.0684 34.2578H24.0703L30.5898 16H38.3926C40.5146 16 41.6566 17.632 40.9316 19.627L36.1836 32.3145C35.8456 33.2415 34.7624 34 33.7754 34H28.1504L23.8262 45.9414L23.1113 47.918C23.4033 47.942 23.6952 47.9646 23.9902 47.9766C24.3262 47.9916 24.663 48.002 25.002 48.002C37.684 48.002 48.002 37.685 48.002 25.002C48.001 12.61 38.1482 2.48144 25.8672 2.02344C25.6472 2.01544 25.4261 2.00981 25.2051 2.00781ZM33.9648 19L29.4551 31H32.6406L37.1504 19H33.9648Z" fill="black"/>
</svg>
