<svg width="50" height="50" viewBox="0 0 50 50" fill="none" xmlns="http://www.w3.org/2000/svg">
<path d="M50 16.6667H0V33.3333H50V16.6667Z" fill="black"/>
<path d="M12.4322 27.1479C12.8176 27.5031 13.2468 27.6166 13.7104 27.6458C14.3822 27.6864 14.9781 27.4833 15.5062 27.0771C15.6354 26.9771 15.676 26.9458 15.676 26.9458C15.676 26.9458 16.4854 27.5802 16.8187 27.8364C16.5468 28.1583 16.2281 28.3791 15.8801 28.5573C14.7312 29.1458 13.5374 29.2729 12.3135 28.8323C10.9114 28.3271 10.0937 27.0687 10.1687 25.5854C10.2447 24.0844 11.2156 22.8687 12.6604 22.5187C13.7687 22.251 14.8312 22.3698 15.7645 23.0802C16.4426 23.5969 16.8072 24.4135 16.9593 25.2344C16.9593 25.2344 14.2562 26.3906 13.0062 26.9073C12.826 26.9823 12.6468 27.0573 12.4322 27.1479ZM11.9499 25.9666C12.9593 25.5489 13.9656 25.1323 14.9718 24.7156C14.6239 23.9635 13.8301 23.6562 13.0281 23.9364C12.2479 24.2083 11.7499 25.1291 11.9499 25.9666Z" fill="white"/>
<path d="M28.2041 29.0979C26.5041 29.0802 25.125 27.9854 24.8072 26.3896C24.4218 24.4604 25.8166 22.6052 27.7864 22.4229C29.1208 22.3 30.2583 22.6875 31.0729 23.7771C32.5843 25.7989 31.302 28.7323 28.7885 29.0427C28.5937 29.0677 28.3989 29.0802 28.2041 29.0979ZM28.2395 27.5354C29.2072 27.5375 29.9291 26.7823 29.9354 25.7604C29.9416 24.75 29.1812 23.9458 28.2177 23.9427C27.2427 23.9396 26.5187 24.7073 26.5218 25.7406C26.526 26.7448 27.2802 27.5333 28.2395 27.5354Z" fill="white"/>
<path d="M42.3167 29.0979C40.6167 29.0802 39.2375 27.9854 38.9198 26.3896C38.5344 24.4604 39.9292 22.6052 41.899 22.4229C43.2333 22.3 44.3708 22.6875 45.1854 23.7771C46.6969 25.7989 45.4146 28.7323 42.901 29.0427C42.7063 29.0677 42.5115 29.0802 42.3167 29.0979ZM42.3521 27.5354C43.3198 27.5375 44.0427 26.7823 44.0479 25.7604C44.0542 24.75 43.2938 23.9458 42.3302 23.9427C41.3552 23.9396 40.6312 24.7073 40.6344 25.7406C40.6385 26.7448 41.3927 27.5333 42.3521 27.5354Z" fill="white"/>
<path d="M22.2677 29.1531C22.2677 29.0541 22.2687 26.4583 22.2677 25.3375C22.2666 24.5469 21.6375 23.9552 20.7948 23.951C19.9677 23.9458 19.3541 24.5344 19.3531 25.3385C19.3521 26.4594 19.3531 29.1708 19.3531 29.1708L17.5396 29.1729L17.5468 22.5291C17.5468 22.5291 18.7635 22.5104 19.3406 22.5104C19.3406 22.7854 19.3343 23.3771 19.3343 23.3771C19.3343 23.3771 19.4781 23.2437 19.5229 23.1989C20.7281 21.976 22.8833 22.1854 23.7218 23.6062C23.9541 24 24.0739 24.4281 24.076 24.8802C24.0843 26.1969 24.0791 29.1552 24.0791 29.1552C24.0791 29.1552 22.8791 29.1531 22.2677 29.1531Z" fill="white"/>
<path d="M31.4208 22.5083C32.0895 22.5083 33.4666 22.5239 33.4666 22.5239C33.4666 22.5239 35.0062 26.7156 35.0562 26.8458C35.176 26.5218 36.3145 23.4187 36.6406 22.4979C37.3135 22.5166 37.9822 22.5083 38.6926 22.5083C38.6624 22.5958 36.0239 29.1729 36.0239 29.1729L34.0697 29.1698C33.2343 27.1271 31.4489 22.5958 31.4208 22.5083Z" fill="white"/>
<path d="M6.00725 27.4927C6.11558 27.4927 10.0364 27.5041 10.0364 27.5041L10.0343 29.151L4.16663 29.1552V20.7458H6.01037C6.01037 20.7458 6.00725 27.3791 6.00725 27.4927Z" fill="white"/>
</svg>
