<svg width="727" height="175" viewBox="0 0 727 175" fill="none" xmlns="http://www.w3.org/2000/svg">
<path d="M724.87 7.72059C722.297 4.28922 719.723 1.71569 706.855 0.857846C703.424 0.857846 693.13 0 675.115 0C627.934 0 595.336 14.5833 579.037 42.8922C583.326 14.5833 555.875 0 495.826 0C425.483 0 380.875 28.3088 362.86 85.7843C355.998 107.23 355.998 124.387 361.145 138.113H343.988C331.12 138.971 313.963 139.828 302.811 139.828C277.076 139.828 260.777 135.539 254.772 126.961C249.625 119.24 249.625 104.657 256.488 83.2108C267.64 48.0392 294.233 32.598 337.125 32.598C359.429 32.598 380.875 35.1716 380.875 35.1716C383.449 35.1716 385.164 31.7402 385.164 29.1667L384.306 26.5931L382.591 14.5833C381.733 6.86275 375.728 2.57353 365.434 0.857846C355.998 3.25963e-06 348.277 0 337.983 0H337.125C281.365 0 241.904 18.8725 220.458 54.902C228.179 18.0147 202.444 0 143.252 0C109.797 0 85.7769 0.857845 72.0514 2.57353C60.8995 4.28922 54.0367 8.57843 51.4632 16.299L46.3162 31.7402C45.4583 34.3137 47.174 36.0294 50.6054 36.0294C53.1789 36.0294 63.473 34.3137 80.6299 33.4559C103.792 31.7402 120.091 30.8824 131.243 30.8824C163.841 30.8824 178.424 39.4608 173.277 55.7598C172.419 59.1912 169.846 61.7647 165.556 62.6226C134.674 67.7696 109.797 71.201 91.7818 73.7745C40.3113 80.6373 10.2867 96.0784 2.56616 121.814C-8.5858 156.985 18.8652 174.142 84.9191 174.142C117.517 174.142 145.826 172.426 168.13 168.137C180.998 165.564 187.86 162.99 190.434 154.412L202.444 114.951C201.586 154.412 228.179 174.142 284.797 174.142C308.816 174.142 331.978 173.284 343.13 171.569C354.282 169.853 360.287 167.279 362.86 158.701L365.434 146.691C377.444 165.564 404.037 175 444.355 175C487.248 175 512.125 174.142 518.988 171.569C524.993 169.853 528.424 166.422 530.14 162.132C530.14 161.275 530.14 160.417 530.998 159.559L536.145 143.26C537.002 140.686 535.287 138.971 531.855 138.971L504.404 140.686C486.39 141.544 471.806 142.402 461.512 142.402C441.782 142.402 428.914 140.686 421.194 138.113C410.042 133.824 404.895 126.103 405.752 113.235L492.395 102.083C530.998 96.9363 557.591 84.9265 570.458 66.0539L540.434 166.422C539.576 168.137 540.434 169.853 541.292 170.711C542.149 171.569 543.865 172.426 547.297 172.426H583.326C589.331 172.426 591.904 168.995 592.762 166.422L624.502 55.7598C628.792 41.1765 641.659 34.3137 665.679 34.3137C687.125 34.3137 702.566 34.3137 712.86 35.1716H713.718C715.434 35.1716 718.865 34.3137 721.439 30.0245L726.586 14.5833C726.586 12.0098 726.586 9.43628 724.87 7.72059ZM146.684 139.828C135.532 141.544 119.233 142.402 98.6446 142.402C61.7573 142.402 46.3162 134.681 50.6054 120.098C54.0367 109.804 63.473 102.941 78.9142 101.225L162.125 90.0735L146.684 139.828ZM530.14 50.6127C526.708 61.7647 510.409 69.4853 481.243 73.7745L411.757 83.2108L413.473 77.2059C419.478 58.3333 427.199 46.3235 437.493 39.4608C447.787 32.598 464.944 29.1667 488.963 29.1667C520.703 30.0245 534.429 36.8873 530.14 50.6127Z" fill="black"/>
</svg>
